<svg width="69" height="69" viewBox="0 0 69 69" fill="none" xmlns="http://www.w3.org/2000/svg">
<circle cx="34.5" cy="34.5" r="34.5" fill="#FF6581"/>
<mask id="mask0" mask-type="alpha" maskUnits="userSpaceOnUse" x="0" y="0" width="69" height="69">
<circle cx="34.5" cy="34.5" r="34.5" fill="white"/>
</mask>
<g mask="url(#mask0)">
<path d="M30.1053 17.8224C28.7374 17.8224 27.6246 18.9352 27.6246 20.303C27.6246 21.6709 28.7374 22.7836 30.1053 22.7836C31.4731 22.7836 32.5859 21.6708 32.5859 20.303C32.586 18.9352 31.4731 17.8224 30.1053 17.8224ZM30.1053 21.6118C29.3836 21.6118 28.7965 21.0247 28.7965 20.303C28.7965 19.5814 29.3836 18.9943 30.1053 18.9943C30.8269 18.9943 31.414 19.5814 31.414 20.303C31.414 21.0247 30.827 21.6118 30.1053 21.6118Z" fill="white"/>
<path d="M23.3948 17.8224C22.027 17.8224 20.9142 18.9352 20.9142 20.303C20.9142 21.6709 22.027 22.7836 23.3948 22.7836C24.7626 22.7836 25.8754 21.6708 25.8754 20.303C25.8754 18.9352 24.7626 17.8224 23.3948 17.8224ZM23.3948 21.6118C22.6732 21.6118 22.0861 21.0247 22.0861 20.303C22.0861 19.5814 22.6732 18.9943 23.3948 18.9943C24.1165 18.9943 24.7036 19.5814 24.7036 20.303C24.7036 21.0247 24.1165 21.6118 23.3948 21.6118Z" fill="white"/>
<path d="M44.9078 17.8224H38.1682C37.4316 17.8224 36.8324 18.4216 36.8324 19.1582V21.4479C36.8324 22.1845 37.4316 22.7837 38.1682 22.7837H44.9078C45.6444 22.7837 46.2436 22.1845 46.2436 21.4479V19.1582C46.2436 18.4216 45.6444 17.8224 44.9078 17.8224ZM45.0717 21.4479C45.0717 21.5383 44.9982 21.6118 44.9078 21.6118H38.1682C38.0778 21.6118 38.0043 21.5383 38.0043 21.4479V19.1582C38.0043 19.0678 38.0778 18.9943 38.1682 18.9943H44.9078C44.9982 18.9943 45.0717 19.0678 45.0717 19.1582V21.4479Z" fill="white"/>
<path d="M34.0525 27.0029C31.6492 27.0029 29.3751 27.7779 27.4763 29.244C27.2201 29.4418 27.1729 29.8097 27.3706 30.0659C27.5684 30.3221 27.9364 30.3693 28.1925 30.1716C29.8843 28.8653 31.9107 28.1748 34.0525 28.1748C39.345 28.1748 43.6507 32.4805 43.6507 37.7729C43.6507 43.0654 39.345 47.3711 34.0525 47.3711C28.7601 47.3711 24.4544 43.0653 24.4544 37.7729C24.4544 35.57 25.2197 33.4181 26.6093 31.7133C26.8138 31.4625 26.7762 31.0934 26.5254 30.8889C26.2745 30.6845 25.9054 30.7221 25.701 30.9729C24.1415 32.8861 23.2825 35.3011 23.2825 37.7729C23.2825 43.7115 28.1139 48.5429 34.0525 48.5429C39.9911 48.5429 44.8225 43.7115 44.8225 37.7729C44.8225 31.8343 39.9911 27.0029 34.0525 27.0029Z" fill="white"/>
<path d="M50.9994 50.4514V19.5033C50.9994 17.0202 49.045 15 46.6429 15H22.3565C19.9544 15 18 17.0202 18 19.5033V50.4976C18 52.9802 19.9544 55 22.3564 55H46.6428C49.0234 55 50.963 53.0159 50.9977 50.5639C51.0001 50.5421 51.0005 50.4667 50.9994 50.4514ZM49.8655 49.9116H45.172C44.8589 49.9116 44.6051 50.1739 44.6051 50.4975C44.6051 50.8211 44.8589 51.0834 45.172 51.0834H49.8156C49.5469 52.6416 48.2264 53.8281 46.6429 53.8281H22.3565C20.7729 53.8281 19.4525 52.6416 19.1838 51.0835H45.7291C46.0422 51.0835 46.296 50.8212 46.296 50.4976C46.296 50.174 46.0422 49.9116 45.7291 49.9116H19.134V25.6059H49.8655V49.9116ZM49.8655 24.4341H19.1339V19.5033C19.1339 17.6663 20.5796 16.1719 22.3565 16.1719H46.6429C48.4198 16.1719 49.8655 17.6663 49.8655 19.5033V24.4341Z" fill="white"/>
<path d="M34.0526 29.7267C29.6158 29.7267 26.0062 33.3363 26.0062 37.773C26.0063 38.1634 26.0344 38.554 26.0897 38.9336C26.0897 38.934 26.0899 38.9342 26.0899 38.9345C26.3639 40.8297 27.3131 42.5706 28.7631 43.8364C30.2277 45.1151 32.1062 45.8193 34.0526 45.8193C35.9989 45.8193 37.8774 45.1151 39.3421 43.8364C40.7919 42.5707 41.7411 40.83 42.0152 38.9349C42.0153 38.9345 42.0154 38.9341 42.0154 38.9337C42.0708 38.5543 42.099 38.1638 42.099 37.773C42.099 33.3362 38.4893 29.7267 34.0526 29.7267ZM38.5714 42.9536C37.3202 44.0459 35.7154 44.6475 34.0526 44.6475C32.3897 44.6475 30.7849 44.0459 29.5338 42.9536C28.3858 41.9515 27.6051 40.6015 27.3105 39.1215L27.6718 38.8756C28.2755 38.4648 29.0926 38.4645 29.6967 38.8756C30.6942 39.5543 32.0423 39.5545 33.0401 38.8756C33.6429 38.4657 34.4622 38.4654 35.065 38.8756C36.0629 39.5546 37.4105 39.5544 38.4086 38.8754C39.0138 38.4638 39.8284 38.4636 40.4332 38.8755L40.7945 39.1215C40.5001 40.6015 39.7194 41.9515 38.5714 42.9536ZM40.927 37.8016C40.9229 37.7992 40.9185 37.7971 40.9143 37.7947C40.5997 37.6117 40.256 37.494 39.8983 37.4311C39.4505 37.3523 38.979 37.3889 38.5454 37.5228C38.2626 37.61 37.9936 37.7401 37.7491 37.9067C37.1448 38.3179 36.3277 38.3172 35.7242 37.9067C35.2288 37.5697 34.6508 37.3914 34.0526 37.3914C33.4581 37.3914 32.8722 37.5724 32.3808 37.9066C31.7755 38.3183 30.9609 38.3181 30.3559 37.9066C29.8605 37.5696 29.2825 37.3914 28.6843 37.3914C28.1651 37.3914 27.639 37.5314 27.1908 37.7947C27.1867 37.7972 27.1823 37.7992 27.1782 37.8016C27.1781 37.792 27.1781 37.7825 27.1781 37.7729C27.1782 33.9824 30.262 30.8985 34.0526 30.8985C37.8433 30.8985 40.9271 33.9824 40.9271 37.7729C40.9271 37.7825 40.9271 37.7921 40.927 37.8016Z" fill="white"/>
<path fill-rule="evenodd" clip-rule="evenodd" d="M-27.0607 97.9393L97.9393 -27.0607L100.061 -24.9393L-24.9393 100.061L-27.0607 97.9393Z" fill="white" stroke="#FF6581"/>
</g>
</svg>
