<svg width="69" height="69" viewBox="0 0 69 69" fill="none" xmlns="http://www.w3.org/2000/svg">
<circle cx="34.5" cy="34.5" r="34.5" fill="#FF6581"/>
<path d="M30.771 26.5046L31.9013 27.2581L30.771 28.0117L31.4871 29.0852L34.2278 27.2581L31.4871 25.431L30.771 26.5046Z" fill="white"/>
<path d="M38.5129 25.431L35.7722 27.2581L38.5129 29.0852L39.229 28.0117L38.0987 27.2581L39.229 26.5046L38.5129 25.431Z" fill="white"/>
<path d="M36.9326 23.0114C36.6807 22.7595 36.6807 22.351 36.9326 22.099C37.1846 21.8471 37.5931 21.8471 37.845 22.099L39.5134 23.7674C39.7653 24.0193 39.7653 24.4278 39.5134 24.6798C39.2614 24.9317 38.8529 24.9317 38.601 24.6798L36.9326 23.0114Z" fill="white"/>
<path d="M45.9677 45.1342V40.8632C45.9677 39.4084 45.2606 38.0342 44.0761 37.1884L43.1761 36.5458C43.3109 36.2464 43.3871 35.9219 43.3871 35.5838C43.3871 34.5709 42.7413 33.6748 41.78 33.3542L41.5174 33.2664C41.3684 33.2167 41.2516 33.1122 41.1722 32.9793C41.6606 32.2238 41.9587 31.3761 42.0567 30.4838H42.0967C43.52 30.4838 44.6774 29.3264 44.6774 27.9032C44.6774 27.3219 44.4774 26.7909 44.1516 26.3593L45.8206 21.3529C45.918 21.06 45.9677 20.7548 45.9677 20.4458C45.9677 18.8658 44.6825 17.5806 43.1025 17.5806H42.9258C42.7677 17.5806 42.6103 17.5942 42.4548 17.62L40.2671 17.9845C40.078 18.0167 39.8916 17.9651 39.7445 17.84C39.5967 17.7155 39.5161 17.5406 39.5161 17.3477V16.8258C39.5161 15.7071 38.4658 14.8232 37.3542 15.0316L28.5329 16.6851C27.42 16.8942 26.6129 17.8671 26.6129 18.9987C26.6129 19.4651 26.7496 19.9167 27.0077 20.3032L27.0748 20.4032C27.1871 20.5722 27.2142 20.7787 27.1484 20.9709C27.0825 21.1626 26.9348 21.309 26.7425 21.3729L25.8006 21.6871C24.7425 22.04 24.0322 23.0251 24.0322 24.14C24.0322 24.6096 24.16 25.069 24.4006 25.4703L25.4342 27.1929C25.369 27.42 25.3225 27.6548 25.3225 27.9032C25.3225 29.3264 26.48 30.4838 27.9032 30.4838H27.9425C28.0406 31.3761 28.3387 32.2238 28.8271 32.9793C28.7484 33.1122 28.6309 33.2167 28.4819 33.2664L28.2193 33.3542C27.2587 33.6748 26.6129 34.5709 26.6129 35.5838C26.6129 35.9213 26.689 36.2458 26.8238 36.5451L25.9238 37.1877C24.7393 38.0342 24.0322 39.4084 24.0322 40.8632V45.1342C24.0322 46.9638 25.0838 48.5484 26.6129 49.3264V54C26.6129 54.5523 27.0606 55 27.6129 55H42.3871C42.9394 55 43.3871 54.5523 43.3871 54V49.3264C44.9161 48.5484 45.9677 46.9638 45.9677 45.1342ZM44.6774 40.8632V42.0967H41.5277L40.3013 39.6432L42.3819 37.5626L43.3264 38.2374C44.1722 38.8426 44.6774 39.8245 44.6774 40.8632ZM42.0967 29.1935V26.6129C42.8084 26.6129 43.3871 27.1916 43.3871 27.9032C43.3871 28.6148 42.8084 29.1935 42.0967 29.1935ZM26.2077 22.9122L27.1496 22.598C27.7264 22.4058 28.1709 21.9664 28.3677 21.3909C28.5651 20.8155 28.4851 20.1948 28.1484 19.689L28.0813 19.589C27.9651 19.4135 27.9032 19.209 27.9032 18.9987C27.9032 18.4871 28.2684 18.0471 28.7709 17.9529L37.5903 16.3C37.9116 16.2367 38.2258 16.4967 38.2258 16.8258V17.3477C38.2258 17.918 38.4755 18.4567 38.9103 18.8251C39.3458 19.1935 39.918 19.3516 40.4793 19.2574L42.6671 18.8929C42.7529 18.878 42.8387 18.8709 42.9258 18.8709H43.1025C43.9709 18.8709 44.6774 19.5774 44.6774 20.4458C44.6774 20.6155 44.6503 20.7826 44.5967 20.9438L43.0722 25.5161C42.7709 25.3935 42.4419 25.3226 42.0967 25.3226V24.6774C42.0967 24.3211 41.8079 24.0322 41.4516 24.0322C41.0953 24.0322 40.8064 24.3211 40.8064 24.6774V29.8387C40.8064 30.5103 40.6509 31.1548 40.3722 31.749C39.6367 30.9516 38.5974 30.4838 37.4722 30.4838C37.0471 30.4838 36.6264 30.5516 36.2219 30.6864L35.6451 30.8787V29.8387C35.6451 29.4824 35.3563 29.1935 35 29.1935C34.6437 29.1935 34.3548 29.4824 34.3548 29.8387V30.8787L33.7774 30.6858C33.3735 30.5516 32.9529 30.4838 32.5277 30.4838C31.4025 30.4838 30.3632 30.9516 29.6277 31.749C29.349 31.1548 29.1935 30.5103 29.1935 29.8387V25.2903C29.1935 23.8851 30.3367 22.7419 31.7419 22.7419C32.4226 22.7419 33.0625 23.0071 33.5438 23.4884L34.7329 24.6774C34.9848 24.9293 35.3932 24.9293 35.6451 24.6774C35.897 24.4255 35.897 24.017 35.6451 23.7651L34.4561 22.5761C33.7309 21.8509 32.7671 21.4516 31.7419 21.4516C29.6251 21.4516 27.9032 23.1735 27.9032 25.2903V25.3226C27.2516 25.3226 26.6625 25.5735 26.2077 25.9735L25.5071 24.8058C25.3864 24.6051 25.3225 24.3748 25.3225 24.14C25.3225 23.5819 25.678 23.0884 26.2077 22.9122ZM26.6129 27.9032C26.6129 27.1916 27.1916 26.6129 27.9032 26.6129V29.1935C27.1916 29.1935 26.6129 28.6148 26.6129 27.9032ZM28.6284 34.578L28.8909 34.4903C29.3819 34.3271 29.7787 33.9819 30.0103 33.52L30.1471 33.2458C30.6006 32.338 31.5129 31.7742 32.5277 31.7742C32.8142 31.7742 33.0974 31.82 33.3696 31.9103L34.1845 32.1826C34.7103 32.3574 35.2896 32.358 35.8167 32.1819L36.6309 31.9109C36.9025 31.82 37.1858 31.7742 37.4722 31.7742C38.4871 31.7742 39.3993 32.338 39.8529 33.2458L39.9896 33.52C40.2206 33.9819 40.618 34.3271 41.109 34.4903L41.3709 34.578C41.8051 34.7226 42.0967 35.1271 42.0967 35.5838C42.0967 35.8664 41.9864 36.1335 41.7864 36.3335L39.6935 38.4264L39.5161 38.0735V35.6451C39.5161 34.2219 38.3587 33.0645 36.9355 33.0645C36.1613 33.0645 35.4735 33.4142 35 33.9561C34.5264 33.4142 33.8387 33.0645 33.0645 33.0645C31.6413 33.0645 30.4838 34.2219 30.4838 35.6451V38.0735L30.3071 38.4271L28.2142 36.3342C28.0135 36.1335 27.9032 35.8671 27.9032 35.5838C27.9032 35.1271 28.1948 34.7226 28.6284 34.578ZM26.6735 38.238L27.6187 37.5632L29.6993 39.6438L28.4722 42.0967H25.3225V40.8632C25.3225 39.8245 25.8277 38.8426 26.6735 38.238ZM25.3225 45.1342V43.3871H27.8271L26.9697 45.1023C26.8104 45.421 26.9395 45.8085 27.2582 45.9679C27.577 46.1274 27.9647 45.9982 28.1241 45.6794L31.7742 38.378V35.6451C31.7742 34.9335 32.3529 34.3548 33.0645 34.3548C33.7761 34.3548 34.3548 34.9335 34.3548 35.6451C34.3548 37.2967 34.1187 38.9367 33.6529 40.52L32.0129 46.098C31.5877 47.5406 30.2413 48.5484 28.7367 48.5484C26.8542 48.5484 25.3225 47.0167 25.3225 45.1342ZM42.0967 52.7096C42.0967 53.2619 41.649 53.7096 41.0967 53.7096H28.9032C28.3509 53.7096 27.9032 53.2619 27.9032 52.7096V49.76C28.1742 49.809 28.4516 49.8387 28.7367 49.8387C30.809 49.8387 32.6651 48.4503 33.2503 46.4619L34.8903 40.8838C34.9316 40.7426 34.9613 40.5987 34.9993 40.4561C35.0374 40.598 35.0671 40.7426 35.1084 40.8838L36.7484 46.4619C37.3348 48.4503 39.1909 49.8387 41.2632 49.8387C41.5484 49.8387 41.8258 49.809 42.0967 49.76V52.7096ZM41.2632 48.5484C39.7587 48.5484 38.4122 47.5406 37.9877 46.0974L36.3477 40.5193C35.8813 38.9367 35.6451 37.2967 35.6451 35.6451C35.6451 34.9335 36.2238 34.3548 36.9355 34.3548C37.6471 34.3548 38.2258 34.9335 38.2258 35.6451V38.378L41.8759 45.6788C42.0352 45.9976 42.4229 46.1268 42.7417 45.9673C43.0604 45.8079 43.1895 45.4204 43.0302 45.1017L42.1729 43.3871H44.6774V45.1342C44.6774 47.0167 43.1458 48.5484 41.2632 48.5484Z" fill="white"/>
<path d="M16.9355 33.0645H18.9813C19.3813 33.0645 19.5387 33.3697 19.5774 33.4626C19.6161 33.5555 19.7206 33.8826 19.4374 34.1658L16.8794 36.7239C16.5052 37.0987 16.2903 37.6174 16.2903 38.1478C16.2903 39.2581 17.1935 40.1613 18.3039 40.1613C18.8419 40.1613 19.3477 39.9523 19.7277 39.5716L24.0323 35.2671C24.2842 35.0152 24.2842 34.6068 24.0323 34.3549C23.7803 34.103 23.3719 34.103 23.12 34.3549L18.8155 38.6594C18.6787 38.7962 18.4974 38.871 18.3039 38.871C17.9052 38.871 17.5806 38.5465 17.5806 38.1478C17.5806 37.9574 17.6581 37.771 17.7923 37.6362L20.3503 35.0781C20.9148 34.5142 21.0755 33.7058 20.7697 32.9684C20.4645 32.2323 19.7794 31.7742 18.9813 31.7742H16.9355C16.58 31.7742 16.2903 31.4852 16.2903 31.1291C16.2903 30.7729 16.58 30.4839 16.9355 30.4839H18.3361C19.1342 30.4839 19.8194 30.0258 20.1245 29.2891C20.4297 28.5516 20.269 27.7433 19.7052 27.1794L19.0826 26.5568C18.9484 26.4226 18.871 26.2362 18.871 26.0458C18.871 25.6471 19.1955 25.3226 19.5942 25.3226C19.7877 25.3226 19.969 25.3974 20.1058 25.5342L23.12 28.5484C23.3719 28.8003 23.7803 28.8003 24.0323 28.5484C24.2842 28.2965 24.2842 27.8881 24.0323 27.6362L21.0181 24.622C20.6381 24.2413 20.1323 24.0323 19.5942 24.0323C18.4839 24.0323 17.5806 24.9355 17.5806 26.0458C17.5806 26.5762 17.7955 27.0949 18.1703 27.4697L18.7929 28.0923C19.0755 28.3749 18.9716 28.702 18.9329 28.7955C18.8942 28.8891 18.7368 29.1936 18.3361 29.1936H16.9355C15.8684 29.1936 15 30.062 15 31.1291C15 32.1962 15.8684 33.0645 16.9355 33.0645Z" fill="white"/>
<path d="M51.6639 29.1936C51.2639 29.1936 51.1064 28.8884 51.0677 28.7955C51.029 28.7026 50.9245 28.3755 51.2077 28.0923L51.8303 27.4697C52.2045 27.0949 52.4193 26.5762 52.4193 26.0458C52.4193 24.9355 51.5161 24.0323 50.4058 24.0323C49.8677 24.0323 49.3619 24.2413 48.9819 24.622L45.9677 27.6362C45.7158 27.8881 45.7158 28.2965 45.9677 28.5484C46.2196 28.8003 46.6281 28.8003 46.88 28.5484L49.8942 25.5342C50.031 25.3974 50.2122 25.3226 50.4058 25.3226C50.8045 25.3226 51.129 25.6471 51.129 26.0458C51.129 26.2362 51.0516 26.4226 50.9174 26.5574L50.2948 27.18C49.7303 27.7439 49.5697 28.5523 49.8755 29.2897C50.1806 30.0258 50.8658 30.4839 51.6639 30.4839H53.0645C53.42 30.4839 53.7097 30.7729 53.7097 31.1291C53.7097 31.4852 53.42 31.7742 53.0645 31.7742H51.0187C50.2206 31.7742 49.5355 32.2323 49.2303 32.9691C48.9251 33.7065 49.0858 34.5149 49.6497 35.0787L52.2077 37.6368C52.3419 37.771 52.4193 37.9574 52.4193 38.1478C52.4193 38.5465 52.0948 38.871 51.6961 38.871C51.5026 38.871 51.3213 38.7962 51.1845 38.6594L46.88 34.3549C46.6281 34.103 46.2196 34.103 45.9677 34.3549C45.7158 34.6068 45.7158 35.0152 45.9677 35.2671L50.2722 39.5716C50.6522 39.9523 51.1581 40.1613 51.6961 40.1613C52.8064 40.1613 53.7097 39.2581 53.7097 38.1478C53.7097 37.6174 53.4948 37.0987 53.12 36.7239L50.5619 34.1658C50.2793 33.8833 50.3832 33.5562 50.4219 33.4626C50.4606 33.3691 50.618 33.0645 51.0187 33.0645H53.0645C54.1316 33.0645 55 32.1962 55 31.1291C55 30.062 54.1316 29.1936 53.0645 29.1936H51.6639Z" fill="white"/>
<path d="M16.2903 22.0968C16.2903 21.7404 16.5791 21.4516 16.9354 21.4516C17.2918 21.4516 17.5806 21.7404 17.5806 22.0968C17.5806 22.4531 17.2918 22.7419 16.9354 22.7419C16.5791 22.7419 16.2903 22.4531 16.2903 22.0968Z" fill="white"/>
<path d="M20.8064 41.4516C20.8064 41.0953 21.0952 40.8065 21.4516 40.8065C21.8079 40.8065 22.0967 41.0953 22.0967 41.4516C22.0967 41.8079 21.8079 42.0968 21.4516 42.0968C21.0952 42.0968 20.8064 41.8079 20.8064 41.4516Z" fill="white"/>
<path d="M24.0322 51.7742C24.0322 51.4179 24.3211 51.129 24.6774 51.129C25.0337 51.129 25.3225 51.4179 25.3225 51.7742C25.3225 52.1305 25.0337 52.4194 24.6774 52.4194C24.3211 52.4194 24.0322 52.1305 24.0322 51.7742Z" fill="white"/>
<path d="M21.4515 54.3549C21.4515 53.9986 21.7404 53.7097 22.0967 53.7097C22.453 53.7097 22.7419 53.9986 22.7419 54.3549C22.7419 54.7112 22.453 55 22.0967 55C21.7404 55 21.4515 54.7112 21.4515 54.3549Z" fill="white"/>
<path d="M47.2581 41.4516C47.2581 41.0953 47.5469 40.8065 47.9032 40.8065C48.2595 40.8065 48.5484 41.0953 48.5484 41.4516C48.5484 41.8079 48.2595 42.0968 47.9032 42.0968C47.5469 42.0968 47.2581 41.8079 47.2581 41.4516Z" fill="white"/>
<path d="M51.129 44.0322C51.129 43.6759 51.4179 43.3871 51.7742 43.3871C52.1305 43.3871 52.4194 43.6759 52.4194 44.0322C52.4194 44.3886 52.1305 44.6774 51.7742 44.6774C51.4179 44.6774 51.129 44.3886 51.129 44.0322Z" fill="white"/>
<path d="M45.9678 15.6452C45.9678 15.2888 46.2566 15 46.6129 15C46.9692 15 47.2581 15.2888 47.2581 15.6452C47.2581 16.0015 46.9692 16.2903 46.6129 16.2903C46.2566 16.2903 45.9678 16.0015 45.9678 15.6452Z" fill="white"/>
</svg>
