<svg width="69" height="69" viewBox="0 0 69 69" fill="none" xmlns="http://www.w3.org/2000/svg">
<circle cx="34.5" cy="34.5" r="34.5" fill="#FF6581"/>
<path d="M28 34C28 34.5523 28.4477 35 29 35C29.5523 35 30 34.5523 30 34V33C30 32.4477 29.5523 32 29 32C28.4477 32 28 32.4477 28 33V34Z" fill="white"/>
<path d="M40 33V34C40 34.5523 40.4477 35 41 35C41.5523 35 42 34.5523 42 34V33C42 32.4477 41.5523 32 41 32C40.4477 32 40 32.4477 40 33Z" fill="white"/>
<path d="M33.4 38.3333C33.4 38.7015 33.0866 39 32.7 39C32.3134 39 32 38.7015 32 38.3333C32 36.4924 33.567 35 35.5 35C37.433 35 39 36.4924 39 38.3333C39 38.7015 38.6866 39 38.3 39C37.9134 39 37.6 38.7015 37.6 38.3333C37.6 37.2288 36.6598 36.3333 35.5 36.3333C34.3402 36.3333 33.4 37.2288 33.4 38.3333Z" fill="white"/>
<path d="M53.9597 18.5102C50.0036 15.6102 44.0527 17.2613 33.2993 20.3038C27.2562 18.3174 18.2126 15.9287 14.86 18.0911C11.5074 20.2535 12.9909 24.57 16.8883 33.3873C16.3854 35.3234 13.6866 46.0769 15.7736 50.4772C16.4693 51.9439 18.1623 52.5223 20.6516 52.5223C23.669 52.5223 27.8597 51.6841 32.8383 50.5442C34.2548 51.022 40.4403 53 45.7626 53C48.4614 53 50.9339 52.4887 52.4678 51.0136C54.2949 49.2199 55.3929 40.872 51.7888 32.9766C54.3033 28.1237 57.2703 20.9324 53.9597 18.5102ZM51.2692 49.7815C48.5704 52.4552 41.0186 51.1309 36.0819 49.8234H36.1574L39.6692 48.9853C40.1321 48.8834 40.4248 48.4256 40.323 47.9627C40.2211 47.4999 39.7633 47.2071 39.3004 47.309L35.7802 48.1471L32.8048 48.8344C32.6651 48.8312 32.5268 48.8628 32.4025 48.9266C24.8088 50.6448 18.2461 51.8685 17.2571 49.7647C15.9161 46.9234 17.0308 40.1009 17.9779 35.885L18.6736 37.4272C18.8894 37.8367 19.3963 37.9938 19.8058 37.778C20.1801 37.5808 20.3486 37.1356 20.199 36.7399C15.5724 26.3552 13.234 21.1671 15.7904 19.4908L15.7736 19.4657C19.319 17.2027 33.1903 21.8711 38.2611 23.8408C38.699 23.9911 39.1758 23.758 39.326 23.3202C39.4672 22.909 39.2705 22.4581 38.873 22.2818C38.479 22.131 37.4733 21.737 36.0736 21.2342C45.4692 18.6107 50.012 17.6888 52.9455 19.8344C55.6695 21.8292 51.1854 31.183 47.7238 36.5974C47.4739 36.9885 47.5884 37.5083 47.9795 37.7583C48.3706 38.0082 48.8903 37.8937 49.1403 37.5026C49.3666 37.1506 49.9784 36.1616 50.7495 34.8122C53.6076 42.0202 52.3253 48.7422 51.2692 49.7815Z" fill="white" stroke="#FF6581" stroke-width="0.5"/>
</svg>
