<svg width="69" height="69" viewBox="0 0 69 69" fill="none" xmlns="http://www.w3.org/2000/svg">
<circle cx="34.5" cy="34.5" r="34.5" fill="#FF6581"/>
<path d="M35.6776 46.7062H35.669C33.9693 46.7062 32.4163 46.4646 31.7175 46.1368C31.3896 45.9901 31.2516 45.6105 31.3982 45.2827C31.5449 44.9548 31.9332 44.8168 32.261 44.9721C32.6234 45.136 33.8313 45.4034 35.6862 45.4293C36.0399 45.438 36.3247 45.7227 36.3247 46.0764C36.316 46.4301 36.0313 46.7062 35.6776 46.7062Z" fill="white"/>
<path d="M41.6653 45.9815C41.346 45.9815 41.0613 45.7399 41.0268 45.4121C40.9837 45.0584 41.2339 44.7391 41.5962 44.696C43.8826 44.4199 45.7979 43.7987 47.2905 42.8324C47.5925 42.6426 47.9894 42.7289 48.1878 43.0308C48.3776 43.3328 48.2913 43.7297 47.9894 43.9281C46.3242 44.998 44.2277 45.6882 41.7429 45.9815C41.717 45.9815 41.6911 45.9815 41.6653 45.9815Z" fill="white"/>
<path d="M51.1298 39.968C51.0436 39.968 50.9486 39.9508 50.8624 39.9076C50.5345 39.7609 50.3965 39.3727 50.5431 39.0535C50.7933 38.4927 51.009 37.8887 51.173 37.2503C51.2592 36.9052 51.613 36.6981 51.9581 36.7844C52.3032 36.8707 52.5103 37.2244 52.424 37.5695C52.2428 38.2856 52.0012 38.9586 51.7165 39.5884C51.613 39.83 51.38 39.968 51.1298 39.968Z" fill="white"/>
<path d="M52.1997 35.3091C52.191 35.3091 52.1824 35.3091 52.1738 35.3091C51.82 35.3004 51.5353 34.9985 51.5526 34.6361C51.682 30.9521 50.0255 27.3285 47.0144 24.697C46.747 24.4641 46.7211 24.0499 46.954 23.7825C47.187 23.515 47.6011 23.4891 47.8686 23.7221C51.173 26.6124 52.9848 30.607 52.8467 34.6792C52.8381 35.033 52.5534 35.3091 52.1997 35.3091Z" fill="white"/>
<path d="M45.4096 23.3597C45.2888 23.3597 45.1767 23.3252 45.0645 23.2648C42.4244 21.6083 39.2667 20.711 35.9192 20.6679C35.5654 20.6592 35.2721 20.3659 35.2807 20.0122C35.2893 19.6584 35.5827 19.3737 35.9364 19.3737C39.5169 19.4169 42.9076 20.3832 45.7547 22.1605C46.0567 22.3503 46.1516 22.7471 45.9618 23.0491C45.8324 23.2476 45.6253 23.3597 45.4096 23.3597Z" fill="white"/>
<path d="M25.1691 23.4805C24.9534 23.4805 24.7463 23.3769 24.6169 23.1785C24.4271 22.8765 24.522 22.4797 24.824 22.2899C26.8342 21.0388 29.2069 20.1674 31.8901 19.7015L32.0712 19.667C32.5716 19.5808 32.9685 19.5117 33.5034 19.46C33.8572 19.4255 34.1764 19.6929 34.2109 20.0467C34.2454 20.4004 33.978 20.7196 33.6242 20.7541C33.1411 20.7973 32.7787 20.8577 32.2869 20.9439L32.1058 20.9784C29.5865 21.4098 27.3692 22.2208 25.5056 23.3856C25.4107 23.446 25.2899 23.4805 25.1691 23.4805Z" fill="white"/>
<path d="M17.5939 39.2433C17.2574 39.2433 16.9727 38.9845 16.9468 38.648C16.9382 38.5531 16.7829 36.3789 17.3869 33.48C17.9477 30.7968 19.3022 26.9747 22.5548 24.0068C22.8223 23.7652 23.2278 23.7825 23.4694 24.0499C23.711 24.3174 23.6937 24.7229 23.4262 24.9645C20.4324 27.6908 19.1814 31.2195 18.6638 33.7043C18.0857 36.4307 18.241 38.5272 18.241 38.5531C18.2669 38.9068 17.9994 39.2174 17.6457 39.2433C17.6284 39.2433 17.6112 39.2433 17.5939 39.2433Z" fill="white"/>
<path d="M29.7504 53.7292C29.5002 53.7292 29.2586 53.5825 29.155 53.341L27.0068 48.4145C26.6012 47.4741 26.722 46.3784 27.326 45.5502L28.275 44.2474C28.7841 43.5485 28.6633 42.5736 28.0076 42.0214C27.9558 41.9783 27.9127 41.9265 27.8695 41.8661L27.2656 40.8739C27.0758 40.572 27.1707 40.1751 27.4813 39.9853C27.7832 39.7955 28.1801 39.8904 28.3699 40.201L28.9221 41.1069C30.0264 42.1077 30.199 43.7987 29.319 45.0152L28.3699 46.318C28.0334 46.7753 27.9731 47.3792 28.1974 47.8969L28.9135 49.5448L28.8531 48.4836C28.8013 47.5604 29.2068 46.6631 29.9229 46.0764L31.8037 44.558C32.261 44.1956 32.4853 43.6089 32.3991 43.0309L31.7347 38.6911C31.683 38.3374 31.9245 38.0096 32.2783 37.9578C32.632 37.906 32.9599 38.1476 33.0116 38.5013L33.676 42.8411C33.8313 43.8678 33.4258 44.9203 32.6148 45.576L30.7339 47.0945C30.337 47.4137 30.1127 47.9141 30.1386 48.4232L30.3888 53.0649C30.4061 53.3755 30.199 53.6602 29.8884 53.7292C29.8539 53.7292 29.8021 53.7292 29.7504 53.7292Z" fill="white"/>
<path d="M18.1548 51.2358C17.9563 51.2358 17.7579 51.1409 17.6371 50.9769C13.4354 45.3086 15.437 42.2026 15.7476 41.7885C16.7743 40.1406 18.845 39.528 19.5697 39.4331C22.1839 39.0794 24.2373 40.0112 25.2036 42.0041C25.3589 42.3234 25.2208 42.7116 24.9016 42.8669C24.5824 43.0222 24.1941 42.8842 24.0388 42.5649C23.5384 41.521 22.3823 40.3563 19.7509 40.71C19.1038 40.7963 17.5422 41.3484 16.8434 42.4873C16.8261 42.5132 16.8175 42.5304 16.7916 42.5563C16.7484 42.6167 16.3171 43.212 16.2998 44.394C16.2826 45.7486 16.8175 47.1549 17.4904 48.3714C17.594 47.5086 17.8269 46.4647 18.3359 45.3517C18.4826 45.0238 18.8709 44.8858 19.1901 45.0325C19.5179 45.1791 19.656 45.5674 19.5093 45.8866C18.3877 48.3628 18.7846 50.4334 18.7932 50.4593C18.8536 50.7526 18.6983 51.0546 18.4222 51.1754C18.3273 51.2185 18.241 51.2358 18.1548 51.2358Z" fill="white"/>
<path d="M21.1055 51.9691C20.8984 51.9691 20.6914 51.8656 20.5706 51.6844C18.2929 48.3196 17.7407 45.6796 18.776 43.1344C18.9141 42.8065 19.285 42.6426 19.6215 42.7806C19.9494 42.9187 20.1133 43.2897 19.9753 43.6262C19.3454 45.1791 19.4317 46.758 20.3204 48.6647C20.4239 48.2592 20.5878 47.871 20.8121 47.5172C21.9769 45.6882 24.3754 45.2568 24.7205 45.205C27.5849 44.4976 28.7151 43.0136 28.7237 42.9963C28.9308 42.703 29.3363 42.6426 29.6297 42.8497C29.923 43.0567 29.9834 43.4622 29.7763 43.7556C29.7246 43.8332 28.3786 45.645 25.0052 46.4647C24.9793 46.4733 24.9621 46.4733 24.9362 46.4733C24.9189 46.4733 22.8051 46.7839 21.9079 48.2075C21.4247 48.9667 21.3643 49.9503 21.7353 51.115C21.8302 51.4256 21.6835 51.7534 21.3988 51.8915C21.2953 51.9519 21.2004 51.9691 21.1055 51.9691Z" fill="white"/>
<path d="M16.6794 42.2371C16.6535 42.2371 16.619 42.2371 16.5931 42.2284C16.2394 42.1853 15.9892 41.8575 16.041 41.5037C16.0582 41.357 16.5414 37.906 19.0089 35.3867C19.2591 35.1279 19.6646 35.1279 19.9234 35.3781C20.1823 35.6283 20.1823 36.0338 19.9321 36.2926C17.7665 38.5099 17.3265 41.6504 17.3265 41.6763C17.2747 42.0041 16.9986 42.2371 16.6794 42.2371Z" fill="white"/>
<path d="M39.5515 53.7292C39.3789 53.7292 39.2064 53.6602 39.0856 53.5307L34.2886 48.4663C34.0901 48.2592 34.0556 47.94 34.2023 47.6984L36.4973 43.7728L35.1772 42.7979C34.8925 42.5822 34.8235 42.1853 35.0392 41.892C35.2549 41.6073 35.6517 41.5382 35.9451 41.7539L37.7396 43.074C38.0071 43.2724 38.0848 43.6348 37.9122 43.9195L35.5741 47.9314L36.2816 48.682L36.2125 48.5612C36.0745 48.3196 36.1004 48.0263 36.2816 47.8192L40.1899 43.2638L38.5334 39.1915C38.3953 38.8637 38.5593 38.484 38.8871 38.346C39.215 38.208 39.5946 38.3719 39.7326 38.6997L41.5272 43.1257C41.6221 43.3501 41.579 43.6089 41.415 43.7901L37.5498 48.2937L40.1123 52.7456C40.2762 53.0303 40.1985 53.3927 39.9397 53.5911C39.8275 53.6947 39.6895 53.7292 39.5515 53.7292Z" fill="white"/>
<path d="M32.5457 36.9483C32.5112 36.9483 32.4681 36.9483 32.4336 36.9397C32.0798 36.8793 31.8469 36.5428 31.9073 36.1891C31.9418 35.982 32.6838 31.1246 26.8169 29.8909C24.1165 29.3214 22.0199 29.5544 20.5791 30.5725C19.3022 31.4784 18.8622 32.807 18.7155 33.5145C18.6465 33.8682 18.3014 34.0839 17.9477 34.0149C17.5939 33.9459 17.3696 33.6008 17.4472 33.247C17.6371 32.3498 18.1892 30.676 19.8285 29.5199C21.5713 28.2861 24.0129 27.9842 27.0844 28.6226C29.1205 29.054 31.7692 30.167 32.8218 33.0745C33.4516 34.8087 33.1928 36.3444 33.1842 36.4134C33.1238 36.724 32.8477 36.9483 32.5457 36.9483Z" fill="white"/>
<path d="M25.333 26.3708C25.2553 26.3708 25.169 26.3535 25.0914 26.319C22.7533 25.37 20.8379 23.515 19.5438 20.9785C18.5688 19.0718 18.2841 17.4584 18.2755 17.3894C18.2151 17.0356 18.4567 16.6992 18.8018 16.6474C19.1555 16.587 19.4834 16.8286 19.5438 17.1737C19.5524 17.2341 20.6136 23.1009 25.5659 25.1198C25.8938 25.2578 26.0577 25.6288 25.9196 25.9653C25.8334 26.2155 25.5918 26.3708 25.333 26.3708Z" fill="white"/>
<path d="M33.0634 24.861C32.9771 24.861 32.8908 24.8437 32.8046 24.8092C32.4767 24.6625 32.3301 24.2829 32.4681 23.955C33.8917 20.6852 31.9936 14.9046 31.9763 14.8528C31.8642 14.5164 32.0453 14.1454 32.3818 14.0332C32.7183 13.921 33.0893 14.1022 33.2014 14.4387C33.2877 14.6975 35.2721 20.7455 33.6501 24.4727C33.5552 24.7143 33.3136 24.861 33.0634 24.861Z" fill="white"/>
<path d="M44.4779 25.4648C44.3485 25.4648 44.2104 25.4217 44.0982 25.3354C43.8135 25.1197 43.7445 24.7229 43.9602 24.4295C46.4881 20.9871 46.0309 17.3979 46.0222 17.3634C45.9705 17.0097 46.2207 16.6818 46.5744 16.6301C46.9281 16.5783 47.256 16.8285 47.3078 17.1822C47.3336 17.3462 47.834 21.3322 45.0042 25.1887C44.8747 25.3699 44.6849 25.4648 44.4779 25.4648Z" fill="white"/>
<path d="M48.7485 36.077C47.5234 36.077 46.6606 35.9389 46.6089 35.9303C46.2551 35.8699 46.0222 35.5421 46.074 35.1883C46.1344 34.8346 46.4622 34.6016 46.8159 34.6534C46.885 34.662 53.5024 35.706 55.7887 31.6337C55.9613 31.3231 56.3582 31.211 56.6688 31.3835C56.9794 31.5561 57.0915 31.9529 56.919 32.2635C55.7715 34.2997 53.6059 35.5766 50.6553 35.9562C49.9737 36.0511 49.318 36.077 48.7485 36.077Z" fill="white"/>
<path d="M38.9648 32.6C38.611 32.6 38.3867 32.5827 38.3695 32.5827C38.0157 32.5482 37.7483 32.2376 37.7828 31.8839C37.8173 31.5301 38.1279 31.2627 38.4816 31.2972C38.5248 31.2972 42.899 31.6509 44.3485 28.6658C44.5038 28.3465 44.892 28.2085 45.2112 28.3638C45.5305 28.5191 45.6685 28.9073 45.5132 29.2266C44.7453 30.814 43.2527 31.9011 41.1994 32.367C40.3021 32.5568 39.4911 32.6 38.9648 32.6Z" fill="white"/>
<path d="M50.405 52.2797C50.2066 52.2797 50.0082 52.1848 49.8874 52.0209L47.1265 48.2937C46.9971 48.1126 46.9626 47.8796 47.0489 47.6725L48.1705 44.834L45.8755 41.6245C45.6684 41.3312 45.7374 40.9257 46.0222 40.7186C46.3155 40.5116 46.721 40.5806 46.9281 40.8653L49.4301 44.3595C49.5595 44.5407 49.5854 44.7736 49.5077 44.9721L48.3861 47.802L48.5501 48.0263C48.5156 47.871 48.5414 47.7157 48.6191 47.5776L50.5517 44.1956L49.5595 41.1932C49.4474 40.8567 49.6285 40.4857 49.9736 40.3735C50.3101 40.2614 50.6811 40.4425 50.7933 40.7877L51.8804 44.0662C51.9408 44.2387 51.9149 44.4285 51.8286 44.5925L49.896 47.9745L51.0348 51.4256C51.1384 51.7276 51.0003 52.0554 50.7156 52.2021C50.6035 52.2539 50.5086 52.2797 50.405 52.2797Z" fill="white"/>
</svg>
