<svg width="74" height="74" viewBox="0 0 74 74" fill="none" xmlns="http://www.w3.org/2000/svg">
<path d="M73.5258 36.5322C73.5258 56.7083 57.1698 73.0644 36.9936 73.0644C16.8174 73.0644 0.461426 56.7083 0.461426 36.5322C0.461426 16.356 16.8174 0 36.9936 0C57.1698 0 73.5258 16.356 73.5258 36.5322Z" fill="#00ABFF"/>
<path fill-rule="evenodd" clip-rule="evenodd" d="M10.6904 25.8968C10.6904 24.1034 12.1443 22.6495 13.9377 22.6495H60.3278C62.1212 22.6495 63.5751 24.1034 63.5751 25.8968V44.4529C63.5751 46.2463 62.1212 47.7002 60.3278 47.7002H56.8486V45.8446H60.3278C61.0964 45.8446 61.7195 45.2215 61.7195 44.4529V25.8968C61.7195 25.1282 61.0964 24.5051 60.3278 24.5051H13.9377C13.1691 24.5051 12.546 25.1282 12.546 25.8968V44.4529C12.546 45.2215 13.1691 45.8446 13.9377 45.8446H38.8724V47.7002H13.9377C12.1443 47.7002 10.6904 46.2463 10.6904 44.4529V25.8968Z" fill="white"/>
<path fill-rule="evenodd" clip-rule="evenodd" d="M46.8804 45.3671L51.7703 50.2561L53.3742 48.6521L48.4852 43.7623L50.6432 41.6043L41.7618 38.6437L44.7225 47.5251L46.8804 45.3671ZM44.0665 50.3045C43.8139 50.2447 43.611 50.0592 43.5292 49.8133L39.3005 37.1277C39.2107 36.859 39.2808 36.5627 39.4808 36.3627C39.6801 36.1634 39.9772 36.0904 40.2458 36.1824L52.9314 40.4111C53.1774 40.4929 53.3628 40.6958 53.4226 40.9483C53.4818 41.2002 53.4066 41.4652 53.2234 41.6484L51.1093 43.7624L55.4699 48.1237C55.7619 48.4156 55.7619 48.8887 55.4699 49.1807L52.2989 52.3517C52.0068 52.6438 51.5338 52.6438 51.2419 52.3518L46.8806 47.9912L44.7665 50.1052C44.584 50.2877 44.3191 50.3629 44.0665 50.3045Z" fill="white"/>
<path d="M39.8918 33.0364C39.4786 33.0364 39.1443 32.702 39.1443 32.2889V27.8039C39.1443 27.3907 39.4786 27.0564 39.8918 27.0564C40.305 27.0564 40.6393 27.3907 40.6393 27.8039V32.2889C40.6393 32.702 40.305 33.0364 39.8918 33.0364Z" fill="white"/>
<path d="M36.1923 34.1312L33.0205 30.9595C32.7285 30.6675 32.7285 30.1944 33.0205 29.9025C33.3125 29.6105 33.7855 29.6105 34.0775 29.9025L37.2492 33.0742C37.5412 33.3662 37.5412 33.8392 37.2492 34.1312C36.9573 34.4232 36.4842 34.4232 36.1923 34.1312Z" fill="white"/>
<path d="M33.0205 43.6455C32.7285 43.3535 32.7285 42.8804 33.0205 42.5885L36.1922 39.4167C36.4842 39.1248 36.9573 39.1248 37.2492 39.4167C37.5412 39.7087 37.5412 40.1818 37.2492 40.4737L34.0775 43.6455C33.7855 43.9374 33.3125 43.9374 33.0205 43.6455Z" fill="white"/>
<path d="M42.5342 34.1312C42.2422 33.8392 42.2422 33.3662 42.5342 33.0742L45.7059 29.9025C45.9979 29.6105 46.4709 29.6105 46.7629 29.9025C47.0549 30.1944 47.0549 30.6675 46.7629 30.9595L43.5912 34.1312C43.2992 34.4232 42.8262 34.4232 42.5342 34.1312Z" fill="white"/>
<path d="M35.4068 37.5213H30.9218C30.5086 37.5213 30.1743 37.187 30.1743 36.7738C30.1743 36.3606 30.5086 36.0263 30.9218 36.0263H35.4068C35.82 36.0263 36.1543 36.3606 36.1543 36.7738C36.1543 37.187 35.82 37.5213 35.4068 37.5213Z" fill="white"/>
</svg>
