<svg width="112" height="112" viewBox="0 0 112 112" fill="none" xmlns="http://www.w3.org/2000/svg">
<g filter="url(#filter0_d)">
<path d="M92.5258 50.8564C92.5258 71.0326 76.1698 87.3886 55.9936 87.3886C35.8174 87.3886 19.4614 71.0326 19.4614 50.8564C19.4614 30.6802 35.8174 14.3242 55.9936 14.3242C76.1698 14.3242 92.5258 30.6802 92.5258 50.8564Z" fill="#00ABFF"/>
</g>
<path fill-rule="evenodd" clip-rule="evenodd" d="M67.4444 30.8125C67.842 31.0401 67.9782 31.5441 67.7487 31.9382L66.5121 34.0613C66.2825 34.4554 65.774 34.5905 65.3764 34.3629C64.9787 34.1353 64.8425 33.6313 65.0721 33.2372L66.3087 31.1142C66.5382 30.72 67.0467 30.585 67.4444 30.8125Z" fill="white"/>
<path fill-rule="evenodd" clip-rule="evenodd" d="M44.4053 30.8125C44.0077 31.0401 43.8715 31.5441 44.101 31.9382L45.3376 34.0613C45.5672 34.4554 46.0757 34.5905 46.4733 34.3629C46.871 34.1353 47.0072 33.6313 46.7776 33.2372L45.541 31.1142C45.3115 30.72 44.803 30.585 44.4053 30.8125Z" fill="white"/>
<path fill-rule="evenodd" clip-rule="evenodd" d="M55.9503 25.922C56.4095 25.922 56.7817 26.291 56.7817 26.7461V31.8942C56.7817 32.3493 56.4095 32.7182 55.9503 32.7182C55.4912 32.7182 55.1189 32.3493 55.1189 31.8942V26.7461C55.1189 26.291 55.4912 25.922 55.9503 25.922Z" fill="white"/>
<path fill-rule="evenodd" clip-rule="evenodd" d="M32.8565 35.2338C33.1812 34.912 33.7076 34.912 34.0323 35.2338L37.7048 38.874C38.0295 39.1959 38.0295 39.7176 37.7048 40.0395C37.3801 40.3613 36.8537 40.3613 36.529 40.0395L32.8565 36.3992C32.5319 36.0774 32.5319 35.5556 32.8565 35.2338Z" fill="white"/>
<path fill-rule="evenodd" clip-rule="evenodd" d="M78.7596 35.2338C78.4349 34.912 77.9085 34.912 77.5839 35.2338L73.9114 38.874C73.5867 39.1959 73.5867 39.7176 73.9114 40.0395C74.236 40.3613 74.7625 40.3613 75.0871 40.0395L78.7596 36.3992C79.0843 36.0774 79.0843 35.5556 78.7596 35.2338Z" fill="white"/>
<path fill-rule="evenodd" clip-rule="evenodd" d="M43.9744 63.7665C43.9744 63.309 44.3452 62.9381 44.8028 62.9381H49.4849C49.9424 62.9381 50.3133 63.309 50.3133 63.7665C50.3133 64.224 49.9424 64.5949 49.4849 64.5949H44.8028C44.3452 64.5949 43.9744 64.224 43.9744 63.7665ZM43.9744 67.7093C43.9744 67.2518 44.3452 66.8809 44.8028 66.8809H51.4563C51.9138 66.8809 52.2847 67.2518 52.2847 67.7093C52.2847 68.1668 51.9138 68.5377 51.4563 68.5377H44.8028C44.3452 68.5377 43.9744 68.1668 43.9744 67.7093Z" fill="white"/>
<path fill-rule="evenodd" clip-rule="evenodd" d="M53.1131 44.9698V49.1421L54.7705 48.4055C55.4845 48.0882 56.2995 48.0882 57.0135 48.4055L58.6709 49.1421V44.9698H53.1131ZM52.5608 43.313C51.9508 43.313 51.4563 43.8075 51.4563 44.4175V49.9919C51.4563 50.7912 52.279 51.3259 53.0094 51.0013L55.4434 49.9195C55.729 49.7925 56.055 49.7925 56.3406 49.9195L58.7746 51.0013C59.505 51.3259 60.3277 50.7912 60.3277 49.9919V44.4175C60.3277 43.8075 59.8332 43.313 59.2232 43.313H52.5608Z" fill="white"/>
<path fill-rule="evenodd" clip-rule="evenodd" d="M39.2402 44.4774C39.2402 43.3794 40.1304 42.4893 41.2284 42.4893H69.946C71.0441 42.4893 71.9342 43.3794 71.9342 44.4774V73.1951C71.9342 74.2931 71.0441 75.1832 69.946 75.1832H41.2284C40.1304 75.1832 39.2402 74.2931 39.2402 73.1951V44.4774ZM41.2284 44.2565C41.1064 44.2565 41.0075 44.3554 41.0075 44.4774V73.1951C41.0075 73.3171 41.1064 73.416 41.2284 73.416H69.946C70.068 73.416 70.1669 73.3171 70.1669 73.1951V44.4774C70.1669 44.3554 70.068 44.2565 69.946 44.2565H41.2284Z" fill="white"/>
<defs>
<filter id="filter0_d" x="0.461426" y="0.324219" width="111.064" height="111.064" filterUnits="userSpaceOnUse" color-interpolation-filters="sRGB">
<feFlood flood-opacity="0" result="BackgroundImageFix"/>
<feColorMatrix in="SourceAlpha" type="matrix" values="0 0 0 0 0 0 0 0 0 0 0 0 0 0 0 0 0 0 127 0"/>
<feOffset dy="5"/>
<feGaussianBlur stdDeviation="9.5"/>
<feColorMatrix type="matrix" values="0 0 0 0 0.0963368 0 0 0 0 0.532362 0 0 0 0 0.745833 0 0 0 0.46 0"/>
<feBlend mode="normal" in2="BackgroundImageFix" result="effect1_dropShadow"/>
<feBlend mode="normal" in="SourceGraphic" in2="effect1_dropShadow" result="shape"/>
</filter>
</defs>
</svg>
