<svg width="112" height="112" viewBox="0 0 112 112" fill="none" xmlns="http://www.w3.org/2000/svg">
<g filter="url(#filter0_d)">
<path d="M92.0644 50.9209C92.0644 71.097 75.7083 87.453 55.5322 87.453C35.356 87.453 19 71.097 19 50.9209C19 30.7447 35.356 14.3887 55.5322 14.3887C75.7083 14.3887 92.0644 30.7447 92.0644 50.9209Z" fill="#00ABFF"/>
</g>
<path fill-rule="evenodd" clip-rule="evenodd" d="M76.0687 52.1967C77.8772 53.7942 79.3071 56.1108 79.3071 59.3726C79.3071 63.7666 77.6325 66.4664 75.671 68.0732C73.7468 69.6495 71.6193 70.117 70.7345 70.2127C70.0449 70.2873 67.7297 70.2985 65.3056 70.2899C62.8469 70.2811 60.1855 70.2506 58.7398 70.2321C58.6012 70.2303 58.4877 70.3417 58.4877 70.481C58.4877 72.1658 56.4467 73.0096 55.2531 71.8182L50.2654 66.8401C49.5152 66.0913 49.5152 64.8772 50.2654 64.1283L55.2175 59.1857C56.4243 57.9813 58.4877 58.8343 58.4877 60.5377C58.4877 60.6822 58.5992 60.7948 58.7361 60.8009C60.1135 60.8627 62.6512 60.9642 65.0262 60.9933C66.2145 61.0079 67.3532 61.0043 68.2817 60.9694C69.2508 60.9329 69.8821 60.8643 70.1313 60.7876C70.4278 60.6962 70.8498 60.4451 71.2477 60.0405C71.6394 59.6422 71.9578 59.1455 72.1056 58.6136C72.2495 58.0957 72.2374 57.5309 71.9561 56.9378C71.6694 56.3332 71.0729 55.6378 69.9399 54.936L70.8083 53.5395C72.1276 54.3567 72.9858 55.2673 73.4446 56.2347C73.9088 57.2137 73.933 58.1871 73.6925 59.0528C73.4558 59.9045 72.9689 60.6367 72.4229 61.1919C71.883 61.7407 71.2348 62.1677 70.617 62.358C70.125 62.5096 69.2713 62.5769 68.3438 62.6118C67.3756 62.6482 66.2059 62.6515 65.0059 62.6368C62.6042 62.6073 60.0456 62.5049 58.6621 62.4429C57.6377 62.3969 56.841 61.5535 56.841 60.5377C56.841 60.2986 56.5513 60.1789 56.3819 60.3479L51.4299 65.2905C51.3227 65.3975 51.3227 65.571 51.4299 65.6779L56.4175 70.656C56.5738 70.812 56.841 70.7015 56.841 70.481C56.841 69.4267 57.7037 68.5751 58.7609 68.5887C60.205 68.6072 62.8604 68.6375 65.3115 68.6463C67.7973 68.6552 69.985 68.6405 70.5572 68.5787C71.2294 68.506 73.0208 68.1179 74.6263 66.8027C76.1945 65.518 77.6604 63.2904 77.6604 59.3726C77.6604 56.6578 76.4942 54.7674 74.9773 53.4275C73.438 52.0678 71.5351 51.2779 70.1315 50.8459L70.6167 49.2753C72.1307 49.7412 74.2826 50.619 76.0687 52.1967Z" fill="white"/>
<path fill-rule="evenodd" clip-rule="evenodd" d="M43.3696 55.2166C43.3696 54.7627 43.7382 54.3948 44.1929 54.3948H48.8467C49.3014 54.3948 49.6701 54.7627 49.6701 55.2166C49.6701 55.6704 49.3014 56.0384 48.8467 56.0384H44.1929C43.7382 56.0384 43.3696 55.6704 43.3696 55.2166ZM43.3696 59.128C43.3696 58.6742 43.7382 58.3062 44.1929 58.3062H50.8062C51.2609 58.3062 51.6295 58.6742 51.6295 59.128C51.6295 59.5819 51.2609 59.9498 50.8062 59.9498H44.1929C43.7382 59.9498 43.3696 59.5819 43.3696 59.128Z" fill="white"/>
<path fill-rule="evenodd" clip-rule="evenodd" d="M38.7158 36.0217C38.7158 34.9626 39.576 34.1041 40.637 34.1041H69.3031C70.3641 34.1041 71.2243 34.9626 71.2243 36.0217V61.5727H69.5775V36.0217C69.5775 35.8704 69.4547 35.7477 69.3031 35.7477H40.637C40.4854 35.7477 40.3626 35.8704 40.3626 36.0217V64.6329C40.3626 64.7842 40.4854 64.9068 40.637 64.9068H50.3163V66.5504H40.637C39.576 66.5504 38.7158 65.6919 38.7158 64.6329V36.0217Z" fill="white"/>
<path fill-rule="evenodd" clip-rule="evenodd" d="M52.4529 36.5695V40.7087L54.1003 39.9779C54.81 39.6631 55.62 39.6631 56.3297 39.9779L57.9771 40.7087V36.5695H52.4529ZM51.904 34.9259C51.2977 34.9259 50.8062 35.4165 50.8062 36.0217V41.5517C50.8062 42.3446 51.6239 42.875 52.3499 42.553L54.7691 41.4798C55.053 41.3539 55.377 41.3539 55.6609 41.4798L58.0801 42.553C58.8061 42.875 59.6238 42.3446 59.6238 41.5517V36.0217C59.6238 35.4165 59.1323 34.9259 58.526 34.9259H51.904Z" fill="white"/>
<defs>
<filter id="filter0_d" x="0" y="0.388672" width="111.064" height="111.064" filterUnits="userSpaceOnUse" color-interpolation-filters="sRGB">
<feFlood flood-opacity="0" result="BackgroundImageFix"/>
<feColorMatrix in="SourceAlpha" type="matrix" values="0 0 0 0 0 0 0 0 0 0 0 0 0 0 0 0 0 0 127 0"/>
<feOffset dy="5"/>
<feGaussianBlur stdDeviation="9.5"/>
<feColorMatrix type="matrix" values="0 0 0 0 0.0963368 0 0 0 0 0.532362 0 0 0 0 0.745833 0 0 0 0.46 0"/>
<feBlend mode="normal" in2="BackgroundImageFix" result="effect1_dropShadow"/>
<feBlend mode="normal" in="SourceGraphic" in2="effect1_dropShadow" result="shape"/>
</filter>
</defs>
</svg>
