<svg width="74" height="74" viewBox="0 0 74 74" fill="none" xmlns="http://www.w3.org/2000/svg">
<path d="M73.5258 36.663C73.5258 56.8392 57.1698 73.1952 36.9936 73.1952C16.8174 73.1952 0.461426 56.8392 0.461426 36.663C0.461426 16.4869 16.8174 0.130859 36.9936 0.130859C57.1698 0.130859 73.5258 16.4869 73.5258 36.663Z" fill="#00ABFF"/>
<path fill-rule="evenodd" clip-rule="evenodd" d="M37.2117 22.4446C34.0369 22.4446 31.174 25.2269 31.189 28.9207L31.189 28.9245C31.189 32.6985 34.0391 35.5321 37.2117 35.5321C40.3812 35.5321 43.2328 32.7018 43.2328 28.8891C43.2328 25.1606 40.3915 22.4446 37.2117 22.4446ZM29.3334 28.9263C29.3155 24.2743 32.9424 20.589 37.2117 20.589C41.4764 20.589 45.0884 24.1969 45.0884 28.8891C45.0884 33.6048 41.5237 37.3877 37.2117 37.3877C32.9032 37.3877 29.3343 33.609 29.3334 28.9263ZM25.9313 42.3809C28.6307 40.176 32.4967 38.5848 37.2117 38.5848C41.9179 38.5848 45.7793 40.1763 48.4761 42.3811C51.1436 44.562 52.7547 47.4223 52.7547 49.9929C52.7547 50.9848 52.41 51.8953 51.4937 52.4947C50.6676 53.0351 49.5012 53.233 48.0676 53.233H26.3372C24.9036 53.233 23.7373 53.0351 22.9112 52.4947C21.9949 51.8953 21.6501 50.9848 21.6501 49.9929C21.6501 47.4222 23.2613 44.5618 25.9313 42.3809ZM27.1052 43.818C24.7094 45.775 23.5057 48.1548 23.5057 49.9929C23.5057 50.5189 23.656 50.7645 23.9269 50.9418C24.2881 51.178 25.0014 51.3773 26.3372 51.3773H48.0676C49.4034 51.3773 50.1167 51.178 50.4779 50.9418C50.7489 50.7645 50.8991 50.5189 50.8991 49.9929C50.8991 48.1546 49.6953 45.7748 47.3016 43.8177C44.9372 41.8846 41.491 40.4404 37.2117 40.4404C32.9226 40.4404 29.4717 41.8849 27.1052 43.818Z" fill="white"/>
</svg>
