<svg width="69" height="69" viewBox="0 0 69 69" fill="none" xmlns="http://www.w3.org/2000/svg">
<circle cx="34.5" cy="34.5" r="34.5" fill="#00B2FF"/>
<path d="M57.242 22.3193L57.235 22.3448L57.2414 22.3704C57.7304 24.3267 58.2225 29.3358 58.2225 34.155C58.2225 38.9747 57.7303 43.8836 57.1438 45.9363L57.1356 45.9652L57.1446 45.9939L57.7334 47.8584C57.8255 48.3267 57.7294 48.8841 57.4552 49.2496C57.3188 49.4315 57.1107 49.5946 56.8754 49.7122C56.6402 49.8299 56.3848 49.8985 56.1575 49.8985C55.9582 49.8985 55.7846 49.897 55.6118 49.8106L55.6121 49.8101L55.6016 49.8063L53.7319 49.1174L53.7041 49.1072L53.6753 49.1137C50.6312 49.8011 44.439 50.9 35.0984 50.9C25.6575 50.9 19.4643 50.0149 16.42 49.4257L16.4007 49.422L16.3813 49.4259L14.5116 49.8021L14.5014 49.8041L14.4919 49.8082C13.8549 50.0812 13.1128 49.8125 12.6406 49.2464C12.2668 48.7786 12.1793 48.2261 12.3608 47.7723L12.3609 47.7723L12.3628 47.7668L12.9532 45.9954L12.9626 45.9673L12.9551 45.9386C12.3675 43.6861 11.7775 38.6765 11.7775 34.155C11.7775 29.6317 12.3679 24.5267 13.0521 22.3764L13.062 22.3454L13.0517 22.3145L12.4612 20.5431C12.3672 20.261 12.3453 20.0079 12.3908 19.7693C12.4363 19.5305 12.5506 19.2991 12.7396 19.0627L12.7399 19.063L12.7448 19.0557C13.1128 18.5037 13.9477 18.2263 14.5903 18.5017L14.5903 18.5018L14.5935 18.503L16.3648 19.1919L16.3917 19.2023L16.42 19.1968C19.4643 18.6076 25.6575 17.7226 35.0984 17.7226C44.4414 17.7226 50.6334 18.6077 53.6753 19.2946L53.7041 19.3011L53.7319 19.2909L55.6016 18.6021L55.6017 18.6022L55.6064 18.6001C56.2437 18.327 56.9862 18.5961 57.4584 19.1627L57.4581 19.1629L57.4645 19.1694C57.8282 19.5331 57.9204 20.0806 57.7376 20.5376L57.737 20.5374L57.7341 20.548L57.242 22.3193ZM13.7424 48.424V48.4654L13.7717 48.4947L13.8424 48.424L13.7718 48.4947L13.7718 48.4948L13.7719 48.4948L13.7721 48.495L13.7726 48.4955L13.774 48.4969L13.7786 48.5013C13.7824 48.5049 13.7877 48.5097 13.7943 48.5153C13.8073 48.5264 13.8259 48.5413 13.8485 48.5564C13.8904 48.5843 13.96 48.6224 14.0393 48.6224H14.0506L14.0616 48.6199L16.1186 48.1475C16.1525 48.1458 16.1883 48.138 16.2172 48.1315C16.2254 48.1296 16.2334 48.1277 16.2412 48.1259C16.2683 48.1196 16.2934 48.1138 16.3191 48.1095C16.3911 48.0975 16.4176 48.1074 16.4287 48.1185L16.4499 48.1397L16.4792 48.1457C19.3405 48.7377 25.5471 49.6239 35.0984 49.6239C43.6738 49.6239 49.4737 48.5782 52.6353 48.0082C52.9966 47.943 53.3233 47.8841 53.6159 47.8337L53.6472 47.8283L53.6696 47.8058C53.6958 47.7796 53.7418 47.7613 53.7957 47.7613C53.8497 47.7613 53.8956 47.7796 53.9218 47.8058L53.939 47.823L53.9622 47.8304L56.1272 48.5193L56.142 48.524H56.1575L56.1695 48.524C56.2574 48.524 56.3418 48.524 56.4032 48.5087C56.4377 48.5001 56.478 48.4838 56.509 48.4489C56.5418 48.412 56.5527 48.3674 56.5527 48.3256V48.1288V48.1148L56.5489 48.1013L55.9623 46.0482V45.6816C56.3594 44.1798 57.0448 39.3612 57.0448 34.155C57.0448 31.5436 56.897 29.0308 56.6875 26.9734C56.4796 24.9311 56.2103 23.3303 55.9623 22.5277V22.1633L56.5422 20.1335C56.563 20.11 56.5809 20.0835 56.59 20.053C56.6042 20.0057 56.5925 19.9664 56.5791 19.9396C56.5607 19.9028 56.5551 19.8999 56.5534 19.8954C56.5527 19.8935 56.5527 19.8913 56.5527 19.8859C56.5527 19.844 56.5419 19.8026 56.5147 19.7676C56.4882 19.7336 56.4535 19.7152 56.4228 19.7049C56.3701 19.6874 56.3065 19.6875 56.263 19.6875L56.2559 19.6875H56.2383L56.2217 19.6935L54.0733 20.4748H53.7059C50.8446 19.9816 44.6418 18.9987 35.0984 18.9987C25.5471 18.9987 19.3405 19.8848 16.4792 20.4768L16.4499 20.4829L16.4287 20.5041C16.4176 20.5151 16.3911 20.525 16.3191 20.513C16.2934 20.5088 16.2683 20.5029 16.2412 20.4966C16.2333 20.4948 16.2254 20.493 16.2172 20.4911C16.1899 20.4849 16.1563 20.4776 16.1239 20.4754L14.0709 19.7911L14.0555 19.7859H14.0393C14.0352 19.7859 14.0312 19.7859 14.0272 19.7859C13.9394 19.7859 13.855 19.7859 13.7936 19.8012C13.7591 19.8098 13.7188 19.8261 13.6877 19.861C13.6549 19.8979 13.644 19.9425 13.644 19.9843V20.1811V20.1958L13.6483 20.2099L14.2345 22.164V22.5286C13.9867 23.3799 13.7172 25.103 13.5092 27.2074C13.2998 29.326 13.152 31.8386 13.152 34.2534C13.152 39.0669 13.8374 44.1799 14.3329 45.8797V46.2443L13.7534 48.1758C13.7325 48.1995 13.7144 48.2262 13.7051 48.2569C13.6909 48.3042 13.7027 48.3435 13.7161 48.3703C13.7345 48.4071 13.74 48.41 13.7417 48.4145C13.7424 48.4164 13.7424 48.4186 13.7424 48.424Z" fill="white" stroke="white" stroke-width="0.2"/>
<path d="M52.9101 24.511C52.5165 24.4126 52.1229 24.6094 52.0245 25.0031C51.5324 26.9712 51.1388 29.825 51.1388 32.9741C51.1388 33.3677 51.434 33.7613 51.8276 33.7613C52.2213 33.7613 52.5165 33.4661 52.5165 33.0725C52.6149 30.0218 52.9101 27.3648 53.4022 25.3967C53.599 25.0031 53.3038 24.6094 52.9101 24.511Z" fill="white"/>
<path d="M52.9101 39.8627C52.9101 39.4691 52.5164 39.1738 52.1228 39.1738C51.7292 39.1738 51.434 39.5675 51.434 39.9611C51.6308 41.5356 51.8276 42.9133 52.1228 44.0942C52.2212 44.3894 52.5164 44.6846 52.8117 44.6846C52.9101 44.6846 52.9101 44.6846 53.0085 44.6846C53.4021 44.5862 53.6973 44.1926 53.5989 43.799C53.2053 42.7165 53.0085 41.3388 52.9101 39.8627Z" fill="white"/>
<path d="M51.926 37.6975C52.3197 37.6975 52.7133 37.3039 52.7133 36.9103C52.7133 36.615 52.7133 36.2214 52.7133 35.9262C52.7133 35.5326 52.3197 35.1389 51.926 35.2373C51.5324 35.2373 51.2372 35.631 51.2372 36.0246C51.2372 36.3198 51.2372 36.7134 51.2372 37.0087C51.2372 37.4023 51.5324 37.6975 51.926 37.6975Z" fill="white"/>
<path d="M28.4067 31.3995C28.4067 31.8411 28.7647 32.1991 29.2063 32.1991C29.6479 32.1991 30.0059 31.8411 30.0059 31.3995V30.6C30.0059 30.1584 29.6479 29.8004 29.2063 29.8004C28.7647 29.8004 28.4067 30.1584 28.4067 30.6V31.3995Z" fill="white"/>
<path d="M39.6005 30.6V31.3995C39.6005 31.8411 39.9584 32.1991 40.4 32.1991C40.8416 32.1991 41.1996 31.8411 41.1996 31.3995V30.6C41.1996 30.1584 40.8416 29.8004 40.4 29.8004C39.9584 29.8004 39.6005 30.1584 39.6005 30.6Z" fill="white"/>
<path d="M32.4044 34.5978C32.4044 34.1562 32.0464 33.7982 31.6049 33.7982C31.1633 33.7982 30.8053 34.1562 30.8053 34.5978C30.8053 36.8057 32.5952 38.5956 34.8031 38.5956C37.011 38.5956 38.8009 36.8057 38.8009 34.5978C38.8009 34.1562 38.4429 33.7982 38.0013 33.7982C37.5597 33.7982 37.2017 34.1562 37.2017 34.5978C37.2017 35.9225 36.1278 36.9964 34.8031 36.9964C33.4783 36.9964 32.4044 35.9225 32.4044 34.5978Z" fill="white"/>
</svg>
