<svg width="69" height="69" viewBox="0 0 69 69" fill="none" xmlns="http://www.w3.org/2000/svg">
<circle cx="34.5" cy="34.5" r="34.5" fill="#00B2FF"/>
<path d="M49.3579 28.8105C49.6947 28.8105 50.0316 28.5579 50.0316 28.2211C50.0316 25.779 50.2842 23.5053 50.7895 21.6526C50.8737 21.3158 50.7053 20.979 50.3684 20.8948C50.0316 20.8105 49.6947 20.979 49.6105 21.3158C49.1053 23.2526 48.8526 25.6105 48.8526 28.1369C48.7684 28.5579 49.021 28.8105 49.3579 28.8105Z" fill="white"/>
<path d="M49.5263 32.1789C49.8632 32.1789 50.1158 31.8421 50.1158 31.5052C50.1158 31.2526 50.0316 30.9158 50.0316 30.6631C50.0316 30.3263 49.6947 30.0737 49.3579 30.0737C49.0211 30.0737 48.7684 30.4105 48.7684 30.7474C48.7684 31 48.7684 31.3368 48.8526 31.5895C48.9369 31.9263 49.1895 32.1789 49.5263 32.1789Z" fill="white"/>
<path d="M50.4526 33.9474C50.3684 33.6105 50.0315 33.3579 49.6947 33.4421C49.3578 33.5263 49.1052 33.8632 49.1894 34.2C49.2736 34.7895 49.442 35.4632 49.5263 35.9684C49.6105 36.2211 49.8631 36.4737 50.1157 36.4737C50.1999 36.4737 50.1999 36.4737 50.2842 36.4737C50.621 36.3895 50.8736 36.0526 50.7894 35.7158C50.621 35.1263 50.5368 34.5368 50.4526 33.9474Z" fill="white"/>
<path d="M32.7684 27.8C32.3474 28.2211 31.6737 28.2211 31.2526 27.8C31 27.5474 30.5789 27.5474 30.3263 27.8C30.0737 28.0526 30.0737 28.4737 30.3263 28.7263C30.7474 29.1474 31.3368 29.4 31.9263 29.4C32.5158 29.4 33.1053 29.1474 33.5263 28.7263C33.7789 28.4737 33.7789 28.0526 33.5263 27.8C33.4421 27.5474 33.0211 27.5474 32.7684 27.8Z" fill="white"/>
<path d="M38.6632 27.8C38.2421 28.2211 37.5685 28.2211 37.1474 27.8C36.8948 27.5474 36.4737 27.5474 36.2211 27.8C35.9685 28.0526 35.9685 28.4737 36.2211 28.7263C36.6421 29.1474 37.2316 29.4 37.8211 29.4C38.4106 29.4 39 29.1474 39.4211 28.7263C39.6737 28.4737 39.6737 28.0526 39.4211 27.8C39.3369 27.5474 38.9158 27.5474 38.6632 27.8Z" fill="white"/>
<path d="M15.6737 55H54.4105C54.7474 55 55.0842 54.7474 55.0842 54.3263V49.2737V43.3789V39.1684C55.0842 38.8316 54.8316 38.4947 54.4105 38.4947L54.0737 37.4C54.5789 35.6316 55 32.1789 55 28.1368C55 24.0947 54.4947 20.6421 54.0737 18.8737L54.4947 17.3579C54.6632 16.9368 54.5789 16.4316 54.2421 16.0947C53.8211 15.5895 53.1474 15.3368 52.5579 15.5895L50.9579 16.1789C48.3474 15.7579 43.0421 15 35.0421 15C27.0421 15 21.6526 15.7579 19.0421 16.2632L17.5263 15.6737C16.9368 15.4211 16.1789 15.6737 15.8421 16.1789C15.5053 16.6 15.4211 17.0211 15.5895 17.5263L16.0947 19.0421C15.5053 20.8947 15 24.4316 15 28.3053C15 32.0947 15.5053 35.7158 16.0105 37.5684L15.6737 38.5789C15.2526 38.5789 15 38.8316 15 39.2526V43.4632V49.3579V54.4105C15 54.7474 15.2526 55 15.6737 55ZM17.2737 37.3158C16.8526 35.8842 16.2632 32.2632 16.2632 28.2211C16.2632 24.1789 16.8526 20.5579 17.2737 19.2105C17.2737 19.1263 17.2737 18.9579 17.2737 18.8737L16.7684 17.1895C16.7684 17.1053 16.7684 17.0211 16.7684 17.0211C16.7684 16.9368 16.8526 16.9368 17.0211 16.9368L18.7895 17.5263C18.8737 17.5263 19.0421 17.6105 19.1263 17.5263C21.0632 17.1053 24.7684 16.5158 30.3263 16.3474C27.7158 18.0316 25.9474 20.9789 25.9474 24.4316C25.9474 24.5158 25.9474 24.6842 25.9474 24.7684C23.8421 29.0632 22.5789 33.7789 22.5789 35.7158C22.5789 36.8947 23 37.8211 23.5895 38.5789H17.0211L17.2737 37.7368C17.3579 37.5684 17.3579 37.4842 17.2737 37.3158ZM50.8737 17.5263C50.9579 17.5263 51.1263 17.5263 51.2105 17.5263L53.0632 16.8526C53.1474 16.8526 53.2316 16.8526 53.2316 16.9368C53.2316 17.0211 53.3158 17.0211 53.2316 17.1053L52.7263 18.8737C52.7263 18.9579 52.7263 19.1263 52.7263 19.2105C53.2316 20.7263 53.6526 24.1789 53.6526 28.3053C53.6526 32.4316 53.1474 35.8842 52.7263 37.4C52.7263 37.4842 52.7263 37.6526 52.7263 37.7368L52.9789 38.5789H46.3263C46.9158 37.8211 47.3368 36.8947 47.3368 35.7158C47.3368 33.8632 46.0737 29.4842 43.8842 25.4421C43.8842 25.1053 43.9684 24.7684 43.9684 24.4316C43.9684 20.9789 42.2 18.0316 39.5895 16.3474C45.2316 16.6 48.9368 17.1895 50.8737 17.5263ZM47.6737 49.9474H53.7368V53.7368H16.2632V49.9474H22.4105C22.7474 49.9474 23.0842 49.6947 23.0842 49.2737C23.0842 48.8526 22.7474 48.6842 22.4105 48.6842H16.2632V44.0526H53.7368V48.6842H47.5895C47.2526 48.6842 46.9158 48.9368 46.9158 49.3579C46.9158 49.7789 47.2526 49.9474 47.6737 49.9474ZM16.2632 40.7684V39.9263V39.8421H18.3684H20.0526H22.2421H25.1053H26.6211H29.1474H31.6737H38.4105H40.9368H43.4632H44.9789H48.3474H50.3684H51.5474H53.7368V40.0947V40.8526V42.7895H41.1895H29.2316H16.2632V40.7684ZM23.8421 35.7158C23.8421 33.8632 24.9368 29.8211 26.7053 26.1158C26.7895 26.1158 26.7895 26.1158 26.8737 26.1158C26.7895 26.5368 26.7895 27.0421 26.7895 27.4632C26.7895 30.8316 28.4737 33.7789 31 35.3789V38.5789H25.4421C24.0947 37.7368 23.8421 36.6421 23.8421 35.7158ZM44.5579 38.5789H39V35.2947C41.5263 33.7789 43.2105 30.7474 43.2105 27.3789C43.2105 27.1263 43.2105 26.8737 43.2105 26.5368C45.0632 30.2421 46.1579 34.1158 46.1579 35.6316C46.1579 36.6421 45.9053 37.7368 44.5579 38.5789ZM41.9474 27.4632C41.9474 30.0737 40.7684 32.4316 39 33.8632C38.8316 34.0316 38.5789 34.2 38.3263 34.2842C38.1579 34.4526 37.9053 34.5368 37.6526 34.6211C36.8105 35.0421 35.8842 35.2947 34.8737 35.2947C33.8632 35.2947 32.9368 35.0421 32.0947 34.6211C31.8421 34.5368 31.6737 34.3684 31.4211 34.2842C31.1684 34.1158 31 34.0316 30.7474 33.8632C28.9789 32.4316 27.8 30.1579 27.8 27.4632C27.8 26.8737 27.8842 26.3684 27.9684 25.8632C29.9053 25.4421 32.2632 24.5158 33.3579 22.3263L33.4421 22.4105C35.1263 24.1789 37.2316 26.3684 41.0211 26.3684C41.1895 26.3684 41.4421 26.3684 41.6105 26.3684C41.9474 26.7053 41.9474 27.0421 41.9474 27.4632ZM32.2632 35.9684C33.1053 36.3053 34.0316 36.4737 35.0421 36.4737C35.9684 36.4737 36.8947 36.3053 37.8211 35.9684V38.5789H32.3474V35.9684H32.2632ZM42.7053 23.0842C42.7895 23.5053 42.7895 23.9263 42.7895 24.3474V24.4316V24.5158C42.7895 24.6842 42.7895 24.7684 42.7895 24.9368C42.6211 24.9368 42.5368 24.9368 42.3684 25.0211H42.2842C42.0316 25.0211 41.8632 25.0211 41.6105 25.1053C41.5263 25.1053 41.3579 25.1053 41.2737 25.1053C37.9895 25.1053 36.3053 23.2526 34.5368 21.5684C34.2842 21.3158 33.9474 20.9789 33.6947 20.7263C33.6105 20.6421 33.4421 20.5579 33.2737 20.5579C33.1895 20.5579 33.1895 20.5579 33.1053 20.5579C32.8526 20.6421 32.6842 20.8105 32.6842 20.9789C32.1789 23 30.3263 23.9263 28.5579 24.4316C28.3053 24.5158 28.0526 24.6 27.8 24.6C27.6316 24.6 27.4632 24.6842 27.2947 24.6842C27.2105 24.6842 27.2105 24.6842 27.1263 24.6842C27.1263 24.6 27.1263 24.6 27.1263 24.5158C27.1263 24.4316 27.1263 24.4316 27.1263 24.3474C27.1263 24.0947 27.1263 23.8421 27.1263 23.5895C27.2105 22.9158 27.2947 22.3263 27.5474 21.7368C28.5579 18.5368 31.5053 16.1789 34.9579 16.1789C38.8316 16.2632 42.1158 19.2105 42.7053 23.0842Z" fill="white"/>
<path d="M19.8843 22.6632H21.1474L19.379 25.0211C19.2106 25.1895 19.2106 25.4421 19.2948 25.6948C19.379 25.9474 19.6316 26.0316 19.8843 26.0316H22.4106C22.7474 26.0316 23.0843 25.779 23.0843 25.3579C23.0843 25.0211 22.8316 24.6842 22.4106 24.6842H21.1474L22.9158 22.3263C23 22.2421 23 21.9895 22.9158 21.7369C22.8316 21.5684 22.579 21.4 22.4106 21.4H19.8843C19.4632 21.4 19.2106 21.6527 19.2106 22.0737C19.2106 22.4106 19.4632 22.6632 19.8843 22.6632Z" fill="white"/>
<path d="M25.779 48.6842H24.9369C24.6 48.6842 24.2632 48.9368 24.2632 49.3579C24.2632 49.7789 24.5158 50.0316 24.9369 50.0316H25.779C26.1158 50.0316 26.4527 49.7789 26.4527 49.3579C26.4527 48.9368 26.1158 48.6842 25.779 48.6842Z" fill="white"/>
<path d="M30.8316 48.6842H28.3053C27.9684 48.6842 27.6316 48.9368 27.6316 49.3579C27.6316 49.7789 27.8842 50.0316 28.3053 50.0316H30.8316C31.1684 50.0316 31.5053 49.7789 31.5053 49.3579C31.5053 48.9368 31.1684 48.6842 30.8316 48.6842Z" fill="white"/>
<path d="M45.1474 48.6842H44.3053C43.9684 48.6842 43.6316 48.9368 43.6316 49.3579C43.6316 49.7789 43.8842 50.0316 44.3053 50.0316H45.1474C45.4842 50.0316 45.8211 49.7789 45.8211 49.3579C45.8211 48.9368 45.4842 48.6842 45.1474 48.6842Z" fill="white"/>
</svg>
