<svg width="69" height="69" viewBox="0 0 69 69" fill="none" xmlns="http://www.w3.org/2000/svg">
<circle cx="34.5" cy="34.5" r="34.5" fill="#00B2FF"/>
<path d="M31.1053 17.8224C29.7374 17.8224 28.6246 18.9352 28.6246 20.303C28.6246 21.6709 29.7374 22.7836 31.1053 22.7836C32.4731 22.7836 33.5859 21.6708 33.5859 20.303C33.586 18.9352 32.4731 17.8224 31.1053 17.8224ZM31.1053 21.6118C30.3836 21.6118 29.7965 21.0247 29.7965 20.303C29.7965 19.5814 30.3836 18.9943 31.1053 18.9943C31.8269 18.9943 32.414 19.5814 32.414 20.303C32.414 21.0247 31.827 21.6118 31.1053 21.6118Z" fill="white"/>
<path d="M24.3948 17.8224C23.027 17.8224 21.9142 18.9352 21.9142 20.303C21.9142 21.6709 23.027 22.7836 24.3948 22.7836C25.7626 22.7836 26.8754 21.6708 26.8754 20.303C26.8754 18.9352 25.7626 17.8224 24.3948 17.8224ZM24.3948 21.6118C23.6732 21.6118 23.0861 21.0247 23.0861 20.303C23.0861 19.5814 23.6732 18.9943 24.3948 18.9943C25.1165 18.9943 25.7036 19.5814 25.7036 20.303C25.7036 21.0247 25.1165 21.6118 24.3948 21.6118Z" fill="white"/>
<path d="M45.9078 17.8224H39.1682C38.4316 17.8224 37.8324 18.4216 37.8324 19.1582V21.4479C37.8324 22.1845 38.4316 22.7837 39.1682 22.7837H45.9078C46.6444 22.7837 47.2436 22.1845 47.2436 21.4479V19.1582C47.2436 18.4216 46.6444 17.8224 45.9078 17.8224ZM46.0717 21.4479C46.0717 21.5383 45.9982 21.6118 45.9078 21.6118H39.1682C39.0778 21.6118 39.0043 21.5383 39.0043 21.4479V19.1582C39.0043 19.0678 39.0778 18.9943 39.1682 18.9943H45.9078C45.9982 18.9943 46.0717 19.0678 46.0717 19.1582V21.4479Z" fill="white"/>
<path d="M35.0525 27.0029C32.6492 27.0029 30.3751 27.7779 28.4763 29.244C28.2201 29.4418 28.1729 29.8097 28.3706 30.0659C28.5684 30.3221 28.9364 30.3693 29.1925 30.1716C30.8843 28.8653 32.9107 28.1748 35.0525 28.1748C40.345 28.1748 44.6507 32.4805 44.6507 37.7729C44.6507 43.0654 40.345 47.3711 35.0525 47.3711C29.7601 47.3711 25.4544 43.0653 25.4544 37.7729C25.4544 35.57 26.2197 33.4181 27.6093 31.7133C27.8138 31.4625 27.7762 31.0934 27.5254 30.8889C27.2745 30.6845 26.9054 30.7221 26.701 30.9729C25.1415 32.8861 24.2825 35.3011 24.2825 37.7729C24.2825 43.7115 29.1139 48.5429 35.0525 48.5429C40.9911 48.5429 45.8225 43.7115 45.8225 37.7729C45.8225 31.8343 40.9911 27.0029 35.0525 27.0029Z" fill="white"/>
<path d="M52.1052 50.4514V19.5033C52.1052 17.0202 50.0853 15 47.6027 15H22.5025C20.0198 15 18 17.0202 18 19.5033V50.4976C18 52.9802 20.0198 55 22.5024 55H47.6026C50.063 55 52.0676 53.0159 52.1034 50.5639C52.1059 50.5421 52.1063 50.4667 52.1052 50.4514ZM50.9333 49.9116H46.0825C45.7589 49.9116 45.4966 50.1739 45.4966 50.4975C45.4966 50.8211 45.7589 51.0834 46.0825 51.0834H50.8817C50.604 52.6416 49.2393 53.8281 47.6027 53.8281H22.5025C20.8659 53.8281 19.5012 52.6416 19.2235 51.0835H46.6583C46.9818 51.0835 47.2442 50.8212 47.2442 50.4976C47.2442 50.174 46.9818 49.9116 46.6583 49.9116H19.172V25.6059H50.9333V49.9116ZM50.9333 24.4341H19.1719V19.5033C19.1719 17.6663 20.666 16.1719 22.5025 16.1719H47.6027C49.4391 16.1719 50.9333 17.6663 50.9333 19.5033V24.4341Z" fill="white"/>
<path d="M35.0525 29.7267C30.6157 29.7267 27.0061 33.3363 27.0061 37.773C27.0062 38.1634 27.0342 38.554 27.0896 38.9336C27.0896 38.934 27.0898 38.9342 27.0898 38.9345C27.3638 40.8297 28.313 42.5706 29.763 43.8364C31.2276 45.1151 33.1061 45.8193 35.0524 45.8193C36.9988 45.8193 38.8773 45.1151 40.342 43.8364C41.7918 42.5707 42.741 40.83 43.0151 38.9349C43.0152 38.9345 43.0152 38.9341 43.0153 38.9337C43.0707 38.5543 43.0988 38.1638 43.0988 37.773C43.0988 33.3362 39.4892 29.7267 35.0525 29.7267ZM39.5713 42.9536C38.3201 44.0459 36.7153 44.6475 35.0524 44.6475C33.3895 44.6475 31.7848 44.0459 30.5337 42.9536C29.3857 41.9515 28.605 40.6015 28.3104 39.1215L28.6717 38.8756C29.2754 38.4648 30.0924 38.4645 30.6966 38.8756C31.6941 39.5543 33.0422 39.5545 34.0399 38.8756C34.6427 38.4657 35.462 38.4654 36.0649 38.8756C37.0627 39.5546 38.4104 39.5544 39.4085 38.8754C40.0137 38.4638 40.8283 38.4636 41.4331 38.8755L41.7944 39.1215C41.4999 40.6015 40.7193 41.9515 39.5713 42.9536ZM41.9269 37.8016C41.9227 37.7992 41.9184 37.7971 41.9142 37.7947C41.5996 37.6117 41.2559 37.494 40.8981 37.4311C40.4504 37.3523 39.9789 37.3889 39.5452 37.5228C39.2625 37.61 38.9934 37.7401 38.749 37.9067C38.1447 38.3179 37.3276 38.3172 36.7241 37.9067C36.2287 37.5697 35.6506 37.3914 35.0524 37.3914C34.458 37.3914 33.8721 37.5724 33.3807 37.9066C32.7754 38.3183 31.9608 38.3181 31.3558 37.9066C30.8604 37.5696 30.2824 37.3914 29.6842 37.3914C29.165 37.3914 28.6389 37.5314 28.1907 37.7947C28.1866 37.7972 28.1822 37.7992 28.1781 37.8016C28.178 37.792 28.178 37.7825 28.178 37.7729C28.1781 33.9824 31.2619 30.8985 35.0525 30.8985C38.8431 30.8985 41.927 33.9824 41.927 37.7729C41.927 37.7825 41.927 37.7921 41.9269 37.8016Z" fill="white"/>
</svg>
