<svg width="69" height="69" viewBox="0 0 69 69" fill="none" xmlns="http://www.w3.org/2000/svg">
<circle cx="34.5" cy="34.5" r="34.5" fill="#00B2FF"/>
<path d="M37.1163 23.0542C36.2028 21.5786 35.2761 20.3616 35.2668 20.3495L35 20L34.7331 20.3495C34.7239 20.3616 33.7971 21.5786 32.8837 23.0543C31.6337 25.0733 31 26.602 31 27.5981C31 30.0253 32.7944 32 35 32C37.2056 32 39 30.0253 39 27.5981C39 26.602 38.3662 25.0733 37.1163 23.0542Z" fill="white"/>
<path d="M43.0582 20.5271C42.6014 19.7893 42.138 19.1808 42.1334 19.1747L42 19L41.8666 19.1748C41.862 19.1808 41.3986 19.7893 40.9418 20.5271C40.3169 21.5366 40 22.301 40 22.799C40 24.0126 40.8972 25 42 25C43.1028 25 44 24.0126 44 22.799C44 22.301 43.6831 21.5366 43.0582 20.5271Z" fill="white"/>
<path d="M19.7999 31L34.1999 47L50.1999 31" stroke="white" stroke-width="1.5" stroke-linecap="round"/>
<path d="M15 47.8H55" stroke="white" stroke-width="1.5" stroke-linecap="round"/>
<path d="M52.7028 28.2342L50.6523 35.8866L45.0504 30.2847L52.7028 28.2342Z" fill="white"/>
<circle cx="24.6" cy="23" r="1.6" fill="white"/>
<circle cx="38.6" cy="35.6" r="1.6" fill="white"/>
<circle cx="34" cy="17" r="1" fill="white"/>
<circle cx="29" cy="34" r="1" fill="white"/>
</svg>
