<svg width="32" height="21" viewBox="0 0 32 21" fill="none" xmlns="http://www.w3.org/2000/svg">
<path d="M2.21287 11.1956H7.48912C7.88287 11.1956 8.14669 10.9305 8.14669 10.5328C8.14669 10.1351 7.88419 9.87 7.48912 9.87H2.21287C1.81781 9.87 1.554 10.1351 1.554 10.5328C1.554 10.9305 1.8165 11.1956 2.21287 11.1956ZM0.658875 6.16087H7.48912C7.88287 6.16087 8.14669 5.89575 8.14669 5.49806C8.14669 5.10038 7.88419 4.83656 7.48912 4.83656H0.658875C0.2625 4.83656 0 5.10038 0 5.49806C0 5.89575 0.2625 6.16087 0.658875 6.16087ZM3.93356 16.1647H7.48912C7.88287 16.1647 8.14669 15.8996 8.14669 15.5019C8.14669 15.1042 7.88419 14.8391 7.48912 14.8391H3.93225C3.5385 14.8391 3.27469 15.1042 3.27469 15.5019C3.27469 15.8996 3.53719 16.1647 3.93356 16.1647ZM31.5 4.57144C31.5 4.14225 31.5 4.14225 31.1049 3.97425L21.2284 0H20.8333L10.9567 3.97425C10.6522 4.07663 10.4304 4.30894 10.4304 4.5045V16.4286C10.4304 16.6937 10.5617 16.9588 10.8242 17.0257L20.7034 21H21.0971L30.975 17.0257C31.2375 16.8932 31.3687 16.6937 31.3687 16.4286L31.5 4.57144ZM20.9646 1.32431L29.0627 4.57144L26.0347 5.76319L17.9366 2.51737L20.9646 1.32431ZM20.307 19.4762L11.7469 16.0309V5.565L20.307 9.009V19.4762ZM20.9646 7.81725L12.8664 4.57144L16.2238 3.24581L24.3219 6.49163L20.9646 7.81725ZM30.1836 16.0309L21.6234 19.4762V9.009L30.1836 5.565V16.0309Z" fill="#CB11AB"/>
</svg>
