<svg width="100" height="100" viewBox="0 0 100 100" fill="none" xmlns="http://www.w3.org/2000/svg">
<circle cx="50" cy="50" r="50" fill="#5CBCEB"/>
<path d="M77.6405 23.8886C77.0613 23.3108 76.3646 22.8643 75.5977 22.5794C74.8308 22.2945 74.0115 22.1779 73.1956 22.2374C63.6686 22.9507 54.7187 27.0769 47.9895 33.8584L47.1052 34.7583H35.5703C35.4143 34.7585 35.26 34.7897 35.1162 34.8501C34.9724 34.9106 34.8422 34.9991 34.733 35.1105L22.5016 47.6314C22.3399 47.7964 22.2304 48.0055 22.187 48.2325C22.1436 48.4594 22.1681 48.6942 22.2575 48.9072C22.3469 49.1203 22.4972 49.3023 22.6896 49.4303C22.882 49.5583 23.1079 49.6267 23.339 49.6269H34.5921L37.605 52.6397C33.0338 52.8075 28.6999 54.7169 25.491 57.9768C15.9047 67.6805 23.4564 78.7536 23.5346 78.8632C23.6776 79.0681 23.8823 79.222 24.1189 79.3025C24.3554 79.383 24.6115 79.386 24.8498 79.3109C25.0882 79.2358 25.2963 79.0866 25.444 78.8851C25.5917 78.6835 25.6712 78.4401 25.671 78.1902C25.671 74.4261 29.2003 70.8576 32.9253 70.8576C34.7137 70.868 36.425 71.5873 37.6837 72.8578C38.9424 74.1282 39.6459 75.8461 39.6396 77.6346C39.6432 77.8467 39.7043 78.054 39.8164 78.2342C39.9284 78.4144 40.0872 78.5609 40.2759 78.658C40.4646 78.7552 40.6761 78.7993 40.8878 78.7859C41.0996 78.7724 41.3038 78.7017 41.4786 78.5814C43.7345 76.8307 45.5632 74.5904 46.8266 72.0296C48.0901 69.4688 48.7553 66.6544 48.772 63.799L51.9022 66.9292V78.1902C51.9025 78.4222 51.9714 78.6489 52.1004 78.8418C52.2294 79.0346 52.4126 79.1849 52.627 79.2737C52.8414 79.3624 53.0772 79.3857 53.3048 79.3405C53.5324 79.2953 53.7414 79.1836 53.9056 79.0197L66.4265 66.4988C66.6429 66.2827 66.7664 65.9907 66.7708 65.6849V54.424L67.6707 53.5397C74.4522 46.8104 78.5785 37.8605 79.2917 28.3336C79.3513 27.5176 79.2347 26.6983 78.9498 25.9314C78.6649 25.1645 78.2184 24.4678 77.6405 23.8886ZM36.0633 37.106H44.7575L34.5843 47.2792H26.1249L36.0633 37.106ZM41.6821 75.3182C41.1773 73.3758 40.0437 71.6553 38.4581 70.425C36.8726 69.1948 34.9243 68.5242 32.9174 68.5178C29.0673 68.5178 25.4832 71.2254 24.012 74.7782C22.6425 71.3585 21.5391 65.3093 27.1422 59.6514C28.8047 57.9607 30.8316 56.6722 33.068 55.8842C35.3044 55.0962 37.6914 54.8296 40.0465 55.1048L46.307 61.3652C46.6238 63.8886 46.373 66.4508 45.5728 68.8649C44.7727 71.2789 43.4434 73.4837 41.6821 75.3182ZM64.4231 65.1998L54.2499 75.373V66.9448L64.4231 56.7716V65.1998ZM65.9882 51.8963L64.7675 53.1171L64.7283 53.1562L53.0761 64.7928L36.7363 48.4531L48.4042 36.7852L48.4434 36.746L49.6641 35.5409C55.987 29.1565 64.4003 25.2667 73.3599 24.5851C73.8414 24.5419 74.3265 24.605 74.781 24.7699C75.2354 24.9347 75.6481 25.1973 75.99 25.5392C76.3318 25.881 76.5944 26.2937 76.7593 26.7482C76.9241 27.2026 76.9872 27.6877 76.944 28.1692C76.2625 37.1288 72.3726 45.5421 65.9882 51.865V51.8963Z" fill="white"/>
<path d="M61.6814 33.1894C59.9615 33.1903 58.2951 33.7875 56.9661 34.8792C55.6372 35.971 54.7279 37.4898 54.3931 39.1768C54.0584 40.8638 54.319 42.6147 55.1305 44.1312C55.9419 45.6476 57.2541 46.8358 58.8434 47.4933C60.4326 48.1508 62.2007 48.2368 63.8464 47.7369C65.492 47.2369 66.9134 46.1818 67.8683 44.7514C68.8233 43.3209 69.2527 41.6036 69.0835 39.8921C68.9142 38.1805 68.1568 36.5806 66.9401 35.3649C66.251 34.6726 65.4313 34.1238 64.5287 33.7504C63.626 33.377 62.6582 33.1863 61.6814 33.1894ZM65.2811 44.2234C64.4497 45.0562 63.3553 45.5749 62.1844 45.6913C61.0134 45.8076 59.8383 45.5144 58.8593 44.8615C57.8803 44.2087 57.1579 43.2366 56.8152 42.1108C56.4725 40.9851 56.5308 39.7754 56.98 38.6877C57.4293 37.6001 58.2417 36.7019 59.2789 36.1461C60.3161 35.5903 61.5139 35.4113 62.6683 35.6397C63.8227 35.868 64.8622 36.4895 65.6097 37.3983C66.3573 38.307 66.7666 39.4469 66.768 40.6236C66.7705 41.2922 66.6404 41.9546 66.3851 42.5725C66.1299 43.1904 65.7547 43.7515 65.2811 44.2234Z" fill="white"/>
</svg>
