<svg width="100" height="100" viewBox="0 0 100 100" fill="none" xmlns="http://www.w3.org/2000/svg">
<circle cx="50" cy="50" r="50" fill="#5CBCEB"/>
<path fill-rule="evenodd" clip-rule="evenodd" d="M65.7486 15.0014C66.318 15.3301 66.5131 16.0582 66.1844 16.6276L64.4137 19.6945C64.0849 20.2639 63.3568 20.459 62.7874 20.1303C62.218 19.8015 62.023 19.0734 62.3517 18.504L64.1224 15.4371C64.4511 14.8677 65.1792 14.6726 65.7486 15.0014Z" fill="white"/>
<path fill-rule="evenodd" clip-rule="evenodd" d="M32.7586 15.0014C32.1893 15.3301 31.9942 16.0582 32.3229 16.6276L34.0936 19.6945C34.4223 20.2639 35.1504 20.459 35.7198 20.1303C36.2892 19.8015 36.4843 19.0734 36.1556 18.504L34.3849 15.4371C34.0561 14.8677 33.328 14.6726 32.7586 15.0014Z" fill="white"/>
<path fill-rule="evenodd" clip-rule="evenodd" d="M49.2901 7.93652C49.9476 7.93652 50.4806 8.46952 50.4806 9.127V16.5639C50.4806 17.2214 49.9476 17.7544 49.2901 17.7544C48.6326 17.7544 48.0996 17.2214 48.0996 16.5639V9.127C48.0996 8.46952 48.6326 7.93652 49.2901 7.93652Z" fill="white"/>
<path fill-rule="evenodd" clip-rule="evenodd" d="M16.2217 21.3883C16.6866 20.9234 17.4404 20.9234 17.9053 21.3883L23.164 26.647C23.6289 27.1119 23.6289 27.8657 23.164 28.3306C22.6991 28.7955 21.9453 28.7955 21.4804 28.3306L16.2217 23.0719C15.7568 22.607 15.7568 21.8532 16.2217 21.3883Z" fill="white"/>
<path fill-rule="evenodd" clip-rule="evenodd" d="M81.9511 21.3883C81.4862 20.9234 80.7324 20.9234 80.2675 21.3883L75.0088 26.647C74.5439 27.1119 74.5439 27.8657 75.0088 28.3306C75.4737 28.7955 76.2275 28.7955 76.6924 28.3306L81.9511 23.0719C82.416 22.607 82.416 21.8532 81.9511 21.3883Z" fill="white"/>
<path fill-rule="evenodd" clip-rule="evenodd" d="M79.7956 61.4398C82.4104 63.7539 84.4779 67.1098 84.4779 71.8349C84.4779 78.2002 82.0566 82.1111 79.2206 84.4388C76.4385 86.7222 73.3624 87.3996 72.0832 87.5382C71.086 87.6462 67.7386 87.6625 64.2338 87.6499C60.6788 87.6372 56.8308 87.5931 54.7405 87.5663C54.5402 87.5637 54.3761 87.725 54.3761 87.9268C54.3761 90.3675 51.4252 91.5898 49.6993 89.864L42.4879 82.6526C41.4032 81.5678 41.4032 79.809 42.4879 78.7242L49.6479 71.5642C51.3927 69.8194 54.3761 71.0552 54.3761 73.5227C54.3761 73.732 54.5373 73.8951 54.7352 73.904C56.7268 73.9935 60.3959 74.1405 63.8297 74.1828C65.5479 74.2039 67.1943 74.1986 68.5368 74.148C69.938 74.0952 70.8507 73.9959 71.2109 73.8847C71.6397 73.7523 72.2498 73.3886 72.8251 72.8025C73.3915 72.2255 73.8518 71.506 74.0655 70.7354C74.2736 69.9852 74.256 69.167 73.8494 68.3079C73.4348 67.4319 72.5724 66.4246 70.9343 65.408L72.1899 63.385C74.0973 64.5688 75.3382 65.8879 76.0015 67.2893C76.6727 68.7075 76.7077 70.1177 76.3599 71.3717C76.0177 72.6055 75.3137 73.6662 74.5242 74.4704C73.7438 75.2655 72.8064 75.8839 71.9133 76.1597C71.2018 76.3793 69.9676 76.4767 68.6265 76.5273C67.2267 76.5801 65.5354 76.5849 63.8004 76.5635C60.3279 76.5208 56.6286 76.3725 54.6283 76.2826C53.1472 76.216 51.9952 74.9943 51.9952 73.5227C51.9952 73.1764 51.5764 73.0029 51.3315 73.2478L44.1715 80.4078C44.0166 80.5628 44.0166 80.814 44.1715 80.969L51.3829 88.1804C51.6088 88.4063 51.9952 88.2463 51.9952 87.9268C51.9952 86.3995 53.2426 85.1659 54.7711 85.1855C56.859 85.2123 60.6984 85.2563 64.2423 85.269C67.8363 85.2818 70.9995 85.2607 71.8268 85.1711C72.7986 85.0658 75.3887 84.5036 77.7101 82.5984C79.9775 80.7373 82.0969 77.5104 82.0969 71.8349C82.0969 67.9022 80.4109 65.1637 78.2176 63.2227C75.992 61.2531 73.2407 60.1087 71.2113 59.483L71.9129 57.2077C74.1018 57.8827 77.2131 59.1543 79.7956 61.4398Z" fill="white"/>
<path fill-rule="evenodd" clip-rule="evenodd" d="M32.5175 65.8144C32.5175 65.1569 33.0505 64.624 33.708 64.624H40.4367C41.0941 64.624 41.6271 65.1569 41.6271 65.8144C41.6271 66.4719 41.0941 67.0049 40.4367 67.0049H33.708C33.0505 67.0049 32.5175 66.4719 32.5175 65.8144ZM32.5175 71.4806C32.5175 70.8232 33.0505 70.2902 33.708 70.2902H43.2698C43.9272 70.2902 44.4602 70.8232 44.4602 71.4806C44.4602 72.1381 43.9272 72.6711 43.2698 72.6711H33.708C33.0505 72.6711 32.5175 72.1381 32.5175 71.4806Z" fill="white"/>
<path fill-rule="evenodd" clip-rule="evenodd" d="M25.7889 38.0082C25.7889 36.4741 27.0326 35.2305 28.5667 35.2305H70.0135C71.5477 35.2305 72.7913 36.4741 72.7913 38.0082V75.022H70.4104V38.0082C70.4104 37.7891 70.2327 37.6114 70.0135 37.6114H28.5667C28.3475 37.6114 28.1699 37.7891 28.1699 38.0082V79.4551C28.1699 79.6742 28.3475 79.8519 28.5667 79.8519H42.5615V82.2329H28.5667C27.0326 82.2329 25.7889 80.9892 25.7889 79.4551V38.0082Z" fill="white"/>
<path fill-rule="evenodd" clip-rule="evenodd" d="M45.6507 38.8019V44.7979L48.0326 43.7393C49.0586 43.2833 50.2299 43.2833 51.2559 43.7393L53.6378 44.7979V38.8019H45.6507ZM44.8571 36.4209C43.9804 36.4209 43.2698 37.1316 43.2698 38.0082V46.0192C43.2698 47.1678 44.4521 47.9362 45.5017 47.4697L48.9996 45.9151C49.41 45.7326 49.8785 45.7326 50.2889 45.9151L53.7868 47.4697C54.8364 47.9362 56.0187 47.1678 56.0187 46.0192V38.0082C56.0187 37.1316 55.3081 36.4209 54.4314 36.4209H44.8571Z" fill="white"/>
</svg>
