<svg width="549" height="546" viewBox="0 0 549 546" fill="none" xmlns="http://www.w3.org/2000/svg">
<mask id="mask0" mask-type="alpha" maskUnits="userSpaceOnUse" x="0" y="0" width="549" height="546">
<rect x="0.568359" y="0.5" width="548" height="545" fill="#E2F5FF"/>
<rect x="0.568359" y="0.5" width="548" height="545" fill="url(#paint0_linear)"/>
</mask>
<g mask="url(#mask0)">
<g opacity="0.56">
<path d="M465.896 752.46C459.213 752.46 452.53 750.404 446.875 746.291L386.726 704.135C379.528 698.994 374.901 691.797 373.359 683.057C371.817 674.317 373.873 665.578 379.014 658.38L460.241 543.223C466.411 534.483 476.692 529.342 487.489 529.342C494.172 529.342 500.855 531.399 506.51 535.511L566.659 577.667C573.857 582.808 578.484 590.006 580.026 598.745C581.568 607.485 579.512 616.225 574.371 623.422L493.144 738.58C486.974 747.319 476.692 752.46 465.896 752.46ZM486.974 529.342C476.178 529.342 466.411 534.483 460.241 543.223L379.014 658.895C373.873 666.092 372.331 674.832 373.873 683.057C375.415 691.797 380.042 698.994 387.24 704.135L447.389 746.291C453.044 749.89 459.213 751.946 465.896 751.946C476.692 751.946 486.46 746.805 492.629 738.065L573.857 622.394C578.998 615.196 580.54 606.457 578.998 598.231C577.455 589.492 572.829 582.294 565.631 577.153L505.482 534.997C500.341 531.399 493.658 529.342 486.974 529.342Z" fill="white" stroke="white" stroke-width="1.5"/>
<path d="M464.354 666.605C454.072 666.605 444.304 661.979 438.135 653.753L393.923 595.146C383.127 580.751 385.697 560.187 400.606 548.877L513.193 464.051C518.848 459.939 526.046 457.368 533.243 457.368C543.525 457.368 553.293 461.995 559.462 470.221L603.674 528.828C608.815 536.025 611.386 544.765 609.844 552.99C608.815 561.73 604.188 569.441 596.991 574.582L484.404 660.436C478.749 664.549 471.552 666.605 464.354 666.605ZM533.243 457.882C526.046 457.882 519.363 459.939 513.707 464.565L401.12 549.391C386.726 560.187 384.155 580.751 394.951 594.632L439.163 653.239C445.333 661.464 454.586 666.091 465.382 666.091C472.58 666.091 479.263 664.035 484.918 659.408L597.505 574.582C604.188 569.441 608.815 561.73 610.358 552.99C611.386 544.25 609.329 536.025 604.188 528.828L559.976 470.221C552.779 462.509 543.525 457.882 533.243 457.882Z" fill="white" stroke="white" stroke-width="1.5"/>
<path d="M465.382 732.411C450.988 732.411 438.135 723.157 434.022 709.277L392.381 574.069C387.24 556.59 397.007 538.082 413.973 532.941L483.89 511.349C486.974 510.321 490.059 509.807 493.658 509.807C508.052 509.807 520.905 519.061 525.017 532.941L566.659 668.149C569.23 676.374 568.202 685.628 564.089 693.34C559.976 701.051 553.293 706.706 544.553 709.277L474.636 730.869C472.066 731.897 468.467 732.411 465.382 732.411ZM494.172 510.321C491.087 510.321 487.488 510.835 484.404 511.864L414.487 533.456C397.522 538.597 387.754 557.104 392.895 574.069L434.536 709.277C438.649 723.157 450.988 732.411 465.382 732.411C468.467 732.411 472.065 731.897 475.15 730.869L545.067 709.277C553.293 706.706 559.976 701.051 564.089 693.34C568.202 685.628 569.23 676.888 566.659 668.663L525.017 533.456C520.905 519.575 508.566 510.321 494.172 510.321Z" fill="white" stroke="white" stroke-width="1.5"/>
<path d="M489.545 584.865C475.664 584.865 462.812 576.125 458.185 562.759L434.536 493.356C428.367 476.39 437.621 457.369 455.1 451.714L588.765 405.445C592.364 404.417 595.963 403.389 599.561 403.389C613.442 403.389 626.294 412.128 630.921 425.495L654.57 494.898C657.654 503.123 657.14 512.377 653.027 520.089C649.429 527.8 642.231 533.969 634.006 536.54L500.341 582.808C496.742 584.351 493.143 584.865 489.545 584.865ZM599.047 403.903C595.449 403.903 591.85 404.417 588.251 405.445L454.586 451.714C446.361 454.798 439.677 460.453 436.079 468.165C432.48 475.876 431.966 484.616 434.536 492.841L458.185 562.244C462.812 575.611 475.15 584.351 489.031 584.351C492.629 584.351 496.228 583.837 499.827 582.808L633.492 536.54C641.717 533.455 648.4 527.8 651.999 520.089C655.598 512.377 656.112 503.637 653.541 495.412L629.893 426.009C625.266 412.642 612.928 403.903 599.047 403.903Z" fill="white" stroke="white" stroke-width="1.5"/>
<path d="M543.525 648.613H543.011L470.009 647.585C452.016 647.071 437.107 632.162 437.621 614.169L440.192 472.792C440.192 464.053 443.79 455.827 449.96 449.658C456.129 443.489 464.354 440.404 473.094 440.404H473.608L546.61 441.432C555.349 441.432 563.575 445.031 569.744 451.714C575.913 457.884 578.998 466.109 578.998 475.363L576.427 616.739C576.427 625.479 572.829 633.705 566.66 639.874C560.49 645.015 552.265 648.613 543.525 648.613ZM472.58 440.404C455.101 440.404 440.192 454.799 440.192 472.278L437.621 613.655C437.107 631.648 451.502 646.557 469.495 646.557L542.497 647.585H543.011C560.49 647.585 575.399 633.191 575.399 615.711L577.97 474.335C577.97 465.595 574.885 457.369 568.716 451.2C562.547 445.031 554.835 441.432 546.096 441.432L473.094 440.404H472.58Z" fill="white" stroke="white" stroke-width="1.5"/>
<path d="M538.898 514.433C530.159 514.433 521.933 510.834 515.764 505.179C509.595 499.01 505.996 490.785 505.996 482.045L504.454 409.043C504.454 400.304 507.538 392.078 513.708 385.395C519.877 379.226 528.102 375.627 536.842 375.113L678.218 372.542C686.958 372.542 695.698 375.627 701.867 381.796C708.036 387.965 711.635 396.191 711.635 404.931L713.177 477.932C713.177 486.672 710.092 494.897 703.923 501.581C697.754 507.75 689.529 511.349 680.789 511.863L539.412 514.433C538.898 514.433 538.898 514.433 538.898 514.433ZM678.733 373.057H678.218L536.842 375.627C528.102 375.627 519.877 379.226 514.222 385.395C508.053 391.564 504.968 399.79 504.968 408.529L506.51 481.531C507.024 499.01 521.419 513.405 538.898 513.405H539.412L680.789 510.834C689.529 510.834 697.754 507.236 703.409 501.067C709.578 494.897 712.663 486.672 712.663 477.932L711.121 404.416C711.121 387.451 696.212 373.057 678.733 373.057Z" fill="white" stroke="white" stroke-width="1.5"/>
<path d="M570.258 591.55C566.659 591.55 563.061 591.036 559.462 590.007L490.059 566.359C473.094 560.704 463.84 541.682 469.495 524.717L515.25 391.052C519.877 377.685 532.215 368.946 546.61 368.946C550.208 368.946 553.807 369.46 557.406 370.488L626.809 394.137C643.774 399.792 653.028 418.813 647.372 435.778L601.618 569.443C596.991 582.81 584.139 591.55 570.258 591.55ZM546.61 368.946C532.729 368.946 520.391 377.685 515.764 391.052L470.009 524.717C464.354 541.682 473.094 560.19 490.059 565.845L559.462 589.493C563.061 590.521 566.659 591.036 570.258 591.036C584.139 591.036 596.477 582.296 601.104 568.929L646.858 435.264C652.513 418.299 643.774 399.792 626.809 394.137L557.406 370.488C553.807 369.46 550.208 368.946 546.61 368.946Z" fill="white" stroke="white" stroke-width="1.5"/>
<path d="M613.442 545.795C606.245 545.795 599.561 543.738 593.906 539.111L535.299 494.899C528.102 489.758 523.475 482.047 522.447 473.307C521.419 464.567 523.475 455.828 528.616 449.145L613.442 336.043C619.611 327.818 629.379 322.677 639.661 322.677C646.858 322.677 653.542 324.733 659.197 329.36L717.804 373.572C732.198 384.368 735.283 404.932 724.487 419.841L639.661 532.942C633.492 541.168 623.724 545.795 613.442 545.795ZM639.661 323.705C629.379 323.705 620.125 328.332 613.442 336.557L528.616 449.659C523.475 456.342 521.419 465.082 522.447 473.821C523.475 482.561 528.102 490.272 535.299 495.413L593.906 539.626C599.561 543.738 606.245 546.309 613.442 546.309C623.724 546.309 632.978 541.682 639.661 533.456L724.487 420.355C735.283 405.96 732.198 385.397 718.318 374.601L659.197 329.874C653.542 325.761 646.858 323.705 639.661 323.705Z" fill="white" stroke="white" stroke-width="1.5"/>
<path d="M217.588 916.972C207.82 916.972 198.052 914.916 188.798 910.289L57.1898 846.027C24.8017 830.09 10.9211 791.019 26.8581 758.116L150.755 504.153C156.41 492.843 164.636 483.589 175.432 476.906C185.714 470.736 197.538 467.138 209.876 467.138C219.644 467.138 229.412 469.194 238.666 473.821L370.275 538.083C386.212 545.794 398.036 559.161 403.691 575.612C409.346 592.063 408.318 610.057 400.606 625.994L276.709 879.957C271.054 891.267 262.828 900.521 252.032 907.204C241.75 913.374 229.926 916.972 217.588 916.972ZM209.876 467.652C184.686 467.652 162.065 481.532 151.269 504.153L27.3721 758.63C11.4352 791.019 25.3158 830.09 57.1898 846.027L188.798 910.289C197.538 914.916 207.306 916.972 217.074 916.972C242.265 916.972 264.885 903.092 275.681 880.471L400.092 625.479C407.804 610.057 408.832 592.063 403.177 575.612C397.522 559.161 385.698 545.794 370.275 538.083L238.666 473.821C229.412 470.222 219.644 467.652 209.876 467.652Z" fill="white" stroke="white" stroke-width="1.5"/>
<path d="M187.77 747.834C170.805 747.834 154.354 741.151 142.016 729.327L36.6258 627.535C10.4069 602.345 9.89281 560.703 35.0835 534.484L231.468 330.902C243.807 318.049 260.772 310.852 278.765 310.852C295.73 310.852 312.182 317.535 324.52 329.36L429.91 431.151C442.762 443.489 449.445 459.426 449.96 477.419C450.474 494.899 443.79 511.35 431.452 524.202L235.067 727.784C222.215 740.637 205.764 747.834 187.77 747.834ZM278.251 311.88C260.258 311.88 243.807 319.078 231.468 331.93L35.0835 534.998C9.89281 560.703 10.921 602.345 36.6258 627.021L142.016 728.813C154.354 740.637 170.291 747.32 187.256 747.32C205.249 747.32 221.701 740.123 234.039 727.27L430.424 523.688C442.762 511.35 448.931 494.899 448.931 477.419C448.417 459.94 441.734 444.003 428.882 431.665L323.492 329.874C311.667 318.563 295.216 311.88 278.251 311.88Z" fill="white" stroke="white" stroke-width="1.5"/>
<path d="M209.876 876.873C197.538 876.873 185.714 873.274 175.432 867.105C164.636 860.422 156.41 851.168 150.755 839.858L26.858 586.409C10.921 554.021 24.2875 514.435 57.1897 498.498L188.798 434.236C198.052 429.609 207.306 427.553 217.588 427.553C229.926 427.553 241.75 431.151 252.032 437.321C262.828 444.004 271.054 453.258 276.709 464.568L400.606 718.017C408.318 733.954 409.346 751.434 403.691 768.399C398.036 784.85 386.212 798.216 370.275 805.928L238.666 870.19C229.412 874.817 220.158 876.873 209.876 876.873ZM217.588 428.067C207.82 428.067 198.052 430.123 188.798 434.75L57.1897 499.012C24.8016 514.949 11.4351 554.021 27.3721 586.409L151.269 840.372C162.065 862.993 184.686 876.873 209.876 876.873C219.644 876.873 229.412 874.817 238.666 870.19L370.275 805.414C385.697 797.702 397.522 784.336 403.177 767.885C408.832 751.434 407.804 733.954 400.092 718.017L276.195 464.568C264.885 441.947 242.779 428.067 217.588 428.067Z" fill="white" stroke="white" stroke-width="1.5"/>
<path d="M211.419 577.669C187.256 577.669 164.636 564.303 153.326 542.711L84.4369 413.672C67.4717 381.798 79.81 341.699 111.684 324.734L361.021 192.097C370.275 186.956 381.071 184.385 391.867 184.385C416.029 184.385 438.649 197.752 449.96 219.344L518.848 348.896C527.074 364.319 528.616 382.312 523.475 398.764C518.334 415.729 507.024 429.095 491.601 437.321L242.265 569.958C232.497 575.099 222.215 577.669 211.419 577.669ZM391.867 184.899C381.071 184.899 370.789 187.47 361.535 192.611L111.684 325.248C79.81 342.213 67.9858 381.798 84.951 413.672L153.84 543.225C165.15 564.303 187.256 577.669 211.419 577.669C222.215 577.669 232.497 575.099 241.75 569.958L491.087 437.321C506.51 429.095 517.82 415.215 522.961 398.764C528.102 382.312 526.56 364.319 518.334 348.896L449.445 219.344C438.135 197.752 416.029 184.899 391.867 184.899Z" fill="white" stroke="white" stroke-width="1.5"/>
<path d="M192.397 707.221C176.974 707.221 161.551 701.566 149.727 691.284C137.903 681.002 129.677 666.607 127.621 650.67L88.0355 371.001C82.8946 335.015 108.085 302.112 144.072 296.972L289.047 276.408C292.132 275.894 295.216 275.894 298.301 275.894C313.724 275.894 329.147 281.549 340.971 291.831C352.795 302.112 361.021 316.507 363.077 332.444L402.663 612.113C405.233 629.592 400.606 646.557 390.324 660.952C379.528 674.832 364.62 684.086 347.14 686.657L202.165 707.221C198.566 707.221 195.482 707.221 192.397 707.221ZM298.301 276.408C295.216 276.408 292.132 276.408 289.047 276.922L144.072 297.486C108.599 302.627 83.4087 335.529 88.5496 371.001L128.135 650.67C132.762 682.544 160.523 706.707 192.397 706.707C195.482 706.707 198.566 706.706 201.651 706.192L346.626 685.629C364.105 683.058 379.014 674.318 389.81 660.438C400.092 646.557 404.719 629.592 402.149 612.113L362.563 332.444C357.936 300.57 330.175 276.408 298.301 276.408Z" fill="white" stroke="white" stroke-width="1.5"/>
<path d="M286.477 423.439C254.603 423.439 227.356 400.819 221.701 369.459L196.51 224.484C190.341 189.011 213.989 154.567 249.976 148.398L528.102 99.0443C531.701 98.5302 535.814 98.0161 539.412 98.0161C571.286 98.0161 598.533 120.636 604.188 151.996L629.893 296.457C632.978 313.937 628.865 330.902 619.097 345.297C608.815 359.691 593.906 369.459 576.941 372.544L298.815 421.897C294.188 422.925 290.075 423.439 286.477 423.439ZM539.412 99.0443C535.814 99.0443 531.701 99.5584 528.102 100.072L249.976 149.426C213.989 155.081 190.341 189.011 196.51 224.484L222.215 368.945C227.87 400.305 254.603 422.925 286.477 422.925C290.075 422.925 294.188 422.411 297.787 421.897L575.913 372.544C592.878 369.459 607.787 360.205 618.069 345.811C627.837 331.416 631.95 314.451 628.865 296.971L603.16 152.51C598.019 121.665 570.772 99.0443 539.412 99.0443Z" fill="white" stroke="white" stroke-width="1.5"/>
<path d="M372.845 566.359C369.246 566.359 365.133 565.845 361.535 565.331L217.074 539.626C181.601 533.457 157.438 499.526 163.608 463.539L212.447 185.413C218.102 154.053 245.349 130.919 277.223 130.919C280.822 130.919 284.934 131.433 288.533 131.947L432.994 157.652C450.473 160.737 465.382 170.504 475.15 184.385C485.432 198.78 489.031 216.259 485.946 233.224L437.107 511.35C431.966 543.224 404.719 566.359 372.845 566.359ZM277.223 131.433C245.349 131.433 218.616 154.053 212.961 185.413L164.122 463.539C157.953 499.012 181.601 532.942 217.074 539.112L361.535 564.302C365.133 564.816 369.246 565.331 372.845 565.331C404.719 565.331 431.452 542.71 437.107 511.35L485.946 233.224C489.031 216.259 484.918 198.78 475.15 184.385C465.382 169.99 449.959 160.737 432.994 157.652L288.533 132.461C284.934 131.947 280.822 131.433 277.223 131.433Z" fill="white" stroke="white" stroke-width="1.5"/>
<path d="M685.416 338.613C682.331 338.613 679.247 338.613 676.162 338.099L396.493 299.028C379.014 296.457 363.591 287.718 353.309 273.323C342.513 259.442 338.4 241.963 340.971 224.484L361.535 79.5086C363.591 63.5716 371.817 49.1769 383.641 38.895C395.465 28.6131 410.888 22.958 426.311 22.958C429.396 22.958 432.48 22.958 435.565 23.4721L715.233 62.5434C751.22 67.6844 775.897 100.587 771.27 136.573L750.706 281.549C748.65 297.486 740.424 311.88 728.6 322.162C716.262 332.958 701.353 338.613 685.416 338.613ZM425.797 23.4721C393.409 23.4721 365.648 47.6346 361.535 79.5086L340.971 224.484C338.4 241.963 343.027 258.928 353.309 272.809C363.591 286.69 379.014 295.943 396.493 298L676.162 337.071C679.247 337.585 682.331 337.585 685.416 337.585C717.804 337.585 745.565 313.423 749.678 281.549L770.242 136.573C775.383 101.101 750.192 68.1985 714.719 63.0575L435.051 23.9862C431.966 23.9862 428.882 23.4721 425.797 23.4721Z" fill="white" stroke="white" stroke-width="1.5"/>
<path d="M443.276 461.997C432.48 461.997 422.198 459.426 412.43 454.285L283.392 385.91C251.518 368.945 239.18 329.36 256.145 296.972L388.782 47.1207C400.092 25.5286 422.198 12.1621 446.875 12.1621C457.671 12.1621 467.953 14.7326 477.721 19.8736L607.273 88.7625C622.696 96.9881 634.006 110.869 639.147 127.32C644.288 144.285 642.746 161.764 634.52 177.187L501.369 427.038C490.059 448.63 467.953 461.997 443.276 461.997ZM446.875 13.1903C422.712 13.1903 400.606 26.5568 389.296 47.6348L256.659 297.486C239.694 329.36 252.032 368.945 283.906 385.396L413.459 454.285C422.712 459.426 433.508 461.997 443.79 461.997C467.953 461.997 490.059 448.63 501.369 427.552L633.492 177.701C641.718 162.278 643.26 144.799 638.119 127.834C632.978 111.383 621.668 97.5022 606.245 89.2766L477.207 20.3877C467.953 15.7608 457.157 13.1903 446.875 13.1903Z" fill="white" stroke="white" stroke-width="1.5"/>
<path d="M810.855 342.726C801.088 342.726 791.32 340.669 782.066 336.042L528.102 212.145C512.165 204.434 500.341 191.067 494.686 174.616C489.031 158.165 490.059 140.171 497.771 124.234L562.033 -7.37421C567.688 -18.6843 575.913 -27.9381 586.709 -34.6213C596.991 -40.7905 608.815 -44.3892 621.154 -44.3892C630.922 -44.3892 640.689 -42.3328 649.943 -37.7059L903.907 86.1914C936.295 102.128 950.176 141.2 934.239 174.102L869.977 305.711C864.321 317.021 856.096 326.274 845.3 332.958C835.018 339.127 823.194 342.726 810.855 342.726ZM621.154 -43.8751C595.963 -43.8751 573.343 -29.9945 562.547 -7.37421L498.285 124.749C490.573 140.171 489.545 158.165 495.2 174.616C500.855 191.067 512.679 204.434 528.102 212.145L782.58 335.528C791.32 340.155 801.088 342.211 810.855 342.211C836.046 342.211 858.666 328.331 869.462 305.711L933.724 174.102C949.661 141.714 935.781 102.642 903.907 86.7055L649.943 -37.1918C640.689 -41.8187 631.436 -43.8751 621.154 -43.8751Z" fill="white" stroke="white" stroke-width="1.5"/>
<path d="M543.011 384.882C525.018 384.882 508.052 377.685 495.714 364.832L393.923 259.957C381.585 247.104 375.416 230.653 375.416 213.174C375.93 195.694 382.613 179.243 395.465 166.905L598.533 -29.4798C610.872 -41.304 626.809 -47.9873 644.288 -47.9873C662.281 -47.9873 679.247 -40.79 691.585 -27.9375L793.376 77.4522C805.714 90.3047 811.883 106.756 811.883 124.235C811.369 141.714 804.686 158.165 791.834 170.504L588.766 366.889C576.427 378.713 559.976 384.882 543.011 384.882ZM644.288 -47.4732C627.323 -47.4732 611.386 -40.79 599.048 -28.9657L395.979 167.419C383.641 179.757 376.444 195.694 375.93 213.174C375.416 230.653 382.099 247.104 394.437 259.442L496.228 364.832C508.567 377.685 525.018 384.882 543.011 384.882C559.976 384.882 575.913 378.199 588.251 366.375L791.32 169.99C803.658 157.651 810.855 141.714 811.369 124.235C811.884 106.756 805.2 90.3047 792.862 77.9663L691.071 -27.4234C678.732 -40.2759 662.281 -47.4732 644.288 -47.4732Z" fill="white" stroke="white" stroke-width="1.5"/>
<path d="M661.253 342.726C648.915 342.726 637.091 339.127 626.809 332.958C616.013 326.274 607.787 317.021 602.132 305.711L537.87 174.102C530.159 158.165 529.131 140.686 534.786 123.72C540.441 107.269 552.265 93.9028 568.202 86.1914L822.165 -37.7059C831.419 -42.3328 840.673 -44.3892 850.955 -44.3892C863.293 -44.3892 875.117 -40.7905 885.399 -34.6213C896.195 -27.9381 904.421 -18.6843 910.076 -7.37421L974.338 124.234C990.275 156.623 976.909 196.208 944.006 212.145L690.043 336.042C680.789 340.155 671.535 342.726 661.253 342.726ZM850.955 -43.8751C841.187 -43.8751 831.419 -41.8187 822.165 -37.1918L568.202 86.7055C552.779 94.4169 540.955 107.783 535.3 124.234C529.645 140.686 530.673 158.165 538.384 174.102L602.646 305.711C613.442 328.331 636.063 342.211 661.253 342.211C671.021 342.211 680.789 340.155 690.043 335.528L944.006 211.631C976.394 195.694 989.761 156.623 973.824 124.234L909.562 -7.37421C898.252 -29.9945 876.146 -43.8751 850.955 -43.8751Z" fill="white" stroke="white" stroke-width="1.5"/>
</g>
</g>
<defs>
<linearGradient id="paint0_linear" x1="274.568" y1="387.687" x2="274.568" y2="665.5" gradientUnits="userSpaceOnUse">
<stop offset="0.411458" stop-color="white" stop-opacity="0"/>
<stop offset="1" stop-color="white"/>
</linearGradient>
</defs>
</svg>
