<svg width="387" height="402" viewBox="0 0 387 402" fill="none" xmlns="http://www.w3.org/2000/svg">
<mask id="mask0" mask-type="alpha" maskUnits="userSpaceOnUse" x="0" y="0" width="387" height="402">
<rect x="0.630615" width="386" height="402" fill="#E2F5FF"/>
<rect x="0.630615" width="386" height="402" fill="url(#paint0_linear)"/>
</mask>
<g mask="url(#mask0)">
<g opacity="0.56">
<path d="M124.354 191.276C122.602 191.276 120.85 191.026 119.098 190.525L85.3124 179.013C77.0536 176.26 72.5489 167 75.3018 158.741L97.5754 93.6725C99.8278 87.1656 105.834 82.9111 112.842 82.9111C114.593 82.9111 116.345 83.1614 118.097 83.6619L151.883 95.1741C160.142 97.9271 164.646 107.187 161.893 115.446L139.62 180.515C137.368 187.021 131.111 191.276 124.354 191.276ZM112.842 82.9111C106.084 82.9111 100.078 87.1656 97.8256 93.6725L75.552 158.741C72.7991 167 77.0536 176.01 85.3124 178.763L119.098 190.275C120.85 190.775 122.602 191.026 124.354 191.026C131.111 191.026 137.117 186.771 139.37 180.264L161.643 115.195C164.396 106.937 160.142 97.9271 151.883 95.1741L118.097 83.6619C116.345 83.1614 114.593 82.9111 112.842 82.9111Z" fill="white" stroke="white" stroke-width="1.5"/>
<path d="M84.5614 211.548C83.0598 211.548 81.308 211.297 79.8064 210.797L13.9867 190.776C5.47765 188.273 0.722606 179.264 3.22526 170.755L13.7364 136.718C15.7385 129.961 21.9951 125.457 29.0026 125.457C30.5042 125.457 32.256 125.707 33.7576 126.207L99.5773 146.229C103.582 147.48 107.085 150.233 109.087 153.987C111.09 157.741 111.59 161.995 110.339 166.25L99.8276 200.286C97.8255 207.043 91.5688 211.548 84.5614 211.548ZM29.0026 125.707C21.9951 125.707 15.9888 130.212 13.9867 136.969L3.47554 171.005C0.972886 179.264 5.72791 188.273 13.9867 190.776L79.8064 210.797C81.308 211.297 82.8095 211.548 84.3111 211.548C91.3185 211.548 97.3249 207.043 99.327 200.286L109.838 166.25C111.09 162.246 110.589 157.991 108.587 154.237C106.585 150.483 103.331 147.73 99.327 146.479L33.5073 126.458C32.256 125.707 30.7544 125.707 29.0026 125.707Z" fill="white" stroke="white" stroke-width="1.5"/>
<path d="M79.0556 213.3C75.5519 213.3 72.2984 212.299 69.5455 210.047L41.0153 188.524C37.5116 186.021 35.2592 182.267 34.7587 178.013C34.2581 173.758 35.2592 169.504 37.7619 166.25L79.0556 111.192C82.0588 107.188 86.8138 104.685 91.8191 104.685C95.3228 104.685 98.5763 105.686 101.329 107.939L129.859 129.461C136.867 134.717 138.368 144.727 133.113 151.985L91.8191 207.043C88.8159 211.048 84.3112 213.3 79.0556 213.3ZM92.0694 105.186C87.0641 105.186 82.309 107.438 79.3058 111.442L38.0121 166.501C35.5094 169.754 34.5084 174.009 35.0089 178.263C35.5095 182.518 37.7618 186.021 41.2655 188.774L69.7958 210.297C72.5487 212.299 75.8021 213.55 79.3058 213.55C84.3111 213.55 89.0662 211.298 92.0694 207.294L133.363 152.235C138.619 145.228 137.117 135.217 130.11 130.212L101.579 108.689C98.5763 106.187 95.3228 105.186 92.0694 105.186Z" fill="white" stroke="white" stroke-width="1.5"/>
<path d="M35.0089 220.308C31.7554 220.308 28.502 219.307 25.7491 217.305L-30.5605 178.013C-37.8182 173.008 -39.5701 162.997 -34.5648 155.739L-14.0431 126.458C-11.0399 122.204 -6.03457 119.701 -0.778999 119.701C2.47445 119.701 5.7279 120.702 8.48082 122.704L64.7905 162.246C68.2942 164.749 70.5465 168.253 71.2973 172.507C72.0481 176.762 71.0471 181.016 68.5444 184.52L48.0227 213.801C45.0195 217.805 40.2645 220.308 35.0089 220.308ZM-1.02926 119.951C-6.28483 119.951 -11.0399 122.454 -14.0431 126.709L-34.5648 155.99C-39.5701 163.247 -37.8182 173.008 -30.5605 178.013L25.7491 217.555C28.502 219.307 31.5052 220.308 34.7587 220.308C40.0142 220.308 44.7692 217.805 47.7724 213.551L68.2942 184.27C70.7968 180.766 71.5476 176.511 70.7968 172.507C70.046 168.253 67.7936 164.749 64.2899 162.246L7.98026 122.704C5.47761 120.953 2.22419 119.951 -1.02926 119.951Z" fill="white" stroke="white" stroke-width="1.5"/>
<path d="M29.253 220.307C23.9974 220.307 18.9921 217.804 16.2392 213.55L-4.28254 184.269C-6.78519 180.765 -7.78624 176.511 -7.03545 172.256C-6.28465 168.002 -4.03227 164.248 -0.528561 161.995L55.7811 122.453C58.534 120.451 61.7874 119.45 65.0409 119.45C70.2964 119.45 75.3017 121.953 78.0546 126.207L98.5764 155.488C103.582 162.746 101.83 172.757 94.5722 177.762L38.2625 217.304C35.7599 219.306 32.5064 220.307 29.253 220.307ZM65.0409 119.951C61.7874 119.951 58.534 120.952 56.0314 122.704L-0.2783 162.246C-3.78201 164.748 -6.03439 168.252 -6.78519 172.506C-7.53598 176.761 -6.53493 180.765 -4.03228 184.269L16.4895 213.55C19.4927 217.804 24.2477 220.307 29.5032 220.307C32.7567 220.307 36.0102 219.306 38.5128 217.554L94.8224 178.012C102.08 173.007 103.582 162.996 98.5764 155.989L78.0546 126.708C75.0515 122.453 70.2964 119.951 65.0409 119.951Z" fill="white" stroke="white" stroke-width="1.5"/>
<path d="M-14.7937 213.549C-19.799 213.549 -24.5541 211.297 -27.5573 207.293L-68.851 152.485C-74.1066 145.477 -72.8553 135.467 -65.5976 129.961L-37.0673 108.438C-34.3144 106.436 -30.8107 105.185 -27.307 105.185C-22.3017 105.185 -17.5467 107.437 -14.5435 111.441L26.7502 166.249C29.2529 169.753 30.5042 174.007 29.7534 178.012C29.2529 182.266 27.0005 186.02 23.4968 188.523L-5.03342 210.046C-8.03661 212.298 -11.29 213.549 -14.7937 213.549ZM-27.8075 105.185C-31.3113 105.185 -34.5647 106.186 -37.3176 108.438L-65.8478 129.961C-72.8552 135.216 -74.1066 145.227 -68.851 152.234L-27.5573 207.042C-24.5541 211.047 -20.0493 213.299 -14.7937 213.299C-11.29 213.299 -8.03661 212.298 -5.28368 210.046L23.2465 188.523C26.5 186.02 28.7524 182.266 29.5032 178.012C30.0037 173.757 29.0026 169.753 26.5 166.249L-14.7937 111.441C-18.2975 107.437 -22.8022 105.185 -27.8075 105.185Z" fill="white" stroke="white" stroke-width="1.5"/>
<path d="M-20.2998 211.798C-27.3072 211.798 -33.5638 207.293 -35.5659 200.536L-46.0771 166.5C-47.3284 162.496 -46.8279 157.991 -44.8257 154.237C-42.8236 150.483 -39.5702 147.73 -35.3157 146.479L30.504 126.207C32.0056 125.707 33.5072 125.457 35.2591 125.457C42.2665 125.457 48.5231 129.961 50.5252 136.718L61.0364 170.755C63.539 179.264 58.784 188.273 50.5252 190.776L-15.2945 211.047C-17.0463 211.548 -18.5479 211.798 -20.2998 211.798ZM35.0088 125.707C33.5072 125.707 31.7554 125.957 30.2538 126.458L-35.5659 146.729C-39.5702 147.98 -42.8236 150.733 -44.8257 154.487C-46.8279 158.241 -47.3284 162.496 -46.0771 166.5L-35.5659 200.536C-33.5638 207.293 -27.5575 211.798 -20.55 211.798C-19.0484 211.798 -17.2966 211.548 -15.795 211.047L50.0247 190.776C58.2835 188.273 63.0385 179.264 60.5358 171.005L50.0247 136.969C48.0226 129.961 42.0162 125.707 35.0088 125.707Z" fill="white" stroke="white" stroke-width="1.5"/>
<path d="M3.97603 189.273H3.72575L-65.0971 188.022C-73.8564 187.772 -81.1141 180.514 -80.8638 171.755L-80.3633 136.217C-80.3633 131.963 -78.6115 127.958 -75.6083 124.955C-72.6051 121.952 -68.3506 120.2 -64.0961 120.45L4.72683 121.702C13.4861 121.952 20.7438 129.21 20.4935 137.969L19.993 173.507C19.993 177.761 18.2411 181.765 15.238 184.769C12.2348 187.521 8.23054 189.273 3.97603 189.273ZM-64.0961 120.701C-72.6051 120.701 -79.8628 127.708 -79.8628 136.217L-80.6136 171.755C-80.8638 180.514 -73.8564 187.772 -65.0971 187.772L3.72575 189.023H3.97603C12.485 189.023 19.7427 182.016 19.7427 173.507L20.2433 137.969C20.4935 129.21 13.4861 121.952 4.72683 121.952L-64.0961 120.701C-63.8458 120.701 -64.0961 120.701 -64.0961 120.701Z" fill="white"/>
<path d="M-64.0961 120.701C-72.6051 120.701 -79.8628 127.708 -79.8628 136.217L-80.6136 171.755C-80.8638 180.514 -73.8564 187.772 -65.0971 187.772L3.72575 189.023H3.97603C12.485 189.023 19.7427 182.016 19.7427 173.507L20.2433 137.969C20.4935 129.21 13.4861 121.952 4.72683 121.952L-64.0961 120.701ZM-64.0961 120.701C-63.8458 120.701 -64.0961 120.701 -64.0961 120.701ZM3.97603 189.273H3.72575L-65.0971 188.022C-73.8564 187.772 -81.1141 180.514 -80.8638 171.755L-80.3633 136.217C-80.3633 131.963 -78.6115 127.958 -75.6083 124.955C-72.6051 121.952 -68.3506 120.2 -64.0961 120.45L4.72683 121.702C13.4861 121.952 20.7438 129.21 20.4935 137.969L19.993 173.507C19.993 177.761 18.2411 181.765 15.238 184.769C12.2348 187.521 8.23053 189.273 3.97603 189.273Z" stroke="white" stroke-width="1.5"/>
<path d="M112.841 4.5794C106.084 4.5794 99.8274 0.32489 97.5751 -6.18201L75.3015 -71.2509C73.7999 -75.2552 74.0502 -79.7599 76.0523 -83.5139C78.0544 -87.2679 81.3078 -90.2711 85.3121 -91.5224L119.098 -103.035C120.85 -103.535 122.602 -104.036 124.353 -104.036C131.111 -104.036 137.367 -99.7811 139.62 -93.2742L161.893 -28.2053C164.646 -19.9466 160.392 -10.6868 151.883 -7.93385L118.097 3.57834C116.345 4.32913 114.593 4.5794 112.841 4.5794ZM124.103 -104.036C122.351 -104.036 120.599 -103.785 118.848 -103.285L85.3121 -91.5224C81.3078 -90.2711 78.0544 -87.2679 76.3025 -83.5139C74.5507 -79.7599 74.3004 -75.5054 75.5517 -71.5012L97.8253 -6.43227C100.078 0.0746231 106.084 4.32914 112.841 4.32914C114.593 4.32914 116.345 4.07887 118.097 3.57834L151.883 -7.93385C160.141 -10.6868 164.646 -19.6963 161.643 -27.9551L139.369 -93.024C136.867 -99.5309 130.86 -104.036 124.103 -104.036Z" fill="white" stroke="white" stroke-width="1.5"/>
<path d="M125.855 32.3576C121.6 32.3576 117.596 30.6058 114.593 27.8528C111.59 24.8497 109.838 20.8454 109.838 16.5909L108.587 -52.232C108.587 -56.4865 110.088 -60.4907 113.091 -63.7442C116.095 -66.7474 120.099 -68.4992 124.353 -68.7495L159.891 -69.25H160.141C164.396 -69.25 168.4 -67.4982 171.403 -64.7452C174.406 -61.7421 176.158 -57.7378 176.158 -53.4833L177.41 15.3396C177.41 19.5941 175.908 23.5983 172.905 26.8518C169.902 29.855 165.897 31.6068 161.643 31.8571L126.105 32.3576C126.105 32.3576 126.105 32.3576 125.855 32.3576ZM160.392 -68.9997H160.141L124.604 -68.4992C120.349 -68.4992 116.345 -66.7474 113.592 -63.7442C110.589 -60.741 109.087 -56.7368 109.087 -52.4822L110.339 16.3407C110.589 24.8497 117.596 31.8571 126.105 31.8571H126.355L161.893 31.3566C166.148 31.3566 170.152 29.6047 172.905 26.6015C175.908 23.5983 177.41 19.5941 177.41 15.3396L176.158 -53.4833C176.158 -61.9923 168.901 -68.9997 160.392 -68.9997Z" fill="white" stroke="white" stroke-width="1.5"/>
<path d="M152.133 1.07523C150.381 1.07523 148.629 0.824966 146.877 0.0741653L81.8085 -22.1994C73.5497 -24.9523 69.045 -34.2121 71.7979 -42.4709L83.3101 -76.2567C85.5625 -82.7636 91.5689 -87.0181 98.5763 -87.0181C100.328 -87.0181 102.08 -86.7678 103.832 -86.2673L168.901 -63.9937C177.159 -61.2408 181.664 -51.981 178.911 -43.7222L167.399 -9.93643C165.147 -3.17928 158.89 1.07523 152.133 1.07523ZM98.5763 -86.7678C91.8191 -86.7678 85.8128 -82.5133 83.5604 -76.0064L72.0482 -42.2206C69.2952 -33.9619 73.5497 -24.9523 81.8085 -22.1994L146.877 0.0741653C148.629 0.574699 150.381 0.824974 152.133 0.824974C158.89 0.824974 164.896 -3.42954 167.149 -9.93643L178.661 -43.7222C181.414 -51.981 177.159 -60.9905 168.901 -63.7434L103.832 -86.017C102.08 -86.5176 100.328 -86.7678 98.5763 -86.7678Z" fill="white" stroke="white" stroke-width="1.5"/>
<path d="M163.895 73.1519C162.394 73.1519 160.642 72.9016 159.14 72.4011L125.104 61.89C121.1 60.6386 117.596 57.8857 115.594 54.1317C113.592 50.3778 113.092 46.1233 114.343 41.8688L134.364 -23.951C136.366 -30.7081 142.623 -35.2129 149.63 -35.2129C151.132 -35.2129 152.884 -34.9626 154.385 -34.4621L188.421 -23.951C196.93 -21.4483 201.685 -12.4388 199.183 -3.92976L179.162 61.89C177.159 68.3969 170.903 73.1519 163.895 73.1519ZM149.881 -34.9626C142.873 -34.9626 136.867 -30.4579 134.865 -23.7007L114.843 42.119C113.592 46.1232 114.093 50.3778 116.095 54.1317C118.097 57.8857 121.35 60.6386 125.355 61.89L159.391 72.4011C160.892 72.9016 162.394 73.1519 164.146 73.1519C171.153 73.1519 177.159 68.6471 179.162 61.89L199.183 -3.92976C201.685 -12.1885 196.93 -21.1981 188.672 -23.7007L154.636 -34.2118C153.134 -34.7124 151.382 -34.9626 149.881 -34.9626Z" fill="white" stroke="white" stroke-width="1.5"/>
<path d="M164.396 41.1171C160.892 41.1171 157.639 40.1161 154.886 37.8637L99.8276 -3.43004C96.3238 -5.93269 94.0715 -9.68666 93.5709 -13.9412C93.0704 -18.1957 94.0715 -22.4502 96.5741 -25.7036L118.097 -54.2338C121.1 -58.2381 125.855 -60.7407 130.86 -60.7407C134.364 -60.7407 137.618 -59.7397 140.37 -57.4873L195.429 -16.1936C202.436 -10.938 203.938 -0.927387 198.682 6.3303L177.159 34.8605C174.156 38.8648 169.401 41.1171 164.396 41.1171ZM130.86 -60.4905C125.855 -60.4905 121.35 -58.2381 118.097 -54.2338L96.5741 -25.7036C94.0715 -22.4502 93.0704 -18.1957 93.5709 -13.9412C94.0715 -9.68666 96.3238 -5.93269 99.8276 -3.43004L154.886 37.8637C157.639 39.8658 160.892 41.1171 164.396 41.1171C169.401 41.1171 173.906 38.8648 177.159 34.8605L198.682 6.3303C203.938 -0.67712 202.436 -10.6877 195.679 -15.693L140.621 -56.9867C137.618 -59.4894 134.364 -60.4905 130.86 -60.4905Z" fill="white" stroke="white" stroke-width="1.5"/>
<path d="M153.384 113.194C150.131 113.194 146.877 112.193 144.124 110.191L114.843 89.669C111.34 87.1663 109.087 83.6626 108.336 79.4081C107.586 75.1536 108.587 70.8991 111.089 67.3954L150.631 11.0858C153.634 6.83126 158.64 4.32861 163.895 4.32861C167.149 4.32861 170.402 5.32967 173.155 7.33179L202.436 27.8535C209.694 32.8588 211.446 42.8694 206.44 50.1271L166.898 106.437C163.395 110.691 158.64 113.194 153.384 113.194ZM163.645 4.57887C158.389 4.57887 153.634 7.08152 150.631 11.336L111.089 67.6457C108.587 71.1494 107.836 75.4039 108.587 79.4081C109.337 83.6626 111.59 87.1663 115.094 89.669L144.375 110.191C147.127 112.193 150.131 112.944 153.384 112.944C158.64 112.944 163.395 110.441 166.398 106.186L205.94 49.8769C210.945 42.6192 209.193 32.8588 201.936 27.8535L172.654 7.33179C169.902 5.57993 166.898 4.57887 163.645 4.57887Z" fill="white" stroke="white" stroke-width="1.5"/>
<path d="M163.645 82.9112C158.39 82.9112 153.384 80.4086 150.381 76.1541L110.839 19.8444C108.337 16.3407 107.336 12.0862 108.086 7.83168C108.837 3.57718 111.09 -0.176796 114.593 -2.42918L143.874 -22.9509C146.627 -24.953 149.881 -25.9541 153.134 -25.9541C158.39 -25.9541 163.395 -23.4514 166.398 -19.1969L205.94 37.1127C210.945 44.3704 209.193 54.381 201.936 59.3863L172.655 79.908C170.152 81.9102 166.899 82.9112 163.645 82.9112ZM153.384 -25.7038C150.131 -25.7038 146.877 -24.7028 144.375 -22.9509L115.094 -2.42918C111.59 0.0734692 109.338 3.57718 108.587 7.83168C107.836 12.0862 108.837 16.0904 111.09 19.5941L150.631 75.9038C153.635 80.1583 158.39 82.661 163.645 82.661C166.899 82.661 170.152 81.6599 172.655 79.908L201.936 59.3863C209.193 54.381 210.695 44.6207 205.69 37.363L166.148 -18.9467C163.395 -23.2012 158.39 -25.7038 153.384 -25.7038Z" fill="white" stroke="white" stroke-width="1.5"/>
<path d="M130.86 147.979C125.855 147.979 121.1 145.727 118.097 141.472L96.5741 112.942C94.0714 109.438 92.8201 105.184 93.5709 101.179C94.0714 96.9249 96.3238 93.1709 99.8275 90.6683L154.886 49.3745C157.639 47.3724 161.142 46.1211 164.396 46.1211C169.401 46.1211 174.156 48.3735 177.159 52.628L198.682 81.1582C201.185 84.6619 202.436 88.9164 201.685 92.9207C201.185 97.1752 198.932 100.929 195.429 103.432L140.37 144.726C137.618 146.978 134.364 147.979 130.86 147.979ZM164.396 46.3714C160.892 46.3714 157.639 47.3724 154.886 49.6248L99.8275 90.9185C96.5741 93.4212 94.3217 97.1752 93.5709 101.43C93.0704 105.684 94.0714 109.688 96.5741 113.192L118.097 141.722C121.1 145.727 125.605 147.979 130.86 147.979C134.364 147.979 137.618 146.978 140.37 144.726L195.429 103.432C198.682 100.929 200.935 97.1752 201.685 92.9207C202.186 88.6661 201.185 84.6619 198.682 81.1582L177.159 52.628C173.906 48.6238 169.401 46.3714 164.396 46.3714Z" fill="white" stroke="white" stroke-width="1.5"/>
<path d="M149.88 122.454C142.873 122.454 136.616 117.949 134.614 111.192L114.593 45.372C113.342 41.3678 113.842 36.863 115.844 33.109C117.847 29.3551 121.1 26.6021 125.355 25.3508L159.391 14.8397C160.892 14.3391 162.394 14.0889 164.146 14.0889C171.153 14.0889 177.41 18.5936 179.412 25.3508L199.433 91.1705C201.936 99.6795 197.181 108.689 188.672 111.192L154.636 121.703C153.134 122.203 151.382 122.454 149.88 122.454ZM163.895 14.3391C162.394 14.3391 160.892 14.5894 159.14 15.09L125.104 25.6011C121.1 26.8524 117.847 29.6053 115.844 33.3593C113.842 37.1132 113.342 41.3678 114.593 45.372L134.614 111.192C136.616 117.949 142.623 122.454 149.63 122.454C151.132 122.454 152.633 122.203 154.385 121.703L188.421 111.192C196.68 108.689 201.435 99.6795 198.932 91.4208L178.911 25.6011C176.909 18.8439 170.903 14.3391 163.895 14.3391Z" fill="white" stroke="white" stroke-width="1.5"/>
<path d="M98.5762 174.258C91.819 174.258 85.5624 170.003 83.31 163.496L71.7978 129.711C70.2962 125.706 70.7968 121.202 72.5486 117.448C74.5507 113.694 77.8042 110.691 81.8084 109.439L146.877 87.1656C148.629 86.6651 150.381 86.4148 152.133 86.4148C158.89 86.4148 165.147 90.6693 167.399 97.1762L178.911 130.962C180.413 134.966 180.163 139.471 178.16 143.225C176.158 146.979 172.905 149.982 168.901 151.233L103.832 173.507C102.33 174.008 100.578 174.258 98.5762 174.258ZM152.133 86.1646C150.381 86.1646 148.629 86.4148 146.877 86.9154L81.8084 109.189C77.8042 110.44 74.5507 113.443 72.7989 117.197C71.047 120.951 70.7968 125.206 72.0481 129.21L83.5603 162.996C85.8127 169.503 91.819 173.757 98.5762 173.757C100.328 173.757 102.08 173.507 103.832 173.007L168.901 150.733C172.905 149.482 176.158 146.478 177.91 142.724C179.662 138.97 179.912 134.716 178.661 130.712L167.149 96.926C164.896 90.6693 158.89 86.1646 152.133 86.1646Z" fill="white" stroke="white" stroke-width="1.5"/>
<path d="M160.392 156.489H160.141L124.604 155.989C120.349 155.989 116.345 154.237 113.342 150.983C110.339 147.98 108.837 143.976 108.837 139.471L110.088 70.6483C110.088 66.3938 111.84 62.3895 114.843 59.3863C117.846 56.3832 122.101 54.6313 126.355 54.8816L161.893 55.3821C166.148 55.3821 170.152 57.1339 173.155 60.3874C176.158 63.3906 177.66 67.6451 177.66 71.8996L176.408 140.722C176.408 144.977 174.657 148.981 171.653 151.984C168.65 154.737 164.646 156.489 160.392 156.489ZM125.855 55.1318C117.346 55.1318 110.088 62.1393 110.088 70.6483L108.837 139.471C108.837 143.726 110.339 147.73 113.342 150.733C116.345 153.736 120.099 155.488 124.353 155.488L159.891 155.989H160.141C168.65 155.989 175.908 148.981 175.908 140.472L177.159 71.6493C177.159 67.3948 175.658 63.3906 172.655 60.3874C169.651 57.3842 165.897 55.6324 161.643 55.6324L126.105 55.1318C126.105 55.1318 126.105 55.1318 125.855 55.1318Z" fill="white" stroke="white" stroke-width="1.5"/>
<path d="M60.0353 189.274C55.7808 189.274 51.7765 187.522 48.7734 184.77C45.7702 181.766 44.0183 177.762 44.0183 173.508L43.5178 137.97C43.5178 133.715 45.0194 129.711 48.0226 126.458C51.0257 123.455 55.03 121.703 59.2845 121.452L128.107 120.201C132.362 120.201 136.616 121.703 139.62 124.706C142.623 127.709 144.375 131.713 144.375 135.968L144.875 171.506C145.125 180.265 137.868 187.773 129.108 187.773L60.2856 189.024C60.2856 189.274 60.0353 189.274 60.0353 189.274ZM128.107 120.451H127.857L59.0342 121.703C54.7797 121.703 50.7755 123.455 48.0226 126.458C45.0194 129.461 43.5178 133.465 43.5178 137.72L44.0183 173.257C44.2686 181.766 51.276 188.774 59.7851 188.774H60.0353L128.858 187.522C137.617 187.272 144.625 180.265 144.375 171.506L143.874 135.968C143.874 127.459 136.867 120.451 128.107 120.451Z" fill="white" stroke="white" stroke-width="1.5"/>
<path d="M-23.5532 392.241C-29.5596 392.241 -35.3157 390.489 -40.321 387.486C-45.5766 384.233 -49.5808 379.728 -52.3337 374.222L-83.6168 310.154C-87.3708 302.396 -87.8714 293.887 -85.1184 285.628C-82.3655 277.62 -76.6094 271.113 -68.8512 267.359L54.7798 207.045C59.2845 204.793 63.7893 203.792 68.7946 203.792C74.8009 203.792 80.557 205.543 85.5623 208.547C90.8179 211.8 94.8221 216.305 97.5751 221.811L128.858 285.878C136.616 301.645 130.11 320.916 114.093 328.674L-9.53838 388.988C-14.0432 391.24 -18.7982 392.241 -23.5532 392.241ZM68.5443 204.042C63.7893 204.042 59.0342 205.043 54.5295 207.295L-69.1015 267.609C-76.6094 271.363 -82.3655 277.87 -85.1184 285.878C-87.8714 293.887 -87.3708 302.396 -83.6168 310.154L-52.3337 374.222C-47.0781 385.234 -36.0665 391.991 -23.8035 391.991C-19.0485 391.991 -14.2934 390.99 -9.78864 388.737L113.842 328.424C129.609 320.665 136.116 301.645 128.358 285.878L97.0745 221.811C91.819 210.799 80.8073 204.042 68.5443 204.042Z" fill="white" stroke="white" stroke-width="1.5"/>
<path d="M-118.905 359.706C-126.412 359.706 -133.92 356.953 -139.677 351.948C-145.433 346.943 -149.437 339.935 -150.438 332.177L-160.449 261.602C-161.7 253.093 -159.447 244.834 -154.442 237.827C-149.437 231.07 -141.929 226.565 -133.42 225.314L2.72432 206.043C4.22591 205.793 5.72751 205.793 7.2291 205.793C14.737 205.793 22.245 208.546 28.0011 213.551C33.7572 218.556 37.7614 225.564 38.7625 233.322L48.7731 303.897C51.2757 321.415 39.0128 337.432 21.4942 339.935L-114.65 359.205C-115.901 359.456 -117.403 359.706 -118.905 359.706ZM7.47934 206.043C5.97775 206.043 4.47615 206.043 2.97456 206.293L-133.17 225.564C-141.679 226.815 -148.936 231.07 -154.192 237.827C-159.197 244.584 -161.45 252.843 -160.198 261.352L-150.188 331.927C-147.935 347.443 -134.421 359.205 -118.905 359.205C-117.403 359.205 -115.901 359.205 -114.4 358.955L21.7444 339.685C39.0127 337.182 51.2757 321.165 48.7731 303.897L38.7625 233.322C36.7603 217.806 23.246 206.043 7.47934 206.043Z" fill="white" stroke="white" stroke-width="1.5"/>
<path d="M296.786 60.6387C295.284 60.6387 293.783 60.6387 292.281 60.3884L221.706 50.3778C213.197 49.1265 205.689 44.872 200.684 37.8645C195.428 31.1074 193.426 22.5984 194.678 14.0894L213.698 -122.055C214.699 -129.813 218.703 -136.82 224.459 -141.826C230.215 -146.831 237.723 -149.584 245.231 -149.584C246.733 -149.584 248.234 -149.584 249.736 -149.334L320.311 -139.323C337.829 -136.82 349.842 -120.803 347.59 -103.285L328.569 32.8592C327.568 40.6175 323.564 47.6249 317.808 52.6302C311.802 57.8858 304.294 60.6387 296.786 60.6387ZM245.231 -149.083C229.464 -149.083 215.95 -137.321 213.948 -121.805L194.928 14.3396C193.677 22.8486 195.929 31.1074 200.934 37.8645C205.94 44.6217 213.447 49.1265 221.956 50.1275L292.531 60.1382C294.033 60.3884 295.534 60.3884 297.036 60.3884C312.803 60.3884 326.317 48.6259 328.319 33.1095L347.339 -103.035C349.842 -120.303 337.579 -136.32 320.311 -138.823L249.736 -148.833C248.234 -149.083 246.733 -149.083 245.231 -149.083Z" fill="white" stroke="white" stroke-width="1.5"/>
<path d="M288.277 143.228C283.522 143.228 278.767 142.227 274.262 139.975L210.194 108.691C202.436 104.937 196.68 98.4306 193.927 90.4221C191.174 82.4136 191.675 73.6543 195.429 65.8961L255.742 -57.7348C258.495 -63.2407 262.5 -67.7454 267.755 -70.9989C272.76 -74.0021 278.517 -75.7539 284.523 -75.7539C289.278 -75.7539 294.033 -74.7529 298.538 -72.5005L362.606 -41.2173C370.364 -37.4634 376.12 -30.9565 378.873 -22.948C381.626 -14.9395 381.125 -6.18023 377.371 1.57799L317.057 125.209C314.304 130.715 310.3 135.22 305.045 138.473C300.039 141.726 294.283 143.228 288.277 143.228ZM284.523 -75.2534C272.26 -75.2534 261.248 -68.4962 255.993 -57.4846L195.679 66.1464C191.925 73.6543 191.424 82.4136 194.177 90.4221C196.93 98.4306 202.686 104.937 210.194 108.691L274.262 139.975C278.767 142.227 283.272 143.228 288.027 143.228C300.29 143.228 311.301 136.471 316.557 125.459L376.871 1.82827C380.625 -5.67969 381.125 -14.439 378.372 -22.4475C375.619 -30.4559 369.863 -36.9628 362.355 -40.7168L298.287 -71.9999C294.033 -74.2523 289.278 -75.2534 284.523 -75.2534Z" fill="white" stroke="white" stroke-width="1.5"/>
<path d="M299.038 80.4096C290.279 80.4096 282.02 76.9059 276.014 70.6493L180.413 -28.2054C174.406 -34.4621 171.403 -42.4706 171.403 -50.9796C171.653 -59.4886 174.907 -67.4971 181.163 -73.5034L232.468 -123.056C238.474 -128.812 246.232 -132.065 254.741 -132.065C263.501 -132.065 271.759 -128.562 277.766 -122.305L373.367 -23.4504C385.63 -10.6869 385.38 9.58459 372.616 21.8476L321.312 71.4001C315.306 77.1562 307.547 80.4096 299.038 80.4096ZM254.741 -131.815C246.483 -131.815 238.724 -128.562 232.718 -122.806L181.414 -73.2531C175.407 -67.2468 171.904 -59.4886 171.653 -50.9796C171.403 -42.4706 174.657 -34.4621 180.663 -28.4557L276.264 70.399C282.271 76.6556 290.279 80.1593 299.038 80.1593C307.297 80.1593 315.055 76.9059 321.062 71.1498L372.366 21.5973C384.879 9.3343 385.38 -10.6869 373.117 -23.2001L277.515 -122.055C271.509 -128.311 263.501 -131.815 254.741 -131.815Z" fill="white" stroke="white" stroke-width="1.5"/>
<path d="M254.992 219.057C246.733 219.057 238.724 215.803 232.718 210.047L181.414 160.495C175.157 154.488 171.904 146.48 171.653 137.971C171.403 129.462 174.656 121.453 180.663 115.197L276.264 16.3419C282.271 10.0853 290.529 6.58154 299.289 6.58154C307.547 6.58154 315.556 9.835 321.562 15.5911L372.866 65.1436C385.63 77.4066 385.88 97.678 373.617 110.442L278.016 209.296C271.759 215.803 263.501 219.057 254.992 219.057ZM299.038 7.08208C290.279 7.08208 282.271 10.5858 276.264 16.8424L180.663 115.697C174.656 121.703 171.653 129.712 171.653 138.221C171.904 146.73 175.157 154.488 181.414 160.495L232.718 210.047C238.724 215.803 246.483 219.057 254.741 219.057C263.501 219.057 271.509 215.553 277.515 209.296L373.117 110.442C385.38 97.9283 384.879 77.6568 372.366 65.6441L321.062 16.0916C315.305 10.0853 307.297 7.08208 299.038 7.08208Z" fill="white" stroke="white" stroke-width="1.5"/>
<path d="M284.523 162.748C278.517 162.748 272.76 160.996 267.755 157.993C262.5 154.739 258.495 150.234 255.742 144.728L195.429 21.0975C191.675 13.3393 191.174 4.8303 193.927 -3.42845C196.68 -11.4369 202.436 -17.9438 210.194 -21.6978L274.262 -52.9809C278.767 -55.2333 283.272 -56.2344 288.277 -56.2344C294.283 -56.2344 300.039 -54.4825 305.045 -51.4793C310.3 -48.2259 314.304 -43.7211 317.057 -38.2153L377.371 85.4156C385.129 101.182 378.623 120.453 362.606 128.211L298.538 159.494C294.283 161.747 289.528 162.748 284.523 162.748ZM288.277 -55.9841C283.522 -55.9841 278.767 -54.983 274.262 -52.7307L210.194 -21.4475C202.686 -17.6936 196.93 -11.1866 194.177 -3.17817C191.424 4.83031 191.925 13.3393 195.679 21.0975L255.993 144.728C261.248 155.74 272.26 162.497 284.523 162.497C289.278 162.497 294.033 161.496 298.538 159.244L362.606 127.961C378.372 120.202 384.879 101.182 377.121 85.4156L316.807 -38.2153C311.552 -48.9767 300.54 -55.9841 288.277 -55.9841Z" fill="white" stroke="white" stroke-width="1.5"/>
<path d="M199.683 281.122C187.921 281.122 176.909 274.615 171.403 264.104L137.868 201.037C133.863 193.529 133.113 184.77 135.615 176.762C138.118 168.503 143.624 161.996 151.132 157.992L272.51 93.4234C277.015 90.9208 282.271 89.6694 287.526 89.6694C299.289 89.6694 310.3 96.1763 315.806 106.687L349.342 169.754C357.6 185.271 351.594 204.791 336.078 213.05L214.699 277.368C209.944 279.621 204.688 281.122 199.683 281.122ZM287.526 89.6694C282.271 89.6694 277.265 90.9208 272.76 93.4234L151.382 157.992C143.874 161.996 138.368 168.753 135.865 176.762C133.363 184.77 134.114 193.529 138.118 201.037L171.653 264.104C177.159 274.615 187.921 280.872 199.683 280.872C204.939 280.872 209.944 279.621 214.449 277.118L335.827 212.55C351.344 204.291 357.1 185.02 348.841 169.504L315.306 106.437C310.05 96.1764 299.289 89.6694 287.526 89.6694Z" fill="white" stroke="white" stroke-width="1.5"/>
<path d="M245.231 236.576C237.723 236.576 230.215 233.823 224.459 228.817C218.703 223.812 214.699 216.805 213.698 209.047L194.427 72.9023C193.176 64.3933 195.429 56.1345 200.434 49.1271C205.689 42.37 212.947 37.8652 221.456 36.6139L292.031 26.6033C293.532 26.353 295.034 26.353 296.536 26.353C304.044 26.353 311.552 29.1059 317.308 34.1112C323.064 39.1165 327.068 46.124 328.069 53.8822L347.339 190.026C349.842 207.545 337.579 223.562 320.061 226.065L249.486 236.075C248.234 236.325 246.733 236.576 245.231 236.576ZM296.786 26.6033C295.284 26.6033 293.783 26.6033 292.281 26.8535L221.706 36.8642C213.197 38.1155 205.94 42.37 200.684 49.1271C195.679 55.8843 193.426 64.1431 194.678 72.6521L213.948 208.796C216.201 224.313 229.715 236.075 245.231 236.075C246.733 236.075 248.234 236.075 249.736 235.825L320.311 225.814C337.579 223.312 349.842 207.295 347.339 190.026L328.069 53.8822C326.067 38.3658 312.553 26.6033 296.786 26.6033Z" fill="white" stroke="white" stroke-width="1.5"/>
<path d="M127.857 322.667C112.341 322.667 99.0765 311.655 96.3236 296.139L84.0606 225.814C82.559 217.305 84.5611 209.046 89.3162 202.039C94.3215 195.032 101.579 190.277 109.838 189.025L245.231 165.25C246.983 165 248.985 164.75 250.737 164.75C266.254 164.75 279.518 175.761 282.271 191.278L294.784 261.352C297.787 278.62 286.275 295.388 268.756 298.391L133.363 322.166C131.611 322.667 129.609 322.667 127.857 322.667ZM250.987 165C249.236 165 247.233 165.25 245.482 165.5L110.088 189.275C101.829 190.777 94.5717 195.282 89.5664 202.289C84.8114 209.297 82.8093 217.555 84.3109 226.064L96.5739 296.389C99.3268 311.655 112.341 322.667 127.857 322.667C129.609 322.667 131.611 322.417 133.363 322.166L268.756 298.391C286.025 295.388 297.537 278.87 294.534 261.602L282.271 191.278C279.518 176.011 266.504 165 250.987 165Z" fill="white" stroke="white" stroke-width="1.5"/>
<path d="M255.492 306.9C253.74 306.9 251.738 306.65 249.986 306.4L179.662 294.137C171.153 292.635 163.895 287.88 159.14 281.123C154.135 274.116 152.383 265.607 153.885 257.348L177.66 121.954C180.413 106.688 193.677 95.4263 209.193 95.4263C210.945 95.4263 212.947 95.6765 214.699 95.9268L285.023 108.19C293.532 109.691 300.79 114.446 305.545 121.204C310.55 128.211 312.302 136.72 310.801 144.979L287.026 280.372C284.022 295.889 271.009 306.9 255.492 306.9ZM208.943 95.4263C193.426 95.4263 180.413 106.438 177.66 121.704L153.885 257.098C152.383 265.356 154.385 273.865 159.14 280.873C163.895 287.88 171.403 292.385 179.662 293.886L249.986 306.149C251.738 306.4 253.74 306.65 255.492 306.65C271.009 306.65 284.022 295.638 286.775 280.372L310.55 144.979C312.052 136.72 310.05 128.211 305.295 121.204C300.54 114.196 293.032 109.691 284.773 108.19L214.449 95.9268C212.697 95.4263 210.695 95.4263 208.943 95.4263Z" fill="white" stroke="white" stroke-width="1.5"/>
<path d="M183.166 359.457C181.664 359.457 180.162 359.457 178.661 359.206L42.5166 339.936C24.9981 337.433 12.9854 321.166 15.2378 303.898L25.2484 233.323C26.2494 225.565 30.2537 218.557 36.0098 213.552C41.7659 208.547 49.2738 205.794 56.7817 205.794C58.2833 205.794 59.7849 205.794 61.2865 206.044L197.431 225.315C205.94 226.566 213.448 230.82 218.453 237.828C223.709 244.585 225.711 253.094 224.459 261.603L214.449 332.178C213.448 339.936 209.443 346.943 203.687 351.949C198.182 356.704 190.674 359.457 183.166 359.457ZM56.7817 206.044C41.015 206.044 27.5007 217.807 25.4986 233.323L15.488 303.898C12.9853 321.166 25.2483 337.183 42.5166 339.686L178.661 358.956C180.162 359.206 181.664 359.206 183.166 359.206C198.932 359.206 212.447 347.444 214.449 331.928L224.459 261.353C225.711 252.844 223.458 244.585 218.453 237.828C213.448 231.071 205.94 226.566 197.431 225.565L61.2865 206.294C59.7849 206.044 58.2833 206.044 56.7817 206.044Z" fill="white" stroke="white" stroke-width="1.5"/>
<path d="M172.905 364.712C167.649 364.712 162.644 363.46 157.889 360.958L94.8221 327.422C87.3142 323.418 81.8083 316.661 79.3056 308.652C76.803 300.394 77.5538 291.885 81.5581 284.377L146.126 162.998C151.632 152.487 162.394 145.98 174.406 145.98C179.662 145.98 184.667 147.231 189.422 149.734L252.489 183.27C259.997 187.274 265.503 194.031 268.006 202.039C270.508 210.298 269.757 218.807 265.753 226.315L201.185 347.694C195.679 358.205 184.667 364.712 172.905 364.712ZM174.406 145.98C162.644 145.98 151.883 152.487 146.377 162.748L81.8083 284.126C77.8041 291.634 77.0533 300.143 79.5559 308.402C82.0586 316.411 87.5644 323.168 95.0724 327.172L158.139 360.707C162.644 363.21 167.9 364.461 172.905 364.461C184.667 364.461 195.429 357.955 200.934 347.694L265.503 226.315C269.507 218.807 270.258 210.298 267.755 202.039C265.253 194.031 259.747 187.274 252.239 183.27L189.172 149.734C184.918 147.231 179.662 145.98 174.406 145.98Z" fill="white" stroke="white" stroke-width="1.5"/>
<path d="M87.8146 392.241C83.0596 392.241 78.3045 391.24 73.7998 388.988L-49.8312 328.674C-57.5894 324.92 -63.3455 318.413 -66.0984 310.404C-68.8513 302.396 -68.3508 293.637 -64.5968 285.878L-33.3137 221.811C-30.5608 216.305 -26.5565 211.8 -21.301 208.547C-16.2957 205.543 -10.5396 203.792 -4.5332 203.792C0.221832 203.792 4.97687 204.793 9.48164 207.045L133.113 267.359C148.879 275.117 155.636 294.137 147.878 310.154L116.595 374.222C113.842 379.728 109.838 384.233 104.582 387.486C99.5771 390.489 93.821 392.241 87.8146 392.241ZM-4.5332 204.042C-16.7962 204.042 -27.8079 210.799 -33.0634 221.811L-64.3466 285.878C-68.1005 293.386 -68.6011 302.146 -65.8482 310.154C-63.0952 318.163 -57.3391 324.67 -49.8312 328.424L73.7998 388.737C78.3045 390.99 82.8093 391.991 87.8146 391.991C100.078 391.991 111.089 385.234 116.345 374.222L147.628 310.154C155.386 294.387 148.629 275.367 133.113 267.609L9.48164 207.295C5.22713 205.293 0.472099 204.042 -4.5332 204.042Z" fill="white" stroke="white" stroke-width="1.5"/>
<path d="M76.8029 393.991C68.0437 393.991 59.7849 390.487 53.7786 384.231L4.22607 332.926C-1.78029 326.67 -4.78345 318.661 -4.78345 310.152C-4.53318 301.643 -1.27975 293.635 4.97687 287.628L103.832 192.027C109.838 186.271 117.596 183.018 126.105 183.018C134.864 183.018 143.123 186.521 149.13 192.778L198.682 244.082C204.688 250.339 207.692 258.347 207.692 266.856C207.441 275.365 204.188 283.374 197.931 289.38L99.0765 384.982C92.8199 390.738 85.0617 393.991 76.8029 393.991ZM126.105 183.518C117.846 183.518 110.088 186.772 104.082 192.528L5.22715 288.129C-0.779207 294.135 -4.28292 301.894 -4.53319 310.403C-4.78345 318.912 -1.53001 326.92 4.47635 332.926L54.0288 384.231C60.0352 390.487 68.2939 393.991 76.8029 393.991C85.0617 393.991 92.8199 390.738 98.8263 384.982L197.681 289.38C203.687 283.374 207.191 275.616 207.441 267.107C207.692 258.598 204.438 250.589 198.432 244.583L148.879 193.278C142.873 186.772 134.864 183.518 126.105 183.518Z" fill="white" stroke="white" stroke-width="1.5"/>
<path d="M-12.7919 393.992C-21.0507 393.992 -29.0592 390.738 -35.0655 384.982L-133.92 289.381C-146.684 277.118 -146.934 256.846 -134.671 244.083L-85.1185 192.778C-79.1122 186.522 -70.8534 183.018 -62.0941 183.018C-53.8354 183.018 -45.8269 186.272 -39.8205 192.028L59.0342 287.629C71.7977 299.892 72.048 320.163 59.785 332.927L10.2325 384.231C4.2261 390.488 -4.03265 393.992 -12.7919 393.992ZM-62.0941 183.519C-70.8534 183.519 -78.8619 187.022 -84.8683 193.279L-134.421 244.583C-146.684 257.097 -146.183 277.368 -133.67 289.381L-34.8152 384.982C-28.8089 390.738 -21.0507 393.992 -12.7919 393.992C-4.03265 393.992 3.97583 390.488 9.98219 384.231L59.5347 332.927C71.7977 320.414 71.2971 300.142 58.7839 288.129L-40.0708 192.528C-45.8269 186.522 -53.8354 183.519 -62.0941 183.519Z" fill="white" stroke="white" stroke-width="1.5"/>
</g>
</g>
<defs>
<linearGradient id="paint0_linear" x1="193.631" y1="285.595" x2="193.631" y2="490.514" gradientUnits="userSpaceOnUse">
<stop offset="0.411458" stop-color="white" stop-opacity="0"/>
<stop offset="1" stop-color="white"/>
</linearGradient>
</defs>
</svg>
