<svg width="167" height="169" viewBox="0 0 167 169" fill="none" xmlns="http://www.w3.org/2000/svg">
<path d="M75.4656 3.42149C80.1637 -0.333512 86.8363 -0.333512 91.5344 3.42149C94.9551 6.15543 99.5312 6.96232 103.681 5.56319C109.38 3.64151 115.65 5.92364 118.78 11.0591C121.06 14.798 125.084 17.1214 129.462 17.2258C135.474 17.3693 140.586 21.6583 141.771 27.5547C142.634 31.8477 145.621 35.4073 149.699 37.0027C155.3 39.194 158.636 44.9725 157.733 50.9188C157.076 55.2481 158.665 59.6146 161.952 62.5085C166.465 66.4832 167.624 73.0544 164.742 78.3332C162.643 82.1766 162.643 86.8234 164.742 90.6668C167.624 95.9456 166.465 102.517 161.952 106.492C158.665 109.385 157.076 113.752 157.733 118.081C158.636 124.027 155.3 129.806 149.699 131.997C145.621 133.593 142.634 137.152 141.771 141.445C140.586 147.342 135.474 151.631 129.462 151.774C125.084 151.879 121.06 154.202 118.78 157.941C115.65 163.076 109.38 165.358 103.681 163.437C99.5312 162.038 94.9551 162.845 91.5344 165.579C86.8363 169.334 80.1637 169.334 75.4656 165.579C72.0449 162.845 67.4688 162.038 63.3194 163.437C57.6203 165.358 51.3502 163.076 48.2196 157.941C45.9403 154.202 41.9162 151.879 37.5385 151.774C31.5258 151.631 26.4144 147.342 25.229 141.445C24.366 137.152 21.3791 133.593 17.3012 131.997C11.7001 129.806 8.3639 124.027 9.26674 118.081C9.92408 113.752 8.33481 109.385 5.04842 106.492C0.534636 102.517 -0.624034 95.9456 2.25809 90.6668C4.3565 86.8234 4.3565 82.1766 2.25809 78.3332C-0.624034 73.0544 0.534636 66.4833 5.04842 62.5085C8.33481 59.6146 9.92408 55.2481 9.26674 50.9188C8.3639 44.9725 11.7001 39.194 17.3012 37.0027C21.3791 35.4073 24.366 31.8477 25.229 27.5547C26.4144 21.6583 31.5258 17.3693 37.5385 17.2258C41.9162 17.1214 45.9403 14.798 48.2196 11.0591C51.3502 5.92364 57.6203 3.64151 63.3194 5.56319C67.4688 6.96232 72.0449 6.15543 75.4656 3.42149Z" fill="url(#paint0_linear)"/>
<defs>
<linearGradient id="paint0_linear" x1="38.4998" y1="134.5" x2="319.5" y2="-70.0002" gradientUnits="userSpaceOnUse">
<stop stop-color="#00E0FF"/>
<stop offset="0.235517" stop-color="#DB00FF"/>
<stop offset="0.437882" stop-color="#00FFFF"/>
</linearGradient>
</defs>
</svg>
