<svg width="112" height="112" viewBox="0 0 112 112" fill="none" xmlns="http://www.w3.org/2000/svg">
<g filter="url(#filter0_d)">
<path d="M92.5257 50.8564C92.5257 71.0326 76.1697 87.3886 55.9935 87.3886C35.8173 87.3886 19.4613 71.0326 19.4613 50.8564C19.4613 30.6802 35.8173 14.3242 55.9935 14.3242C76.1697 14.3242 92.5257 30.6802 92.5257 50.8564Z" fill="#5CBCEB"/>
</g>
<path fill-rule="evenodd" clip-rule="evenodd" d="M67.4442 30.8124C67.8418 31.04 67.9781 31.544 67.7485 31.9381L66.5119 34.0612C66.2823 34.4553 65.7739 34.5904 65.3762 34.3628C64.9786 34.1352 64.8423 33.6312 65.0719 33.2371L66.3085 31.114C66.5381 30.7199 67.0465 30.5848 67.4442 30.8124Z" fill="white"/>
<path fill-rule="evenodd" clip-rule="evenodd" d="M44.4052 30.8124C44.0075 31.04 43.8713 31.544 44.1009 31.9381L45.3375 34.0612C45.567 34.4553 46.0755 34.5904 46.4731 34.3628C46.8708 34.1352 47.007 33.6312 46.7775 33.2371L45.5409 31.114C45.3113 30.7199 44.8028 30.5848 44.4052 30.8124Z" fill="white"/>
<path fill-rule="evenodd" clip-rule="evenodd" d="M55.9502 25.9219C56.4093 25.9219 56.7815 26.2908 56.7815 26.746V31.894C56.7815 32.3492 56.4093 32.7181 55.9502 32.7181C55.491 32.7181 55.1188 32.3492 55.1188 31.894V26.746C55.1188 26.2908 55.491 25.9219 55.9502 25.9219Z" fill="white"/>
<path fill-rule="evenodd" clip-rule="evenodd" d="M32.8564 35.2337C33.1811 34.9118 33.7075 34.9118 34.0321 35.2337L37.7046 38.8739C38.0293 39.1957 38.0293 39.7175 37.7046 40.0393C37.3799 40.3612 36.8535 40.3612 36.5289 40.0393L32.8564 36.3991C32.5317 36.0773 32.5317 35.5555 32.8564 35.2337Z" fill="white"/>
<path fill-rule="evenodd" clip-rule="evenodd" d="M78.7594 35.2337C78.4348 34.9118 77.9084 34.9118 77.5837 35.2337L73.9112 38.8739C73.5865 39.1957 73.5865 39.7175 73.9112 40.0393C74.2359 40.3612 74.7623 40.3612 75.087 40.0393L78.7594 36.3991C79.0841 36.0773 79.0841 35.5555 78.7594 35.2337Z" fill="white"/>
<path fill-rule="evenodd" clip-rule="evenodd" d="M43.9741 63.7665C43.9741 63.309 44.345 62.9381 44.8025 62.9381H49.4846C49.9422 62.9381 50.313 63.309 50.313 63.7665C50.313 64.224 49.9422 64.5949 49.4846 64.5949H44.8025C44.345 64.5949 43.9741 64.224 43.9741 63.7665ZM43.9741 67.7093C43.9741 67.2518 44.345 66.8809 44.8025 66.8809H51.4561C51.9136 66.8809 52.2845 67.2518 52.2845 67.7093C52.2845 68.1668 51.9136 68.5377 51.4561 68.5377H44.8025C44.345 68.5377 43.9741 68.1668 43.9741 67.7093Z" fill="white"/>
<path fill-rule="evenodd" clip-rule="evenodd" d="M53.1129 44.9698V49.1421L54.7703 48.4055C55.4843 48.0882 56.2993 48.0882 57.0132 48.4055L58.6707 49.1421V44.9698H53.1129ZM52.5606 43.313C51.9506 43.313 51.4561 43.8075 51.4561 44.4175V49.9919C51.4561 50.7912 52.2788 51.3259 53.0092 51.0013L55.4432 49.9195C55.7288 49.7925 56.0548 49.7925 56.3403 49.9195L58.7743 51.0013C59.5047 51.3259 60.3275 50.7912 60.3275 49.9919V44.4175C60.3275 43.8075 59.8329 43.313 59.2229 43.313H52.5606Z" fill="white"/>
<path fill-rule="evenodd" clip-rule="evenodd" d="M39.24 44.4774C39.24 43.3794 40.1301 42.4893 41.2282 42.4893H69.9458C71.0439 42.4893 71.934 43.3794 71.934 44.4774V73.1951C71.934 74.2931 71.0439 75.1832 69.9458 75.1832H41.2282C40.1301 75.1832 39.24 74.2931 39.24 73.1951V44.4774ZM41.2282 44.2565C41.1062 44.2565 41.0073 44.3554 41.0073 44.4774V73.1951C41.0073 73.3171 41.1062 73.416 41.2282 73.416H69.9458C70.0678 73.416 70.1667 73.3171 70.1667 73.1951V44.4774C70.1667 44.3554 70.0678 44.2565 69.9458 44.2565H41.2282Z" fill="white"/>
<defs>
<filter id="filter0_d" x="0.461304" y="0.324219" width="111.064" height="111.064" filterUnits="userSpaceOnUse" color-interpolation-filters="sRGB">
<feFlood flood-opacity="0" result="BackgroundImageFix"/>
<feColorMatrix in="SourceAlpha" type="matrix" values="0 0 0 0 0 0 0 0 0 0 0 0 0 0 0 0 0 0 127 0"/>
<feOffset dy="5"/>
<feGaussianBlur stdDeviation="9.5"/>
<feColorMatrix type="matrix" values="0 0 0 0 0.0963368 0 0 0 0 0.532362 0 0 0 0 0.745833 0 0 0 0.46 0"/>
<feBlend mode="normal" in2="BackgroundImageFix" result="effect1_dropShadow"/>
<feBlend mode="normal" in="SourceGraphic" in2="effect1_dropShadow" result="shape"/>
</filter>
</defs>
</svg>
