<svg width="112" height="112" viewBox="0 0 112 112" fill="none" xmlns="http://www.w3.org/2000/svg">
<g filter="url(#filter0_d)">
<path d="M92.5257 50.5322C92.5257 70.7083 76.1697 87.0644 55.9935 87.0644C35.8173 87.0644 19.4613 70.7083 19.4613 50.5322C19.4613 30.356 35.8173 14 55.9935 14C76.1697 14 92.5257 30.356 92.5257 50.5322Z" fill="#5CBCEB"/>
</g>
<path fill-rule="evenodd" clip-rule="evenodd" d="M29.6903 39.8967C29.6903 38.1033 31.1442 36.6494 32.9376 36.6494H79.3277C81.1211 36.6494 82.575 38.1033 82.575 39.8967V58.4527C82.575 60.2462 81.1211 61.7001 79.3277 61.7001H75.8484V59.8444H79.3277C80.0963 59.8444 80.7194 59.2214 80.7194 58.4527V39.8967C80.7194 39.1281 80.0963 38.505 79.3277 38.505H32.9376C32.169 38.505 31.5459 39.1281 31.5459 39.8967V58.4527C31.5459 59.2214 32.169 59.8444 32.9376 59.8444H57.8723V61.7001H32.9376C31.1442 61.7001 29.6903 60.2462 29.6903 58.4527V39.8967Z" fill="white"/>
<path fill-rule="evenodd" clip-rule="evenodd" d="M65.8801 59.3667L70.77 64.2557L72.3739 62.6517L67.4849 57.7619L69.6429 55.6039L60.7615 52.6433L63.7221 61.5247L65.8801 59.3667ZM63.0662 64.3041C62.8136 64.2442 62.6106 64.0588 62.5289 63.8128L58.3002 51.1273C58.2104 50.8586 58.2804 50.5623 58.4805 50.3622C58.6798 50.1629 58.9769 50.0899 59.2455 50.1819L71.9311 54.4107C72.1771 54.4924 72.3625 54.6954 72.4223 54.9479C72.4815 55.1998 72.4063 55.4647 72.2231 55.648L70.109 57.762L74.4696 62.1232C74.7616 62.4152 74.7616 62.8883 74.4696 63.1803L71.2986 66.3513C71.0065 66.6434 70.5335 66.6434 70.2415 66.3513L65.8802 61.9908L63.7662 64.1048C63.5837 64.2873 63.3188 64.3625 63.0662 64.3041Z" fill="white"/>
<path d="M58.8916 47.0361C58.4784 47.0361 58.1441 46.7018 58.1441 46.2886V41.8036C58.1441 41.3905 58.4784 41.0562 58.8916 41.0562C59.3047 41.0562 59.6391 41.3905 59.6391 41.8036V46.2886C59.6391 46.7018 59.3047 47.0361 58.8916 47.0361Z" fill="white"/>
<path d="M55.192 48.1309L52.0203 44.9591C51.7283 44.6671 51.7283 44.1941 52.0203 43.9021C52.3122 43.6101 52.7853 43.6101 53.0773 43.9021L56.249 47.0738C56.541 47.3658 56.541 47.8389 56.249 48.1308C55.957 48.4228 55.484 48.4228 55.192 48.1309Z" fill="white"/>
<path d="M52.0203 57.645C51.7283 57.353 51.7283 56.8799 52.0203 56.588L55.192 53.4162C55.484 53.1243 55.957 53.1243 56.249 53.4162C56.541 53.7082 56.541 54.1813 56.249 54.4733L53.0773 57.645C52.7853 57.937 52.3123 57.937 52.0203 57.645Z" fill="white"/>
<path d="M61.5339 48.1308C61.242 47.8389 61.242 47.3658 61.5339 47.0738L64.7057 43.9021C64.9976 43.6101 65.4707 43.6101 65.7627 43.9021C66.0547 44.1941 66.0547 44.6671 65.7627 44.9591L62.5909 48.1308C62.299 48.4228 61.826 48.4228 61.5339 48.1308Z" fill="white"/>
<path d="M54.4066 51.5209H49.9216C49.5084 51.5209 49.1741 51.1865 49.1741 50.7734C49.1741 50.3602 49.5084 50.0259 49.9216 50.0259H54.4066C54.8197 50.0259 55.1541 50.3602 55.1541 50.7734C55.1541 51.1865 54.8197 51.5209 54.4066 51.5209Z" fill="white"/>
<defs>
<filter id="filter0_d" x="0.461304" y="0" width="111.064" height="111.064" filterUnits="userSpaceOnUse" color-interpolation-filters="sRGB">
<feFlood flood-opacity="0" result="BackgroundImageFix"/>
<feColorMatrix in="SourceAlpha" type="matrix" values="0 0 0 0 0 0 0 0 0 0 0 0 0 0 0 0 0 0 127 0"/>
<feOffset dy="5"/>
<feGaussianBlur stdDeviation="9.5"/>
<feColorMatrix type="matrix" values="0 0 0 0 0.0963368 0 0 0 0 0.532362 0 0 0 0 0.745833 0 0 0 0.46 0"/>
<feBlend mode="normal" in2="BackgroundImageFix" result="effect1_dropShadow"/>
<feBlend mode="normal" in="SourceGraphic" in2="effect1_dropShadow" result="shape"/>
</filter>
</defs>
</svg>
