<svg width="112" height="112" viewBox="0 0 112 112" fill="none" xmlns="http://www.w3.org/2000/svg">
<g filter="url(#filter0_d)">
<path d="M92.2325 50.5977C92.2325 70.7744 75.876 87.1309 55.6993 87.1309C35.5226 87.1309 19.1661 70.7744 19.1661 50.5977C19.1661 30.4209 35.5226 14.0645 55.6993 14.0645C75.876 14.0645 92.2325 30.4209 92.2325 50.5977Z" fill="#5CBCEB"/>
</g>
<mask id="mask0" mask-type="alpha" maskUnits="userSpaceOnUse" x="19" y="14" width="74" height="74">
<path d="M92.2325 50.5977C92.2325 70.7744 75.876 87.1309 55.6993 87.1309C35.5226 87.1309 19.1661 70.7744 19.1661 50.5977C19.1661 30.4209 35.5226 14.0645 55.6993 14.0645C75.876 14.0645 92.2325 30.4209 92.2325 50.5977Z" fill="#E9FCFC"/>
</mask>
<g mask="url(#mask0)">
<path d="M67.7965 48.9585C67.9231 48.8227 67.9853 48.6396 67.9653 48.4548L66.8745 38.4067C66.8381 38.072 66.5494 37.8286 66.2178 37.8286H64.4009V37.6097C64.4009 36.0642 63.1036 34.8203 61.5252 34.8203C59.9466 34.8203 58.6493 36.0642 58.6493 37.6097V37.8286H56.8324C56.5008 37.8286 56.2121 38.0721 56.1757 38.4068L55.0849 48.4548C55.0649 48.6397 55.1275 48.8228 55.2536 48.9585C55.3796 49.0938 55.5572 49.1694 55.7416 49.1694H67.3085C67.4929 49.1694 67.6705 49.0938 67.7965 48.9585L67.6259 48.7995H55.4242C55.3433 48.7125 55.3042 48.5963 55.3168 48.4799L56.4076 38.4319C56.4304 38.2216 56.6137 38.0619 56.8324 38.0619H58.8825V37.6097C58.8825 36.2003 60.068 35.0535 61.5252 35.0535C62.9822 35.0535 64.1677 36.2003 64.1677 37.6097V38.0619H66.2178C66.4365 38.0619 66.6198 38.2216 66.6427 38.4319L67.7334 48.4799L67.6259 48.7995L67.7965 48.9585Z" fill="white"/>
<path fill-rule="evenodd" clip-rule="evenodd" d="M59.7368 37.6097C59.7368 36.6559 60.5391 35.8799 61.5252 35.8799C62.5112 35.8799 63.3134 36.6559 63.3134 37.6097V38.0619H59.7368V37.6097ZM61.5252 36.1131C60.6605 36.1131 59.97 36.792 59.97 37.6097V37.8286H63.0802V37.6097C63.0802 36.792 62.3897 36.1131 61.5252 36.1131Z" fill="white"/>
<path fill-rule="evenodd" clip-rule="evenodd" d="M63.7405 40.212C63.9764 40.212 64.1677 40.0269 64.1677 39.7988V38.8882H65.8332L66.8343 48.1098H56.2159L57.217 38.8882H58.8825V39.7988C58.8825 40.0269 59.0738 40.212 59.3097 40.212C59.5455 40.212 59.7368 40.0269 59.7368 39.7988V38.8882H63.3134V39.7988C63.3134 40.0269 63.5047 40.212 63.7405 40.212ZM56.4758 47.8766H66.5744L65.6239 39.1214H64.4009V39.7988C64.4009 40.163 64.0978 40.4452 63.7405 40.4452C63.3833 40.4452 63.0802 40.163 63.0802 39.7988V39.1214H59.97V39.7988C59.97 40.163 59.667 40.4452 59.3097 40.4452C58.9524 40.4452 58.6493 40.163 58.6493 39.7988V39.1214H57.4263L56.4758 47.8766Z" fill="white"/>
<path fill-rule="evenodd" clip-rule="evenodd" d="M67.7334 48.4799L66.6427 38.4319C66.6198 38.2216 66.4365 38.0619 66.2178 38.0619H64.1677V37.6097C64.1677 36.2003 62.9822 35.0535 61.5252 35.0535C60.068 35.0535 58.8825 36.2003 58.8825 37.6097V38.0619H56.8324C56.6137 38.0619 56.4304 38.2216 56.4076 38.4319L55.3168 48.4799L55.4242 48.7995H67.6259L67.7334 48.4799ZM64.1677 39.7988C64.1677 40.0269 63.9764 40.212 63.7405 40.212C63.5047 40.212 63.3134 40.0269 63.3134 39.7988V38.8882H59.7368V39.7988C59.7368 40.0269 59.5455 40.212 59.3097 40.212C59.0738 40.212 58.8825 40.0269 58.8825 39.7988V38.8882H57.217L56.2159 48.1098H66.8343L65.8332 38.8882H64.1677V39.7988ZM61.5252 35.8799C60.5391 35.8799 59.7368 36.6559 59.7368 37.6097V38.0619H63.3134V37.6097C63.3134 36.6559 62.5112 35.8799 61.5252 35.8799Z" fill="white"/>
<path d="M77.3095 30.2974H44.7957C43.4162 30.2974 42.2939 31.4198 42.2939 32.7992V53.4331C42.2939 53.7782 42.574 54.0584 42.9191 54.0584H79.186C79.5311 54.0584 79.8112 53.7782 79.8112 53.4331V32.7992C79.8113 31.4198 78.6889 30.2974 77.3095 30.2974ZM78.5607 52.8078H43.5445V32.7992C43.5445 32.1088 44.106 31.548 44.7957 31.548H77.3095C77.9992 31.548 78.5607 32.1088 78.5607 32.7992V52.8078Z" fill="white"/>
<path fill-rule="evenodd" clip-rule="evenodd" d="M44.7957 30.064H77.3095C78.8177 30.064 80.0445 31.2908 80.0444 32.799V53.4329C80.0444 53.9068 79.6599 54.2914 79.186 54.2914H42.9191C42.4452 54.2914 42.0606 53.9068 42.0606 53.4329V32.799C42.0606 31.2908 43.2874 30.064 44.7957 30.064ZM43.7777 52.5744H78.3275V32.799C78.3275 32.2375 77.8705 31.781 77.3095 31.781H44.7957C44.2347 31.781 43.7777 32.2375 43.7777 32.799V52.5744ZM44.7957 30.2972H77.3095C78.6889 30.2972 79.8113 31.4196 79.8112 32.799V53.4329C79.8112 53.778 79.5311 54.0582 79.186 54.0582H42.9191C42.574 54.0582 42.2939 53.778 42.2939 53.4329V32.799C42.2939 31.4196 43.4162 30.2972 44.7957 30.2972ZM78.5607 52.8076V32.799C78.5607 32.1086 77.9992 31.5478 77.3095 31.5478H44.7957C44.106 31.5478 43.5445 32.1086 43.5445 32.799V52.8076H78.5607Z" fill="white"/>
<path d="M79.1868 52.8091H42.9199C42.5747 52.8091 42.2946 53.0892 42.2946 53.4343V56.5602C42.2946 57.9396 43.417 59.062 44.7964 59.062H77.3102C78.6897 59.062 79.812 57.9396 79.812 56.5602V53.4343C79.812 53.0892 79.5319 52.8091 79.1868 52.8091ZM78.5614 56.5602C78.5614 57.2506 77.9999 57.8114 77.3102 57.8114H44.7964C44.1067 57.8114 43.5452 57.2506 43.5452 56.5602V54.0597H78.5615V56.5602H78.5614Z" fill="white"/>
<path fill-rule="evenodd" clip-rule="evenodd" d="M78.3276 56.3264V54.2922H43.7777V56.5596C43.7777 57.121 44.2347 57.5775 44.7957 57.5775H77.3095C77.8705 57.5775 78.3275 57.121 78.3275 56.5596L78.3276 56.3264ZM78.5608 56.5596V54.059H43.5445V56.5596C43.5445 57.2499 44.106 57.8108 44.7957 57.8108H77.3095C77.9992 57.8108 78.5608 57.2499 78.5608 56.5596ZM42.9191 52.5752H79.186C79.66 52.5752 80.0445 52.9597 80.0445 53.4337V56.5595C80.0445 58.0677 78.8177 59.2945 77.3095 59.2945H44.7957C43.2874 59.2945 42.0606 58.0677 42.0606 56.5595V53.4337C42.0606 52.9597 42.4452 52.5752 42.9191 52.5752ZM42.9191 52.8084H79.186C79.5312 52.8084 79.8113 53.0885 79.8113 53.4337V56.5595C79.8113 57.9389 78.6889 59.0613 77.3095 59.0613H44.7957C43.4162 59.0613 42.2939 57.9389 42.2939 56.5595V53.4337C42.2939 53.0885 42.574 52.8084 42.9191 52.8084Z" fill="white"/>
<path d="M69.1819 62.8125H52.9244C51.8902 62.8125 51.0485 63.6542 51.0485 64.6884C51.0485 65.7226 51.8902 66.5642 52.9244 66.5642H69.182C70.2162 66.5642 71.0579 65.7226 71.0579 64.6884C71.0579 63.6542 70.2161 62.8125 69.1819 62.8125ZM69.1819 65.3136H52.9244C52.5793 65.3136 52.2991 65.0329 52.2991 64.6884C52.2991 64.3438 52.5793 64.0631 52.9244 64.0631H69.182C69.5271 64.0631 69.8072 64.3438 69.8072 64.6884C69.8072 65.0329 69.5271 65.3136 69.1819 65.3136Z" fill="white"/>
<path fill-rule="evenodd" clip-rule="evenodd" d="M52.9237 62.5786H69.1812C70.3442 62.5786 71.2904 63.5247 71.2904 64.6877C71.2904 65.8507 70.3443 66.7968 69.1813 66.7968H52.9237C51.7607 66.7968 50.8146 65.8507 50.8146 64.6877C50.8146 63.5247 51.7607 62.5786 52.9237 62.5786ZM52.9237 65.0798H69.1812C69.3975 65.0798 69.5733 64.9036 69.5733 64.6877C69.5733 64.4718 69.3975 64.2957 69.1813 64.2957H52.9237C52.7075 64.2957 52.5316 64.4718 52.5316 64.6877C52.5316 64.9036 52.7075 65.0798 52.9237 65.0798ZM52.9237 62.8118H69.1812C70.2154 62.8118 71.0571 63.6535 71.0571 64.6877C71.0571 65.7219 70.2155 66.5636 69.1813 66.5636H52.9237C51.8895 66.5636 51.0478 65.7219 51.0478 64.6877C51.0478 63.6535 51.8895 62.8118 52.9237 62.8118ZM52.9237 65.313H69.1812C69.5264 65.313 69.8065 65.0322 69.8065 64.6877C69.8065 64.3432 69.5264 64.0624 69.1813 64.0624H52.9237C52.5785 64.0624 52.2984 64.3432 52.2984 64.6877C52.2984 65.0322 52.5785 65.313 52.9237 65.313Z" fill="white"/>
<path d="M67.9316 62.8133C65.8569 62.8133 64.8051 61.3408 64.8051 58.4363C64.8051 58.0912 64.525 57.811 64.1799 57.811H57.927C57.5819 57.811 57.3017 58.0912 57.3017 58.4363C57.3017 61.3408 56.25 62.8133 54.1752 62.8133C53.8301 62.8133 53.55 63.0934 53.55 63.4386C53.55 63.7837 53.8301 64.0638 54.1752 64.0638H61.0534H67.9316C68.2767 64.0638 68.5569 63.7837 68.5569 63.4386C68.5569 63.0934 68.2767 62.8133 67.9316 62.8133ZM57.221 62.8133C57.9907 61.9604 58.444 60.6904 58.5353 59.0616H63.572C63.6627 60.6904 64.116 61.9604 64.8864 62.8133H61.0537H57.221Z" fill="white"/>
<path fill-rule="evenodd" clip-rule="evenodd" d="M65.7794 61.5778C66.2508 62.2378 66.9558 62.5794 67.9309 62.5794C68.4048 62.5794 68.7894 62.964 68.7894 63.4379C68.7894 63.9118 68.4048 64.2964 67.9309 64.2964H54.1745C53.7006 64.2964 53.316 63.9118 53.316 63.4379C53.316 62.964 53.7006 62.5794 54.1745 62.5794C55.1496 62.5794 55.8546 62.2378 56.326 61.5778C56.8075 60.9037 57.0678 59.8665 57.0678 58.4356C57.0678 57.9617 57.4523 57.5771 57.9263 57.5771H64.1791C64.6531 57.5771 65.0376 57.9617 65.0376 58.4356C65.0376 59.8665 65.2979 60.9037 65.7794 61.5778ZM57.2202 62.8126H64.8857C64.8183 62.7381 64.7534 62.6603 64.6909 62.5794C64.0388 61.735 63.654 60.5473 63.5713 59.0609H58.5346C58.4513 60.5473 58.0665 61.735 57.4148 62.5794C57.3524 62.6603 57.2875 62.7381 57.2202 62.8126ZM57.7049 62.5794H64.4008C63.8086 61.7445 63.4561 60.633 63.353 59.2941H58.7528C58.6493 60.633 58.2967 61.7445 57.7049 62.5794ZM64.8044 58.4356C64.8044 61.3401 65.8561 62.8126 67.9309 62.8126C68.276 62.8126 68.5561 63.0928 68.5561 63.4379C68.5561 63.783 68.276 64.0632 67.9309 64.0632H54.1745C53.8294 64.0632 53.5492 63.783 53.5492 63.4379C53.5492 63.0928 53.8294 62.8126 54.1745 62.8126C56.2493 62.8126 57.301 61.3401 57.301 58.4356C57.301 58.0905 57.5811 57.8104 57.9263 57.8104H64.1791C64.5243 57.8104 64.8044 58.0905 64.8044 58.4356Z" fill="white"/>
<path d="M37.215 48.3608H38.3387V49.4845H37.215V48.3608Z" fill="white"/>
<rect x="33.0487" y="46.9443" width="17.5359" height="27.0346" rx="3" fill="#5CBCEB"/>
<path d="M39.4625 49.6532C39.4625 49.3429 39.714 49.0913 40.0243 49.0913H43.3954C43.7057 49.0913 43.9573 49.3429 43.9573 49.6532C43.9573 49.9635 43.7057 50.215 43.3954 50.215H40.0243C39.714 50.215 39.4625 49.9635 39.4625 49.6532Z" fill="white"/>
<path d="M35.6284 47.5229H47.6146C48.7828 47.5229 49.7298 48.4699 49.7298 49.6381V70.7902C49.7298 71.9584 48.7828 72.9054 47.6146 72.9054H36.1572L36.686 74.3155H47.6146C49.5616 74.3155 51.1399 72.7372 51.1399 70.7902V49.6381C51.1399 47.6911 49.5616 46.1128 47.6146 46.1128H35.6284C33.6814 46.1128 32.1031 47.6911 32.1031 49.6381V70.7902H33.5132V49.6381C33.5132 48.4699 34.4602 47.5229 35.6284 47.5229Z" fill="white"/>
<path d="M37.0644 73.0818L38.996 69.7366L39.2196 69.2933C39.4428 68.7676 39.4569 68.1766 39.2591 67.6409C39.0614 67.1052 38.6666 66.6652 38.1555 66.4106C37.6443 66.156 37.0553 66.1061 36.5086 66.2711C35.9619 66.436 35.4987 66.8033 35.2136 67.2981L33.3033 70.6085C33.2895 70.4971 33.2824 70.3849 33.282 70.2726V60.8896H32.1583C31.8007 61.056 31.5129 61.3425 31.3447 61.6993L28.7945 67.2318C28.417 68.0434 28.2227 68.928 28.2253 69.8231V79.824H29.349V69.8231C29.3465 69.0912 29.5054 68.3678 29.8143 67.7043L32.1583 62.6185V70.2726C32.1579 70.9436 32.3299 71.6035 32.6578 72.189C32.7001 72.2838 32.7678 72.3649 32.8534 72.4235C32.939 72.4822 33.0391 72.5159 33.1428 72.5211C33.2464 72.5263 33.3494 72.5027 33.4404 72.4529C33.5314 72.4031 33.6069 72.3291 33.6584 72.239L36.1868 67.86C36.3368 67.604 36.5821 67.4177 36.8689 67.3419C37.1558 67.2661 37.4611 67.3068 37.718 67.4551C37.975 67.6035 38.1629 67.8475 38.2406 68.1339C38.3184 68.4202 38.2797 68.7257 38.133 68.9837L35.6047 73.3627C35.5545 73.4497 35.5284 73.5485 35.5293 73.6488C35.5302 73.7492 35.558 73.8476 35.6097 73.9336L36.8132 75.9338C37.9968 77.9066 34.9329 82.7779 33.282 83.4771C32.4193 83.8424 33.4907 84.2078 34.51 83.8424C36.6235 83.0849 39.1263 77.6031 37.7768 75.3551L37.0852 74.2055L37.0644 73.0818Z" fill="white"/>
<path d="M47.0115 65.2004C47.1146 65.09 47.1652 64.9412 47.1489 64.791L46.2607 56.6254C46.231 56.3534 45.996 56.1557 45.726 56.1557H44.2464V55.9777C44.2464 54.7218 43.19 53.7109 41.9046 53.7109C40.6192 53.7109 39.5628 54.7218 39.5628 55.9777V56.1557H38.0832C37.8132 56.1557 37.5781 56.3535 37.5485 56.6255L36.6602 64.791C36.6439 64.9413 36.6949 65.0901 36.7976 65.2004C36.9002 65.3103 37.0448 65.3717 37.195 65.3717H46.6141C46.7642 65.3717 46.9089 65.3103 47.0115 65.2004L46.8726 65.0712H36.9365C36.8706 65.0004 36.8388 64.906 36.849 64.8114L37.7373 56.6459C37.7559 56.475 37.9052 56.3452 38.0832 56.3452H39.7527V55.9777C39.7527 54.8324 40.7181 53.9005 41.9046 53.9005C43.0911 53.9005 44.0565 54.8324 44.0565 55.9777V56.3452H45.726C45.904 56.3452 46.0533 56.475 46.0719 56.6459L46.9601 64.8114L46.8726 65.0712L47.0115 65.2004Z" fill="white"/>
<path fill-rule="evenodd" clip-rule="evenodd" d="M40.4483 55.9777C40.4483 55.2027 41.1016 54.572 41.9046 54.572C42.7075 54.572 43.3608 55.2027 43.3608 55.9777V56.3452H40.4483V55.9777ZM41.9046 54.7615C41.2005 54.7615 40.6383 55.3132 40.6383 55.9777V56.1557H43.1709V55.9777C43.1709 55.3132 42.6086 54.7615 41.9046 54.7615Z" fill="white"/>
<path fill-rule="evenodd" clip-rule="evenodd" d="M43.7087 58.0925C43.9007 58.0925 44.0565 57.9421 44.0565 57.7567V57.0167H45.4127L46.2279 64.5107H37.5812L38.3965 57.0167H39.7527V57.7567C39.7527 57.9421 39.9085 58.0925 40.1005 58.0925C40.2926 58.0925 40.4483 57.9421 40.4483 57.7567V57.0167H43.3608V57.7567C43.3608 57.9421 43.5166 58.0925 43.7087 58.0925ZM37.7929 64.3211H46.0163L45.2423 57.2062H44.2464V57.7567C44.2464 58.0526 43.9996 58.282 43.7087 58.282C43.4177 58.282 43.1709 58.0526 43.1709 57.7567V57.2062H40.6383V57.7567C40.6383 58.0526 40.3915 58.282 40.1005 58.282C39.8096 58.282 39.5628 58.0526 39.5628 57.7567V57.2062H38.5669L37.7929 64.3211Z" fill="white"/>
<path fill-rule="evenodd" clip-rule="evenodd" d="M46.9601 64.8114L46.0719 56.6459C46.0533 56.475 45.904 56.3452 45.726 56.3452H44.0565V55.9777C44.0565 54.8324 43.0911 53.9005 41.9046 53.9005C40.7181 53.9005 39.7527 54.8324 39.7527 55.9777V56.3452H38.0832C37.9052 56.3452 37.7559 56.475 37.7373 56.6459L36.849 64.8114L36.9365 65.0712H46.8726L46.9601 64.8114ZM44.0565 57.7567C44.0565 57.9421 43.9007 58.0925 43.7087 58.0925C43.5166 58.0925 43.3608 57.9421 43.3608 57.7567V57.0167H40.4483V57.7567C40.4483 57.9421 40.2926 58.0925 40.1005 58.0925C39.9085 58.0925 39.7527 57.9421 39.7527 57.7567V57.0167H38.3965L37.5812 64.5107H46.2279L45.4127 57.0167H44.0565V57.7567ZM41.9046 54.572C41.1016 54.572 40.4483 55.2027 40.4483 55.9777V56.3452H43.3608V55.9777C43.3608 55.2027 42.7075 54.572 41.9046 54.572Z" fill="white"/>
</g>
<defs>
<filter id="filter0_d" x="0.166077" y="0.0644531" width="111.066" height="111.066" filterUnits="userSpaceOnUse" color-interpolation-filters="sRGB">
<feFlood flood-opacity="0" result="BackgroundImageFix"/>
<feColorMatrix in="SourceAlpha" type="matrix" values="0 0 0 0 0 0 0 0 0 0 0 0 0 0 0 0 0 0 127 0"/>
<feOffset dy="5"/>
<feGaussianBlur stdDeviation="9.5"/>
<feColorMatrix type="matrix" values="0 0 0 0 0.0963368 0 0 0 0 0.532362 0 0 0 0 0.745833 0 0 0 0.46 0"/>
<feBlend mode="normal" in2="BackgroundImageFix" result="effect1_dropShadow"/>
<feBlend mode="normal" in="SourceGraphic" in2="effect1_dropShadow" result="shape"/>
</filter>
</defs>
</svg>
