<svg width="112" height="112" viewBox="0 0 112 112" fill="none" xmlns="http://www.w3.org/2000/svg">
<g filter="url(#filter0_d)">
<path d="M92.5257 50.663C92.5257 70.8392 76.1697 87.1952 55.9935 87.1952C35.8173 87.1952 19.4613 70.8392 19.4613 50.663C19.4613 30.4869 35.8173 14.1309 55.9935 14.1309C76.1697 14.1309 92.5257 30.4869 92.5257 50.663Z" fill="#5CBCEB"/>
</g>
<path fill-rule="evenodd" clip-rule="evenodd" d="M56.2115 36.4445C53.0367 36.4445 50.1738 39.2268 50.1888 42.9206L50.1888 42.9243C50.1888 46.6984 53.0389 49.532 56.2115 49.532C59.381 49.532 62.2326 46.7016 62.2326 42.8889C62.2326 39.1605 59.3913 36.4445 56.2115 36.4445ZM48.3332 42.9262C48.3153 38.2742 51.9422 34.5889 56.2115 34.5889C60.4762 34.5889 64.0882 38.1968 64.0882 42.8889C64.0882 47.6046 60.5235 51.3876 56.2115 51.3876C51.903 51.3876 48.3341 47.6088 48.3332 42.9262ZM44.9311 56.3808C47.6305 54.1758 51.4965 52.5847 56.2115 52.5847C60.9177 52.5847 64.7791 54.1761 67.4759 56.381C70.1434 58.5619 71.7545 61.4222 71.7545 63.9928C71.7545 64.9847 71.4098 65.8952 70.4935 66.4946C69.6674 67.035 68.501 67.2328 67.0674 67.2328H45.337C43.9034 67.2328 42.7371 67.035 41.911 66.4946C40.9947 65.8952 40.6499 64.9847 40.6499 63.9928C40.6499 61.4221 42.2611 58.5617 44.9311 56.3808ZM46.105 57.8179C43.7092 59.7749 42.5056 62.1546 42.5056 63.9928C42.5056 64.5188 42.6558 64.7644 42.9267 64.9417C43.2879 65.1779 44.0012 65.3772 45.337 65.3772H67.0674C68.4032 65.3772 69.1165 65.1779 69.4777 64.9417C69.7487 64.7644 69.8989 64.5188 69.8989 63.9928C69.8989 62.1545 68.6951 59.7747 66.3014 57.8176C63.937 55.8845 60.4908 54.4403 56.2115 54.4403C51.9224 54.4403 48.4715 55.8848 46.105 57.8179Z" fill="white"/>
<defs>
<filter id="filter0_d" x="0.461304" y="0.130859" width="111.064" height="111.064" filterUnits="userSpaceOnUse" color-interpolation-filters="sRGB">
<feFlood flood-opacity="0" result="BackgroundImageFix"/>
<feColorMatrix in="SourceAlpha" type="matrix" values="0 0 0 0 0 0 0 0 0 0 0 0 0 0 0 0 0 0 127 0"/>
<feOffset dy="5"/>
<feGaussianBlur stdDeviation="9.5"/>
<feColorMatrix type="matrix" values="0 0 0 0 0.0963368 0 0 0 0 0.532362 0 0 0 0 0.745833 0 0 0 0.46 0"/>
<feBlend mode="normal" in2="BackgroundImageFix" result="effect1_dropShadow"/>
<feBlend mode="normal" in="SourceGraphic" in2="effect1_dropShadow" result="shape"/>
</filter>
</defs>
</svg>
