<svg width="112" height="112" viewBox="0 0 112 112" fill="none" xmlns="http://www.w3.org/2000/svg">
<g filter="url(#filter0_d)">
<path d="M92.5257 50.7275C92.5257 70.9037 76.1697 87.2597 55.9935 87.2597C35.8173 87.2597 19.4613 70.9037 19.4613 50.7275C19.4613 30.5513 35.8173 14.1953 55.9935 14.1953C76.1697 14.1953 92.5257 30.5513 92.5257 50.7275Z" fill="#5CBCEB"/>
</g>
<path fill-rule="evenodd" clip-rule="evenodd" d="M39.409 36.2305C39.409 35.7181 39.8244 35.3027 40.3368 35.3027H43.9217C44.8369 35.3027 45.6453 35.8988 45.9159 36.773L46.9878 40.236H75.7113C77.1444 40.236 78.1514 41.6469 77.6855 43.0022L73.0562 56.4691C72.7665 57.3121 71.9734 57.8781 71.0821 57.8781H52.0451C51.1299 57.8781 50.3215 57.282 50.0509 56.4078L44.1433 37.3217C44.1132 37.2246 44.0234 37.1583 43.9217 37.1583H40.3368C39.8244 37.1583 39.409 36.7429 39.409 36.2305ZM47.5621 42.0916L51.8235 55.8591C51.8536 55.9562 51.9434 56.0225 52.0451 56.0225H71.0821C71.1811 56.0225 71.2692 55.9596 71.3014 55.8659L75.9307 42.399C75.9825 42.2484 75.8706 42.0916 75.7113 42.0916H47.5621Z" fill="white"/>
<path fill-rule="evenodd" clip-rule="evenodd" d="M54.6433 67.4279C56.3431 67.4279 57.721 66.05 57.721 64.3503C57.721 62.6505 56.3431 61.2726 54.6433 61.2726C52.9436 61.2726 51.5657 62.6505 51.5657 64.3503C51.5657 66.05 52.9436 67.4279 54.6433 67.4279ZM54.6433 69.2835C57.3679 69.2835 59.5766 67.0748 59.5766 64.3503C59.5766 61.6257 57.3679 59.417 54.6433 59.417C51.9188 59.417 49.7101 61.6257 49.7101 64.3503C49.7101 67.0748 51.9188 69.2835 54.6433 69.2835Z" fill="white"/>
<path fill-rule="evenodd" clip-rule="evenodd" d="M69.4431 67.4279C71.1429 67.4279 72.5208 66.05 72.5208 64.3503C72.5208 62.6505 71.1429 61.2726 69.4431 61.2726C67.7434 61.2726 66.3655 62.6505 66.3655 64.3503C66.3655 66.05 67.7434 67.4279 69.4431 67.4279ZM69.4431 69.2835C72.1677 69.2835 74.3764 67.0748 74.3764 64.3503C74.3764 61.6257 72.1677 59.417 69.4431 59.417C66.7186 59.417 64.5099 61.6257 64.5099 64.3503C64.5099 67.0748 66.7186 69.2835 69.4431 69.2835Z" fill="white"/>
<path fill-rule="evenodd" clip-rule="evenodd" d="M30.131 51.8873C30.131 51.3749 30.5464 50.9595 31.0588 50.9595H45.5557C46.0681 50.9595 46.4835 51.3749 46.4835 51.8873C46.4835 52.3997 46.0681 52.8151 45.5557 52.8151H31.0588C30.5464 52.8151 30.131 52.3997 30.131 51.8873Z" fill="white"/>
<path fill-rule="evenodd" clip-rule="evenodd" d="M35.3499 47.8282C35.3499 47.3158 35.7653 46.9004 36.2777 46.9004H43.8161C44.3285 46.9004 44.7439 47.3158 44.7439 47.8282C44.7439 48.3406 44.3285 48.756 43.8161 48.756H36.2777C35.7653 48.756 35.3499 48.3406 35.3499 47.8282Z" fill="white"/>
<defs>
<filter id="filter0_d" x="0.461304" y="0.195312" width="111.064" height="111.064" filterUnits="userSpaceOnUse" color-interpolation-filters="sRGB">
<feFlood flood-opacity="0" result="BackgroundImageFix"/>
<feColorMatrix in="SourceAlpha" type="matrix" values="0 0 0 0 0 0 0 0 0 0 0 0 0 0 0 0 0 0 127 0"/>
<feOffset dy="5"/>
<feGaussianBlur stdDeviation="9.5"/>
<feColorMatrix type="matrix" values="0 0 0 0 0.0963368 0 0 0 0 0.532362 0 0 0 0 0.745833 0 0 0 0.46 0"/>
<feBlend mode="normal" in2="BackgroundImageFix" result="effect1_dropShadow"/>
<feBlend mode="normal" in="SourceGraphic" in2="effect1_dropShadow" result="shape"/>
</filter>
</defs>
</svg>
