<svg width="112" height="112" viewBox="0 0 112 112" fill="none" xmlns="http://www.w3.org/2000/svg">
<g filter="url(#filter0_d)">
<path d="M92.0644 50.7919C92.0644 70.9681 75.7083 87.3241 55.5322 87.3241C35.356 87.3241 19 70.9681 19 50.7919C19 30.6158 35.356 14.2598 55.5322 14.2598C75.7083 14.2598 92.0644 30.6158 92.0644 50.7919Z" fill="#5CBCEB"/>
</g>
<path d="M74.735 35.3662C74.7332 35.3362 74.7303 35.3069 74.7262 35.2775C74.7215 35.2487 74.7162 35.2206 74.7092 35.193C74.7021 35.1654 74.6939 35.1378 74.6839 35.1114C74.6739 35.0844 74.6634 35.0579 74.6504 35.0321C74.6381 35.0069 74.6252 34.9828 74.6105 34.9593C74.5958 34.9347 74.58 34.9112 74.563 34.8883C74.5459 34.866 74.5283 34.8443 74.5096 34.8237C74.4908 34.8032 74.4714 34.7832 74.4508 34.7644C74.4297 34.745 74.408 34.7268 74.3845 34.7098C74.3622 34.6934 74.3399 34.6775 74.3158 34.6634C74.2912 34.6482 74.2659 34.6347 74.2401 34.6223C74.2143 34.61 74.1884 34.5989 74.1614 34.5889C74.1344 34.5789 74.1074 34.5707 74.0792 34.5636C74.0505 34.556 74.0211 34.5501 73.9912 34.5454C73.9759 34.5431 73.9618 34.5378 73.9465 34.5366C66.951 33.8368 61.4801 32.4144 55.829 27.4947C55.4621 27.1753 54.9049 27.2141 54.5867 27.5804C54.5662 27.6039 54.5509 27.6303 54.5333 27.6556C48.8505 32.5588 44.1046 33.8638 37.3732 34.536C36.923 34.5812 36.5801 34.9599 36.5801 35.4125V56.0369C36.5801 56.115 36.5907 56.1925 36.6112 56.2676C40.1824 69.438 54.585 75.695 55.1961 75.955C55.3065 76.002 55.4239 76.0255 55.5407 76.0255C55.6564 76.0255 55.7732 76.0026 55.8818 75.9568C56.5006 75.6973 71.0681 69.4409 74.6393 56.2682C74.6516 56.2218 74.661 56.1749 74.6657 56.1267L74.735 55.4451C74.7379 55.4158 74.7397 55.3858 74.7397 55.3559V35.4131C74.7397 35.3961 74.7362 35.3814 74.735 35.3662ZM72.9209 55.8743C69.8388 67.0867 57.744 73.1547 55.5425 74.1768C53.3603 73.1518 41.4411 67.0973 38.3407 55.9171V36.2045C44.7216 35.4982 49.6706 34.0359 55.2795 29.3275C60.8379 33.9378 66.4291 35.4765 72.9779 36.2016V55.3101L72.9209 55.8743Z" fill="white"/>
<path d="M63.8789 46.2722H63.0335C62.5686 42.3723 59.2182 39.3359 55.1615 39.3359C51.1048 39.3359 47.7544 42.3723 47.2901 46.2722H46.2674C45.7813 46.2722 45.3868 46.6661 45.3868 47.1528V60.0683C45.3868 60.555 45.7813 60.9489 46.2674 60.9489H63.8795C64.3656 60.9489 64.7601 60.555 64.7601 60.0683V47.1528C64.7595 46.6661 64.365 46.2722 63.8789 46.2722ZM55.1609 41.0971C58.2442 41.0971 60.7991 43.3468 61.2529 46.2722H49.0689C49.5233 43.3468 52.0776 41.0971 55.1609 41.0971ZM62.9983 48.0334V59.1877H47.1474V48.0334H62.9983Z" fill="white"/>
<defs>
<filter id="filter0_d" x="0" y="0.259766" width="111.064" height="111.064" filterUnits="userSpaceOnUse" color-interpolation-filters="sRGB">
<feFlood flood-opacity="0" result="BackgroundImageFix"/>
<feColorMatrix in="SourceAlpha" type="matrix" values="0 0 0 0 0 0 0 0 0 0 0 0 0 0 0 0 0 0 127 0"/>
<feOffset dy="5"/>
<feGaussianBlur stdDeviation="9.5"/>
<feColorMatrix type="matrix" values="0 0 0 0 0.0963368 0 0 0 0 0.532362 0 0 0 0 0.745833 0 0 0 0.46 0"/>
<feBlend mode="normal" in2="BackgroundImageFix" result="effect1_dropShadow"/>
<feBlend mode="normal" in="SourceGraphic" in2="effect1_dropShadow" result="shape"/>
</filter>
</defs>
</svg>
