<svg fill="none" xmlns="http://www.w3.org/2000/svg" viewBox="0 0 63 63">
	<path d="M62.658 31.45c0 17.302-14.026 31.329-31.329 31.329C14.027 62.779 0 48.752 0 31.449 0 14.148 14.027.122 31.33.122c17.302 0 31.328 14.026 31.328 31.329z" fill="#00ABFF" />
	<path fill-rule="evenodd" clip-rule="evenodd" d="M48.94 32.544c1.552 1.37 2.778 3.357 2.778 6.154 0 3.768-1.436 6.083-3.118 7.461-1.65 1.352-3.475 1.753-4.234 1.835-.591.064-2.577.074-4.655.066a650.22 650.22 0 01-5.631-.05.213.213 0 00-.216.214c0 1.445-1.75 2.169-2.774 1.147l-4.277-4.27a1.642 1.642 0 010-2.325l4.246-4.238c1.035-1.033 2.805-.302 2.805 1.16 0 .123.095.22.213.225 1.181.053 3.357.14 5.394.165 1.02.012 1.996.01 2.792-.02.83-.032 1.372-.09 1.586-.157.254-.078.616-.293.957-.64.336-.342.61-.768.736-1.224a2.004 2.004 0 00-.128-1.437c-.246-.519-.758-1.115-1.73-1.717l.746-1.197c1.13.7 1.867 1.481 2.26 2.311a3.41 3.41 0 01.213 2.417c-.203.73-.62 1.358-1.089 1.834-.463.47-1.019.837-1.548 1-.422.13-1.154.188-1.95.218-.83.031-1.833.034-2.862.021-2.06-.025-4.254-.113-5.44-.166a1.634 1.634 0 01-1.563-1.634.23.23 0 00-.393-.163l-4.247 4.239a.235.235 0 000 .332l4.277 4.27a.213.213 0 00.364-.15c0-.905.74-1.635 1.646-1.624 1.238.016 3.516.042 5.618.05 2.131.007 4.008-.005 4.498-.058.577-.063 2.113-.395 3.49-1.523 1.345-1.102 2.602-3.012 2.602-6.372 0-2.328-1-3.95-2.301-5.098-1.32-1.166-2.952-1.844-4.156-2.214l.416-1.347c1.299.4 3.144 1.152 4.676 2.505zM20.899 35.134c0-.39.316-.705.706-.705h3.99a.705.705 0 110 1.41h-3.99a.705.705 0 01-.706-.705zm0 3.354c0-.389.316-.705.706-.705h5.671a.705.705 0 110 1.41h-5.671a.705.705 0 01-.706-.705z" fill="#fff" />
	<path fill-rule="evenodd" clip-rule="evenodd" d="M16.908 18.673c0-.908.737-1.645 1.647-1.645H43.14c.91 0 1.647.737 1.647 1.645v21.912h-1.412V18.673a.235.235 0 00-.235-.235H18.555a.235.235 0 00-.235.235v24.536c0 .13.105.235.235.235h8.301v1.41h-8.3c-.91 0-1.648-.737-1.648-1.645V18.673z" fill="#fff" />
	<path fill-rule="evenodd" clip-rule="evenodd" d="M28.688 19.143v3.55l1.413-.628a2.357 2.357 0 011.912 0l1.413.627v-3.55h-4.738zm-.47-1.41a.94.94 0 00-.942.94v4.742a.941.941 0 001.324.859l2.075-.92a.944.944 0 01.764 0l2.075.92a.941.941 0 001.324-.859v-4.742a.94.94 0 00-.941-.94h-5.68z" fill="#fff" />
</svg>
