<svg fill="none" xmlns="http://www.w3.org/2000/svg" viewBox="0 0 63 64">
	<path d="M62.911 31.791c0 17.303-14.026 31.33-31.329 31.33C14.28 63.12.253 49.094.253 31.79.253 14.49 14.28.462 31.583.462c17.302 0 31.328 14.027 31.328 31.33z" fill="#00ABFF" />
	<path fill-rule="evenodd" clip-rule="evenodd" d="M41.402 14.602a.703.703 0 01.261.966l-1.06 1.82a.716.716 0 01-.974.259.703.703 0 01-.261-.965l1.06-1.821a.716.716 0 01.974-.259zM21.644 14.602a.703.703 0 00-.26.966l1.06 1.82a.716.716 0 00.974.259.703.703 0 00.26-.965l-1.06-1.821a.716.716 0 00-.974-.259zM31.545 10.408a.71.71 0 01.713.707v4.415a.71.71 0 01-.713.707.71.71 0 01-.713-.707v-4.415c0-.39.32-.707.713-.707zM11.74 18.394a.717.717 0 011.009 0l3.15 3.122a.702.702 0 010 .999.717.717 0 01-1.01 0l-3.149-3.122a.702.702 0 010-1zM51.106 18.394a.717.717 0 00-1.009 0l-3.149 3.122a.702.702 0 000 .999.717.717 0 001.008 0l3.15-3.122a.702.702 0 000-1zM21.275 42.863a.71.71 0 01.71-.71H26a.71.71 0 110 1.42h-4.015a.71.71 0 01-.71-.71zm0 3.381a.71.71 0 01.71-.71h5.706a.71.71 0 110 1.42h-5.706a.71.71 0 01-.71-.71zM29.112 26.743v3.578l1.421-.632a2.367 2.367 0 011.924 0l1.421.632v-3.578h-4.766zm-.474-1.42a.947.947 0 00-.947.947v4.78a.947.947 0 001.332.866l2.087-.928a.948.948 0 01.77 0l2.087.928a.947.947 0 001.332-.866v-4.78a.947.947 0 00-.947-.948h-5.714z" fill="#fff" />
	<path fill-rule="evenodd" clip-rule="evenodd" d="M17.215 26.32c0-.94.763-1.704 1.705-1.704h24.627c.942 0 1.706.763 1.706 1.705v24.627c0 .942-.764 1.705-1.706 1.705H18.92a1.705 1.705 0 01-1.705-1.705V26.321zm1.705-.189a.19.19 0 00-.19.19v24.627c0 .105.085.19.19.19h24.627a.19.19 0 00.19-.19V26.321a.19.19 0 00-.19-.19H18.92z" fill="#fff" />
</svg>
