<svg width="74" height="74" viewBox="0 0 74 74" fill="none" xmlns="http://www.w3.org/2000/svg">
<path d="M73.5258 36.7275C73.5258 56.9037 57.1698 73.2597 36.9936 73.2597C16.8174 73.2597 0.461426 56.9037 0.461426 36.7275C0.461426 16.5513 16.8174 0.195312 36.9936 0.195312C57.1698 0.195312 73.5258 16.5513 73.5258 36.7275Z" fill="#00ABFF"/>
<path fill-rule="evenodd" clip-rule="evenodd" d="M20.4092 22.2303C20.4092 21.7179 20.8246 21.3025 21.337 21.3025H24.9219C25.837 21.3025 26.6455 21.8986 26.9161 22.7728L27.9879 26.2358H56.7115C58.1446 26.2358 59.1515 27.6467 58.6857 29.0019L54.0564 42.4689C53.7666 43.3119 52.9736 43.8778 52.0822 43.8778H33.0452C32.1301 43.8778 31.3216 43.2818 31.051 42.4075L25.1434 23.3215C25.1134 23.2243 25.0235 23.1581 24.9219 23.1581H21.337C20.8246 23.1581 20.4092 22.7427 20.4092 22.2303ZM28.5623 28.0914L32.8237 41.8589C32.8537 41.956 32.9436 42.0222 33.0452 42.0222H52.0822C52.1813 42.0222 52.2694 41.9593 52.3016 41.8657L56.9309 28.3987C56.9826 28.2481 56.8707 28.0914 56.7115 28.0914H28.5623Z" fill="white"/>
<path fill-rule="evenodd" clip-rule="evenodd" d="M35.6435 53.4274C37.3432 53.4274 38.7211 52.0495 38.7211 50.3498C38.7211 48.65 37.3432 47.2721 35.6435 47.2721C33.9437 47.2721 32.5658 48.65 32.5658 50.3498C32.5658 52.0495 33.9437 53.4274 35.6435 53.4274ZM35.6435 55.283C38.368 55.283 40.5767 53.0743 40.5767 50.3498C40.5767 47.6252 38.368 45.4165 35.6435 45.4165C32.9189 45.4165 30.7102 47.6252 30.7102 50.3498C30.7102 53.0743 32.9189 55.283 35.6435 55.283Z" fill="white"/>
<path fill-rule="evenodd" clip-rule="evenodd" d="M50.4433 53.4274C52.143 53.4274 53.521 52.0495 53.521 50.3498C53.521 48.65 52.143 47.2721 50.4433 47.2721C48.7435 47.2721 47.3656 48.65 47.3656 50.3498C47.3656 52.0495 48.7435 53.4274 50.4433 53.4274ZM50.4433 55.283C53.1679 55.283 55.3766 53.0743 55.3766 50.3498C55.3766 47.6252 53.1679 45.4165 50.4433 45.4165C47.7187 45.4165 45.51 47.6252 45.51 50.3498C45.51 53.0743 47.7187 55.283 50.4433 55.283Z" fill="white"/>
<path fill-rule="evenodd" clip-rule="evenodd" d="M11.1311 37.8869C11.1311 37.3745 11.5465 36.9591 12.0589 36.9591H26.5558C27.0682 36.9591 27.4836 37.3745 27.4836 37.8869C27.4836 38.3993 27.0682 38.8147 26.5558 38.8147H12.0589C11.5465 38.8147 11.1311 38.3993 11.1311 37.8869Z" fill="white"/>
<path fill-rule="evenodd" clip-rule="evenodd" d="M16.3501 33.8278C16.3501 33.3154 16.7655 32.9 17.2779 32.9H24.8163C25.3287 32.9 25.7441 33.3154 25.7441 33.8278C25.7441 34.3402 25.3287 34.7556 24.8163 34.7556H17.2779C16.7655 34.7556 16.3501 34.3402 16.3501 33.8278Z" fill="white"/>
</svg>
