<svg width="74" height="74" viewBox="0 0 74 74" fill="none" xmlns="http://www.w3.org/2000/svg">
<path d="M73.0644 36.7919C73.0644 56.9681 56.7083 73.3241 36.5322 73.3241C16.356 73.3241 0 56.9681 0 36.7919C0 16.6158 16.356 0.259766 36.5322 0.259766C56.7083 0.259766 73.0644 16.6158 73.0644 36.7919Z" fill="#00ABFF"/>
<path d="M55.735 21.366C55.7332 21.3361 55.7303 21.3067 55.7261 21.2774C55.7215 21.2486 55.7162 21.2204 55.7091 21.1928C55.7021 21.1653 55.6939 21.1377 55.6839 21.1112C55.6739 21.0842 55.6633 21.0578 55.6504 21.032C55.6381 21.0067 55.6252 20.9827 55.6105 20.9592C55.5958 20.9345 55.58 20.9111 55.5629 20.8882C55.5459 20.8658 55.5283 20.8441 55.5095 20.8236C55.4907 20.803 55.4714 20.7831 55.4508 20.7643C55.4297 20.7449 55.408 20.7267 55.3845 20.7097C55.3622 20.6933 55.3399 20.6774 55.3158 20.6633C55.2911 20.648 55.2659 20.6345 55.2401 20.6222C55.2142 20.6099 55.1884 20.5987 55.1614 20.5888C55.1344 20.5788 55.1074 20.5706 55.0792 20.5635C55.0504 20.5559 55.0211 20.55 54.9911 20.5453C54.9759 20.543 54.9618 20.5377 54.9465 20.5365C47.951 19.8367 42.4801 18.4142 36.8289 13.4946C36.462 13.1752 35.9049 13.214 35.5867 13.5803C35.5662 13.6038 35.5509 13.6302 35.5333 13.6555C29.8504 18.5587 25.1046 19.8637 18.3732 20.5359C17.9229 20.5811 17.5801 20.9598 17.5801 21.4124V42.0368C17.5801 42.1149 17.5906 42.1924 17.6112 42.2675C21.1823 55.4378 35.5849 61.6948 36.1961 61.9549C36.3064 62.0019 36.4239 62.0254 36.5407 62.0254C36.6563 62.0254 36.7732 62.0025 36.8818 61.9567C37.5005 61.6972 52.0681 55.4408 55.6393 42.2681C55.6516 42.2217 55.661 42.1747 55.6657 42.1266L55.735 41.445C55.7379 41.4157 55.7397 41.3857 55.7397 41.3558V21.413C55.7397 21.396 55.7361 21.3813 55.735 21.366ZM53.9209 41.8742C50.8388 53.0866 38.744 59.1546 36.5424 60.1767C34.3603 59.1516 22.441 53.0972 19.3407 41.917V22.2044C25.7216 21.4981 30.6706 20.0357 36.2794 15.3274C41.8378 19.9377 47.4291 21.4764 53.9779 22.2014V41.31L53.9209 41.8742Z" fill="white"/>
<path d="M44.8788 32.2722H44.0335C43.5685 28.3723 40.2181 25.3359 36.1614 25.3359C32.1048 25.3359 28.7544 28.3723 28.29 32.2722H27.2673C26.7812 32.2722 26.3867 32.6661 26.3867 33.1528V46.0683C26.3867 46.555 26.7812 46.9489 27.2673 46.9489H44.8794C45.3655 46.9489 45.76 46.555 45.76 46.0683V33.1528C45.7595 32.6661 45.3649 32.2722 44.8788 32.2722ZM36.1609 27.0971C39.2441 27.0971 41.7991 29.3468 42.2529 32.2722H30.0688C30.5232 29.3468 33.0776 27.0971 36.1609 27.0971ZM43.9982 34.0334V45.1877H28.1473V34.0334H43.9982Z" fill="white"/>
</svg>
