<svg width="74" height="74" viewBox="0 0 74 74" fill="none" xmlns="http://www.w3.org/2000/svg">
<path d="M73.2324 36.5977C73.2324 56.7744 56.876 73.1309 36.6992 73.1309C16.5225 73.1309 0.166016 56.7744 0.166016 36.5977C0.166016 16.4209 16.5225 0.0644531 36.6992 0.0644531C56.876 0.0644531 73.2324 16.4209 73.2324 36.5977Z" fill="#00ABFF"/>
<mask id="mask0" mask-type="alpha" maskUnits="userSpaceOnUse" x="0" y="0" width="74" height="74">
<path d="M73.2325 36.5977C73.2325 56.7744 56.876 73.1309 36.6992 73.1309C16.5225 73.1309 0.166016 56.7744 0.166016 36.5977C0.166016 16.4209 16.5225 0.0644531 36.6992 0.0644531C56.876 0.0644531 73.2325 16.4209 73.2325 36.5977Z" fill="#E9FCFC"/>
</mask>
<g mask="url(#mask0)">
<path d="M48.7966 34.9586C48.9232 34.8228 48.9853 34.6397 48.9653 34.4549L47.8746 24.4068C47.8381 24.0721 47.5494 23.8288 47.2179 23.8288H45.4009V23.6098C45.4009 22.0644 44.1037 20.8204 42.5252 20.8204C40.9466 20.8204 39.6494 22.0644 39.6494 23.6098V23.8288H37.8324C37.5009 23.8288 37.2122 24.0722 37.1757 24.4069L36.085 34.4549C36.065 34.6398 36.1275 34.823 36.2536 34.9586C36.3796 35.0939 36.5573 35.1695 36.7417 35.1695H48.3085C48.4929 35.1695 48.6706 35.094 48.7966 34.9586L48.626 34.7996H36.4242C36.3433 34.7126 36.3042 34.5964 36.3168 34.48L37.4076 24.4321C37.4305 24.2217 37.6138 24.062 37.8324 24.062H39.8826V23.6098C39.8826 22.2004 41.0681 21.0537 42.5252 21.0537C43.9822 21.0537 45.1677 22.2004 45.1677 23.6098V24.062H47.2179C47.4365 24.062 47.6198 24.2217 47.6427 24.4321L48.7335 34.48L48.626 34.7996L48.7966 34.9586Z" fill="white"/>
<path fill-rule="evenodd" clip-rule="evenodd" d="M40.7369 23.6098C40.7369 22.6561 41.5391 21.88 42.5252 21.88C43.5112 21.88 44.3135 22.6561 44.3135 23.6098V24.062H40.7369V23.6098ZM42.5252 22.1132C41.6605 22.1132 40.9701 22.7921 40.9701 23.6098V23.8288H44.0802V23.6098C44.0802 22.7921 43.3898 22.1132 42.5252 22.1132Z" fill="white"/>
<path fill-rule="evenodd" clip-rule="evenodd" d="M44.7406 26.2121C44.9764 26.2121 45.1677 26.027 45.1677 25.7989V24.8883H46.8332L47.8343 34.1099H37.216L38.2171 24.8883H39.8826V25.7989C39.8826 26.027 40.0739 26.2121 40.3097 26.2121C40.5456 26.2121 40.7369 26.027 40.7369 25.7989V24.8883H44.3135V25.7989C44.3135 26.027 44.5047 26.2121 44.7406 26.2121ZM37.4759 33.8767H47.5744L46.624 25.1216H45.4009V25.7989C45.4009 26.1631 45.0979 26.4453 44.7406 26.4453C44.3833 26.4453 44.0802 26.1631 44.0802 25.7989V25.1216H40.9701V25.7989C40.9701 26.1631 40.667 26.4453 40.3097 26.4453C39.9524 26.4453 39.6494 26.1631 39.6494 25.7989V25.1216H38.4264L37.4759 33.8767Z" fill="white"/>
<path fill-rule="evenodd" clip-rule="evenodd" d="M48.7335 34.48L47.6427 24.4321C47.6198 24.2217 47.4365 24.062 47.2179 24.062H45.1677V23.6098C45.1677 22.2004 43.9822 21.0537 42.5252 21.0537C41.0681 21.0537 39.8826 22.2004 39.8826 23.6098V24.062H37.8324C37.6138 24.062 37.4305 24.2217 37.4076 24.4321L36.3168 34.48L36.4242 34.7996H48.626L48.7335 34.48ZM45.1677 25.7989C45.1677 26.027 44.9764 26.2121 44.7406 26.2121C44.5047 26.2121 44.3135 26.027 44.3135 25.7989V24.8883H40.7369V25.7989C40.7369 26.027 40.5456 26.2121 40.3097 26.2121C40.0739 26.2121 39.8826 26.027 39.8826 25.7989V24.8883H38.2171L37.216 34.1099H47.8343L46.8332 24.8883H45.1677V25.7989ZM42.5252 21.88C41.5391 21.88 40.7369 22.6561 40.7369 23.6098V24.062H44.3135V23.6098C44.3135 22.6561 43.5112 21.88 42.5252 21.88Z" fill="white"/>
<path d="M58.3094 16.2972H25.7955C24.4161 16.2972 23.2937 17.4197 23.2937 18.799V39.433C23.2937 39.7781 23.5738 40.0582 23.919 40.0582H60.1858C60.5309 40.0582 60.8111 39.7781 60.8111 39.433V18.799C60.8111 17.4197 59.6888 16.2972 58.3094 16.2972ZM59.5605 38.8077H24.5443V18.799C24.5443 18.1087 25.1058 17.5478 25.7955 17.5478H58.3094C58.999 17.5478 59.5605 18.1087 59.5605 18.799V38.8077Z" fill="white"/>
<path fill-rule="evenodd" clip-rule="evenodd" d="M25.7956 16.0639H58.3094C59.8176 16.0639 61.0444 17.2908 61.0444 18.7989V39.4329C61.0444 39.9068 60.6598 40.2913 60.1859 40.2913H23.919C23.4451 40.2913 23.0605 39.9068 23.0605 39.4329V18.7989C23.0605 17.2908 24.2873 16.0639 25.7956 16.0639ZM24.7776 38.5744H59.3274V18.7989C59.3274 18.2375 58.8704 17.7809 58.3094 17.7809H25.7956C25.2346 17.7809 24.7776 18.2375 24.7776 18.7989V38.5744ZM25.7956 16.2971H58.3094C59.6888 16.2971 60.8112 17.4196 60.8111 18.7989V39.4329C60.8111 39.778 60.531 40.0581 60.1859 40.0581H23.919C23.5739 40.0581 23.2938 39.778 23.2938 39.4329V18.7989C23.2938 17.4196 24.4161 16.2971 25.7956 16.2971ZM59.5606 38.8076V18.7989C59.5606 18.1086 58.9991 17.5477 58.3094 17.5477H25.7956C25.1059 17.5477 24.5444 18.1086 24.5444 18.7989V38.8076H59.5606Z" fill="white"/>
<path d="M60.1866 38.8091H23.9197C23.5746 38.8091 23.2944 39.0893 23.2944 39.4344V42.5602C23.2944 43.9397 24.4168 45.062 25.7962 45.062H58.3101C59.6895 45.062 60.8119 43.9397 60.8119 42.5602V39.4344C60.8119 39.0893 60.5317 38.8091 60.1866 38.8091ZM59.5613 42.5603C59.5613 43.2506 58.9998 43.8115 58.3101 43.8115H25.7962C25.1066 43.8115 24.545 43.2506 24.545 42.5603V40.0597H59.5614V42.5603H59.5613Z" fill="white"/>
<path fill-rule="evenodd" clip-rule="evenodd" d="M59.3275 42.3263V40.2922H24.7776V42.5595C24.7776 43.121 25.2346 43.5775 25.7956 43.5775H58.3094C58.8704 43.5775 59.3274 43.121 59.3274 42.5595L59.3275 42.3263ZM59.5607 42.5595V40.059H24.5444V42.5595C24.5444 43.2498 25.1059 43.8107 25.7956 43.8107H58.3094C58.9991 43.8107 59.5607 43.2498 59.5607 42.5595ZM23.919 38.5751H60.1859C60.6599 38.5751 61.0444 38.9597 61.0444 39.4336V42.5594C61.0444 44.0677 59.8176 45.2944 58.3094 45.2944H25.7956C24.2873 45.2944 23.0605 44.0677 23.0605 42.5594V39.4336C23.0605 38.9597 23.4451 38.5751 23.919 38.5751ZM23.919 38.8083H60.1859C60.5311 38.8083 60.8112 39.0885 60.8112 39.4336V42.5594C60.8112 43.9389 59.6888 45.0612 58.3094 45.0612H25.7956C24.4161 45.0612 23.2938 43.9389 23.2938 42.5594V39.4336C23.2938 39.0885 23.5739 38.8083 23.919 38.8083Z" fill="white"/>
<path d="M50.1817 48.8124H33.9242C32.89 48.8124 32.0483 49.6541 32.0483 50.6883C32.0483 51.7225 32.89 52.5642 33.9242 52.5642H50.1818C51.216 52.5642 52.0577 51.7225 52.0577 50.6883C52.0577 49.6541 51.2159 48.8124 50.1817 48.8124ZM50.1817 51.3136H33.9242C33.5791 51.3136 33.2989 51.0329 33.2989 50.6883C33.2989 50.3438 33.5791 50.063 33.9242 50.063H50.1818C50.5269 50.063 50.8071 50.3438 50.8071 50.6883C50.8071 51.0329 50.5269 51.3136 50.1817 51.3136Z" fill="white"/>
<path fill-rule="evenodd" clip-rule="evenodd" d="M33.9235 48.5785H50.1811C51.3441 48.5785 52.2902 49.5245 52.2902 50.6876C52.2902 51.8506 51.3442 52.7967 50.1811 52.7967H33.9235C32.7605 52.7967 31.8145 51.8506 31.8145 50.6876C31.8145 49.5246 32.7605 48.5785 33.9235 48.5785ZM33.9235 51.0796H50.1811C50.3973 51.0796 50.5732 50.9034 50.5732 50.6876C50.5732 50.4717 50.3973 50.2955 50.1811 50.2955H33.9235C33.7074 50.2955 33.5315 50.4717 33.5315 50.6876C33.5315 50.9035 33.7074 51.0796 33.9235 51.0796ZM33.9235 48.8117H50.1811C51.2153 48.8117 52.057 49.6534 52.057 50.6876C52.057 51.7218 51.2153 52.5635 50.1811 52.5635H33.9235C32.8893 52.5635 32.0477 51.7218 32.0477 50.6876C32.0477 49.6534 32.8893 48.8117 33.9235 48.8117ZM33.9235 51.3128H50.1811C50.5263 51.3128 50.8064 51.0321 50.8064 50.6876C50.8064 50.343 50.5263 50.0623 50.1811 50.0623H33.9235C33.5784 50.0623 33.2983 50.343 33.2983 50.6876C33.2983 51.0321 33.5784 51.3128 33.9235 51.3128Z" fill="white"/>
<path d="M48.9314 48.8134C46.8567 48.8134 45.805 47.3408 45.805 44.4364C45.805 44.0912 45.5248 43.8111 45.1797 43.8111H38.9268C38.5817 43.8111 38.3015 44.0912 38.3015 44.4364C38.3015 47.3408 37.2498 48.8134 35.1751 48.8134C34.8299 48.8134 34.5498 49.0935 34.5498 49.4386C34.5498 49.7838 34.8299 50.0639 35.1751 50.0639H42.0533H48.9314C49.2766 50.0639 49.5567 49.7838 49.5567 49.4386C49.5567 49.0935 49.2766 48.8134 48.9314 48.8134ZM38.2208 48.8134C38.9906 47.9605 39.4439 46.6905 39.5352 45.0616H44.5719C44.6625 46.6905 45.1159 47.9605 45.8862 48.8134H42.0535H38.2208Z" fill="white"/>
<path fill-rule="evenodd" clip-rule="evenodd" d="M46.7793 47.5777C47.2507 48.2377 47.9557 48.5794 48.9308 48.5794C49.4047 48.5794 49.7893 48.9639 49.7893 49.4378C49.7893 49.9118 49.4047 50.2963 48.9308 50.2963H35.1744C34.7005 50.2963 34.3159 49.9118 34.3159 49.4378C34.3159 48.9639 34.7005 48.5794 35.1744 48.5794C36.1495 48.5794 36.8545 48.2377 37.3259 47.5777C37.8074 46.9036 38.0677 45.8664 38.0677 44.4356C38.0677 43.9616 38.4522 43.5771 38.9261 43.5771H45.179C45.653 43.5771 46.0375 43.9616 46.0375 44.4356C46.0375 45.8664 46.2978 46.9036 46.7793 47.5777ZM38.2201 48.8126H45.8856C45.8182 48.738 45.7533 48.6603 45.6908 48.5794C45.0387 47.7349 44.6539 46.5473 44.5712 45.0608H39.5345C39.4512 46.5473 39.0664 47.7349 38.4147 48.5794C38.3523 48.6603 38.2874 48.738 38.2201 48.8126ZM38.7048 48.5794H45.4007C44.8085 47.7444 44.456 46.6329 44.3529 45.294H39.7527C39.6492 46.633 39.2966 47.7444 38.7048 48.5794ZM45.8043 44.4356C45.8043 47.34 46.856 48.8126 48.9308 48.8126C49.2759 48.8126 49.556 49.0927 49.556 49.4378C49.556 49.783 49.2759 50.0631 48.9308 50.0631H35.1744C34.8293 50.0631 34.5491 49.783 34.5491 49.4378C34.5491 49.0927 34.8293 48.8126 35.1744 48.8126C37.2491 48.8126 38.3009 47.34 38.3009 44.4356C38.3009 44.0904 38.581 43.8103 38.9261 43.8103H45.179C45.5242 43.8103 45.8043 44.0904 45.8043 44.4356Z" fill="white"/>
<path d="M18.2151 34.3608H19.3388V35.4845H18.2151V34.3608Z" fill="white"/>
<rect x="14.0486" y="32.9442" width="17.5359" height="27.0346" rx="3" fill="#00ABFF"/>
<path d="M20.4624 35.6532C20.4624 35.3429 20.714 35.0913 21.0243 35.0913H24.3954C24.7057 35.0913 24.9572 35.3429 24.9572 35.6532C24.9572 35.9635 24.7057 36.215 24.3954 36.215H21.0243C20.714 36.215 20.4624 35.9635 20.4624 35.6532Z" fill="white"/>
<path d="M16.6284 33.5231H28.6145C29.7827 33.5231 30.7297 34.4701 30.7297 35.6383V56.7903C30.7297 57.9585 29.7827 58.9055 28.6145 58.9055H17.1572L17.686 60.3156H28.6145C30.5615 60.3156 32.1399 58.7373 32.1399 56.7903V35.6383C32.1399 33.6913 30.5615 32.1129 28.6145 32.1129H16.6284C14.6814 32.1129 13.103 33.6913 13.103 35.6383V56.7903H14.5132V35.6383C14.5132 34.4701 15.4602 33.5231 16.6284 33.5231Z" fill="white"/>
<path d="M18.0644 59.082L19.996 55.7367L20.2197 55.2934C20.4428 54.7678 20.4569 54.1768 20.2592 53.6411C20.0614 53.1054 19.6667 52.6654 19.1555 52.4108C18.6443 52.1562 18.0553 52.1063 17.5086 52.2712C16.9619 52.4362 16.4988 52.8035 16.2137 53.2983L14.3034 56.6087C14.2895 56.4973 14.2824 56.3851 14.282 56.2727V46.8898H13.1583C12.8008 47.0562 12.5129 47.3427 12.3448 47.6995L9.79452 53.232C9.417 54.0435 9.22268 54.9282 9.22537 55.8233V65.8242H10.3491V55.8233C10.3466 55.0914 10.5054 54.368 10.8143 53.7045L13.1583 48.6186V56.2727C13.1579 56.9438 13.3299 57.6037 13.6578 58.1892C13.7001 58.2839 13.7678 58.3651 13.8534 58.4237C13.939 58.4823 14.0392 58.5161 14.1428 58.5213C14.2464 58.5265 14.3494 58.5028 14.4405 58.4531C14.5315 58.4033 14.6069 58.3293 14.6585 58.2392L17.1868 53.8602C17.3369 53.6042 17.5821 53.4179 17.869 53.3421C18.1558 53.2662 18.4611 53.3069 18.7181 53.4553C18.975 53.6037 19.1629 53.8477 19.2406 54.134C19.3184 54.4204 19.2797 54.7259 19.133 54.9839L16.6047 59.3629C16.5545 59.4498 16.5285 59.5486 16.5293 59.649C16.5302 59.7494 16.558 59.8477 16.6098 59.9338L17.8133 61.934C18.9968 63.9068 15.933 68.7781 14.282 69.4773C13.4194 69.8426 14.4907 70.2079 15.51 69.8426C17.6236 69.0851 20.1263 63.6033 18.7768 61.3552L18.0852 60.2057L18.0644 59.082Z" fill="white"/>
<path d="M28.0115 51.2005C28.1146 51.0902 28.1652 50.9414 28.1489 50.7912L27.2607 42.6256C27.231 42.3536 26.9959 42.1558 26.7259 42.1558H25.2464V41.9779C25.2464 40.722 24.19 39.7111 22.9046 39.7111C21.6192 39.7111 20.5628 40.722 20.5628 41.9779V42.1558H19.0832C18.8132 42.1558 18.5781 42.3537 18.5485 42.6257L17.6602 50.7912C17.6439 50.9415 17.6949 51.0903 17.7975 51.2005C17.9002 51.3105 18.0448 51.3719 18.195 51.3719H27.6141C27.7642 51.3719 27.9089 51.3105 28.0115 51.2005L27.8726 51.0713H17.9365C17.8706 51.0006 17.8388 50.9062 17.849 50.8116L18.7373 42.6461C18.7559 42.4752 18.9052 42.3454 19.0832 42.3454H20.7527V41.9779C20.7527 40.8326 21.718 39.9006 22.9046 39.9006C24.0911 39.9006 25.0565 40.8326 25.0565 41.9779V42.3454H26.7259C26.904 42.3454 27.0532 42.4752 27.0719 42.6461L27.9601 50.8116L27.8726 51.0713L28.0115 51.2005Z" fill="white"/>
<path fill-rule="evenodd" clip-rule="evenodd" d="M21.4483 41.9779C21.4483 41.2028 22.1016 40.5722 22.9046 40.5722C23.7075 40.5722 24.3608 41.2028 24.3608 41.9779V42.3454H21.4483V41.9779ZM22.9046 40.7617C22.2005 40.7617 21.6382 41.3134 21.6382 41.9779V42.1558H24.1709V41.9779C24.1709 41.3134 23.6086 40.7617 22.9046 40.7617Z" fill="white"/>
<path fill-rule="evenodd" clip-rule="evenodd" d="M24.7086 44.0926C24.9007 44.0926 25.0565 43.9423 25.0565 43.7569V43.0169H26.4127L27.2279 50.5108H18.5812L19.3964 43.0169H20.7527V43.7569C20.7527 43.9423 20.9085 44.0926 21.1005 44.0926C21.2926 44.0926 21.4483 43.9423 21.4483 43.7569V43.0169H24.3608V43.7569C24.3608 43.9423 24.5166 44.0926 24.7086 44.0926ZM18.7929 50.3213H27.0163L26.2423 43.2064H25.2464V43.7569C25.2464 44.0528 24.9996 44.2822 24.7086 44.2822C24.4177 44.2822 24.1709 44.0528 24.1709 43.7569V43.2064H21.6382V43.7569C21.6382 44.0528 21.3915 44.2822 21.1005 44.2822C20.8096 44.2822 20.5628 44.0528 20.5628 43.7569V43.2064H19.5668L18.7929 50.3213Z" fill="white"/>
<path fill-rule="evenodd" clip-rule="evenodd" d="M27.9601 50.8116L27.0719 42.6461C27.0532 42.4752 26.904 42.3454 26.7259 42.3454H25.0565V41.9779C25.0565 40.8326 24.0911 39.9006 22.9046 39.9006C21.718 39.9006 20.7527 40.8326 20.7527 41.9779V42.3454H19.0832C18.9052 42.3454 18.7559 42.4752 18.7373 42.6461L17.849 50.8116L17.9365 51.0713H27.8726L27.9601 50.8116ZM25.0565 43.7569C25.0565 43.9423 24.9007 44.0926 24.7086 44.0926C24.5166 44.0926 24.3608 43.9423 24.3608 43.7569V43.0169H21.4483V43.7569C21.4483 43.9423 21.2926 44.0926 21.1005 44.0926C20.9085 44.0926 20.7527 43.9423 20.7527 43.7569V43.0169H19.3964L18.5812 50.5108H27.2279L26.4127 43.0169H25.0565V43.7569ZM22.9046 40.5722C22.1016 40.5722 21.4483 41.2028 21.4483 41.9779V42.3454H24.3608V41.9779C24.3608 41.2028 23.7075 40.5722 22.9046 40.5722Z" fill="white"/>
</g>
</svg>
