<svg width="24" height="23" viewBox="0 0 24 23" fill="none" xmlns="http://www.w3.org/2000/svg">
<path d="M1 20.8966V14.2641M1 14.2641H7.63253M1 14.2641L6.12861 19.0843C7.31666 20.2729 8.78645 21.1413 10.4009 21.6082C12.0152 22.0752 13.7216 22.1256 15.3608 21.7547C16.9999 21.3838 18.5184 20.6038 19.7745 19.4873C21.0307 18.3709 21.9835 16.9544 22.5441 15.3701M22.5441 2.1017V8.73423M22.5441 8.73423H15.9116M22.5441 8.73423L17.4155 3.9157C16.2275 2.72705 14.7577 1.85874 13.1433 1.39177C11.5289 0.924804 9.82249 0.874408 8.18335 1.24528C6.54421 1.61616 5.02573 2.39622 3.7696 3.51268C2.51347 4.62914 1.56063 6.04561 1 7.62992" stroke="#CB11AB" stroke-width="1.8" stroke-linecap="round" stroke-linejoin="round"/>
</svg>
